WIPSHDC-Old-Traditional-Sans-ExtraLight.ufo
<glyph name="uni35C1" format="2">
	<advance width="1000" height="1000"/>
	<unicode hex="35C1"/>
	<note>
		cid02919
	</note>
	<outline>
		<contour>
			<point x="330" y="721" type="line"/>
			<point x="94" y="721" type="line"/>
			<point x="94" y="692" type="line"/>
			<point x="300" y="692" type="line"/>
			<point x="300" y="229" type="line"/>
			<point x="94" y="229" type="line"/>
			<point x="94" y="199" type="line"/>
			<point x="330" y="199" type="line"/>
		</contour>
		<contour>
			<point x="113" y="721" type="line"/>
			<point x="83" y="721" type="line"/>
			<point x="83" y="113" type="line"/>
			<point x="113" y="113" type="line"/>
		</contour>
		<contour>
			<point x="950" y="320" type="line"/>
			<point x="380" y="320" type="line"/>
			<point x="380" y="290" type="line"/>
			<point x="950" y="290" type="line"/>
		</contour>
		<contour>
			<point x="883" y="457" type="line"/>
			<point x="450" y="457" type="line"/>
			<point x="450" y="427" type="line"/>
			<point x="883" y="427" type="line"/>
		</contour>
		<contour>
			<point x="834" y="192" type="line"/>
			<point x="516" y="192" type="line"/>
			<point x="516" y="163" type="line"/>
			<point x="834" y="163" type="line"/>
		</contour>
		<contour>
			<point x="856" y="192" type="curve"/>
			<point x="825" y="192" type="line"/>
			<point x="825" y="186" type="line"/>
			<point x="812" y="38"/>
			<point x="799" y="-19"/>
			<point x="780" y="-36" type="curve" smooth="yes"/>
			<point x="772" y="-43"/>
			<point x="764" y="-44"/>
			<point x="743" y="-44" type="curve" smooth="yes"/>
			<point x="725" y="-44"/>
			<point x="667" y="-44"/>
			<point x="608" y="-38" type="curve"/>
			<point x="613" y="-47"/>
			<point x="616" y="-59"/>
			<point x="617" y="-66" type="curve"/>
			<point x="671" y="-70"/>
			<point x="726" y="-71"/>
			<point x="750" y="-71" type="curve" smooth="yes"/>
			<point x="776" y="-70"/>
			<point x="789" y="-67"/>
			<point x="803" y="-55" type="curve" smooth="yes"/>
			<point x="826" y="-33"/>
			<point x="839" y="24"/>
			<point x="854" y="174" type="curve" smooth="yes"/>
			<point x="855" y="180"/>
			<point x="856" y="192"/>
		</contour>
		<contour>
			<point x="572" y="308" type="curve"/>
			<point x="542" y="308" type="line"/>
			<point x="525" y="246"/>
			<point x="502" y="166"/>
			<point x="481" y="114" type="curve"/>
			<point x="511" y="106" type="line"/>
			<point x="529" y="160"/>
			<point x="554" y="242"/>
		</contour>
		<contour>
			<point x="456" y="567" type="line"/>
			<point x="456" y="756" type="line"/>
			<point x="604" y="756" type="line"/>
			<point x="604" y="567" type="line"/>
		</contour>
		<contour>
			<point x="633" y="785" type="line"/>
			<point x="426" y="785" type="line"/>
			<point x="426" y="537" type="line"/>
			<point x="633" y="537" type="line"/>
		</contour>
		<contour>
			<point x="734" y="567" type="line"/>
			<point x="734" y="756" type="line"/>
			<point x="891" y="756" type="line"/>
			<point x="891" y="567" type="line"/>
		</contour>
		<contour>
			<point x="920" y="785" type="line"/>
			<point x="705" y="785" type="line"/>
			<point x="705" y="537" type="line"/>
			<point x="920" y="537" type="line"/>
		</contour>
	</outline>
</glyph>
<glyph name="uni35D6" format="2">
	<advance width="1000" height="1000"/>
	<unicode hex="35D6"/>
	<note>
		cid02941
	</note>
	<outline>
		<contour>
			<point x="319" y="716" type="line"/>
			<point x="95" y="716" type="line"/>
			<point x="95" y="687" type="line"/>
			<point x="290" y="687" type="line"/>
			<point x="290" y="243" type="line"/>
			<point x="95" y="243" type="line"/>
			<point x="95" y="213" type="line"/>
			<point x="319" y="213" type="line"/>
		</contour>
		<contour>
			<point x="114" y="716" type="line"/>
			<point x="84" y="716" type="line"/>
			<point x="84" y="126" type="line"/>
			<point x="114" y="126" type="line"/>
		</contour>
		<contour>
			<point x="889" y="418" type="line"/>
			<point x="676" y="418" type="line"/>
			<point x="676" y="388" type="line"/>
			<point x="889" y="388" type="line"/>
		</contour>
		<contour>
			<point x="610" y="215" type="line"/>
			<point x="420" y="215" type="line"/>
			<point x="420" y="185" type="line"/>
			<point x="610" y="185" type="line"/>
		</contour>
		<contour>
			<point x="890" y="7" type="line"/>
			<point x="422" y="7" type="line"/>
			<point x="422" y="-22" type="line"/>
			<point x="890" y="-22" type="line"/>
		</contour>
		<contour>
			<point x="893" y="215" type="line"/>
			<point x="689" y="215" type="line"/>
			<point x="689" y="185" type="line"/>
			<point x="893" y="185" type="line"/>
		</contour>
		<contour>
			<point x="638" y="453" type="curve"/>
			<point x="611" y="474" type="line"/>
			<point x="567" y="446"/>
			<point x="483" y="414"/>
			<point x="412" y="391" type="curve"/>
			<point x="417" y="384"/>
			<point x="422" y="375"/>
			<point x="425" y="369" type="curve"/>
			<point x="497" y="390"/>
			<point x="581" y="422"/>
		</contour>
		<contour>
			<point x="433" y="398" type="line"/>
			<point x="404" y="408" type="line"/>
			<point x="404" y="-70" type="line"/>
			<point x="433" y="-70" type="line"/>
		</contour>
		<contour>
			<point x="904" y="418" type="line"/>
			<point x="874" y="418" type="line"/>
			<point x="874" y="-67" type="line"/>
			<point x="904" y="-67" type="line"/>
		</contour>
		<contour>
			<point x="868" y="809" type="curve"/>
			<point x="839" y="830" type="line"/>
			<point x="753" y="804"/>
			<point x="590" y="778"/>
			<point x="452" y="762" type="curve"/>
			<point x="456" y="755"/>
			<point x="461" y="745"/>
			<point x="462" y="738" type="curve"/>
			<point x="603" y="753"/>
			<point x="766" y="778"/>
		</contour>
		<contour>
			<point x="481" y="765" type="curve"/>
			<point x="451" y="770" type="line"/>
			<point x="427" y="657"/>
			<point x="386" y="546"/>
			<point x="329" y="471" type="curve"/>
			<point x="338" y="467"/>
			<point x="352" y="459"/>
			<point x="358" y="455" type="curve"/>
			<point x="412" y="532"/>
			<point x="455" y="645"/>
		</contour>
		<contour>
			<point x="633" y="715" type="curve"/>
			<point x="605" y="711" type="line"/>
			<point x="623" y="652"/>
			<point x="636" y="576"/>
			<point x="637" y="527" type="curve"/>
			<point x="668" y="532" type="line"/>
			<point x="667" y="581"/>
			<point x="653" y="657"/>
		</contour>
		<contour>
			<point x="817" y="738" type="curve"/>
			<point x="792" y="727" type="line"/>
			<point x="847" y="657"/>
			<point x="904" y="559"/>
			<point x="928" y="496" type="curve"/>
			<point x="955" y="509" type="line"/>
			<point x="931" y="572"/>
			<point x="872" y="667"/>
		</contour>
	</outline>
</glyph>
<glyph name="uni37FB" format="2">
	<advance width="1000" height="1000"/>
	<unicode hex="37FB"/>
	<note>
		cid03557
	</note>
	<outline>
		<contour>
			<point x="503" y="763" type="line"/>
			<point x="70" y="763" type="line"/>
			<point x="70" y="733" type="line"/>
			<point x="503" y="733" type="line"/>
		</contour>
		<contour>
			<point x="303" y="833" type="line"/>
			<point x="274" y="833" type="line"/>
			<point x="274" y="251" type="line"/>
			<point x="303" y="251" type="line"/>
		</contour>
		<contour>
			<point x="122" y="469" type="line"/>
			<point x="122" y="543" type="line"/>
			<point x="462" y="543" type="line"/>
			<point x="462" y="469" type="line"/>
		</contour>
		<contour>
			<point x="122" y="573" type="line"/>
			<point x="122" y="645" type="line"/>
			<point x="462" y="645" type="line"/>
			<point x="462" y="573" type="line"/>
		</contour>
		<contour>
			<point x="491" y="675" type="line"/>
			<point x="92" y="675" type="line"/>
			<point x="92" y="440" type="line"/>
			<point x="491" y="440" type="line"/>
		</contour>
		<contour>
			<point x="505" y="370" type="line"/>
			<point x="54" y="370" type="line"/>
			<point x="54" y="341" type="line"/>
			<point x="505" y="341" type="line"/>
		</contour>
		<contour>
			<point x="513" y="247" type="line"/>
			<point x="484" y="247" type="line"/>
			<point x="484" y="-6" type="line"/>
			<point x="513" y="-6" type="line"/>
		</contour>
		<contour>
			<point x="180" y="197" type="line"/>
			<point x="151" y="197" type="line"/>
			<point x="151" y="-72" type="line"/>
			<point x="180" y="-72" type="line"/>
		</contour>
		<contour>
			<point x="842" y="9" type="line"/>
			<point x="165" y="9" type="line"/>
			<point x="165" y="-21" type="line"/>
			<point x="842" y="-21" type="line"/>
		</contour>
		<contour>
			<point x="856" y="197" type="line"/>
			<point x="827" y="197" type="line"/>
			<point x="827" y="-67" type="line"/>
			<point x="856" y="-67" type="line"/>
		</contour>
		<contour>
			<point x="951" y="610" type="line"/>
			<point x="589" y="610" type="line"/>
			<point x="589" y="581" type="line"/>
			<point x="951" y="581" type="line"/>
		</contour>
		<contour>
			<point x="814" y="596" type="line"/>
			<point x="784" y="596" type="line"/>
			<point x="784" y="244" type="line"/>
			<point x="814" y="244" type="line"/>
		</contour>
		<contour>
			<point x="914" y="805" type="curve"/>
			<point x="885" y="826" type="line"/>
			<point x="821" y="797"/>
			<point x="689" y="774"/>
			<point x="582" y="760" type="curve"/>
			<point x="587" y="753"/>
			<point x="592" y="743"/>
			<point x="594" y="736" type="curve"/>
			<point x="704" y="749"/>
			<point x="836" y="771"/>
		</contour>
		<contour>
			<point x="615" y="760" type="curve"/>
			<point x="572" y="776" type="line"/>
			<point x="572" y="576" type="line" smooth="yes"/>
			<point x="572" y="479"/>
			<point x="556" y="362"/>
			<point x="455" y="271" type="curve"/>
			<point x="463" y="266"/>
			<point x="472" y="256"/>
			<point x="477" y="249" type="curve"/>
			<point x="583" y="348"/>
			<point x="601" y="474"/>
			<point x="601" y="576" type="curve" smooth="yes"/>
			<point x="601" y="751" type="line"/>
			<point x="610" y="752"/>
			<point x="614" y="756"/>
		</contour>
	</outline>
</glyph>
<glyph name="uni3863" format="2">
	<advance width="1000" height="1000"/>
	<unicode hex="3863"/>
	<note>
		cid03669
	</note>
	<outline>
		<contour>
			<point x="943" y="740" type="line"/>
			<point x="580" y="740" type="line"/>
			<point x="580" y="711" type="line"/>
			<point x="943" y="711" type="line"/>
		</contour>
		<contour>
			<point x="900" y="334" type="line"/>
			<point x="581" y="334" type="line"/>
			<point x="581" y="305" type="line"/>
			<point x="900" y="305" type="line"/>
		</contour>
		<contour>
			<point x="894" y="223" type="line"/>
			<point x="580" y="223" type="line"/>
			<point x="580" y="193" type="line"/>
			<point x="894" y="193" type="line"/>
		</contour>
		<contour>
			<point x="904" y="105" type="line"/>
			<point x="581" y="105" type="line"/>
			<point x="581" y="76" type="line"/>
			<point x="904" y="76" type="line"/>
		</contour>
		<contour>
			<point x="595" y="831" type="line"/>
			<point x="566" y="831" type="line"/>
			<point x="566" y="588" type="line"/>
			<point x="595" y="588" type="line"/>
		</contour>
		<contour>
			<point x="902" y="603" type="line"/>
			<point x="566" y="603" type="line"/>
			<point x="566" y="573" type="line"/>
			<point x="872" y="573" type="line"/>
			<point x="872" y="448" type="line"/>
			<point x="566" y="448" type="line"/>
			<point x="566" y="419" type="line"/>
			<point x="902" y="419" type="line"/>
		</contour>
		<contour>
			<point x="595" y="1" type="curve" smooth="yes"/>
			<point x="595" y="427" type="line"/>
			<point x="566" y="427" type="line"/>
			<point x="566" y="2" type="line" smooth="yes"/>
			<point x="566" y="-55"/>
			<point x="587" y="-65"/>
			<point x="663" y="-65" type="curve" smooth="yes"/>
			<point x="678" y="-65"/>
			<point x="863" y="-65"/>
			<point x="879" y="-65" type="curve" smooth="yes"/>
			<point x="941" y="-65"/>
			<point x="952" y="-43"/>
			<point x="957" y="38" type="curve"/>
			<point x="948" y="40"/>
			<point x="935" y="45"/>
			<point x="927" y="51" type="curve"/>
			<point x="924" y="-22"/>
			<point x="917" y="-35"/>
			<point x="879" y="-35" type="curve" smooth="yes"/>
			<point x="843" y="-35"/>
			<point x="686" y="-35"/>
			<point x="660" y="-35" type="curve" smooth="yes"/>
			<point x="604" y="-35"/>
			<point x="595" y="-27"/>
		</contour>
		<contour>
			<point x="510" y="727" type="line"/>
			<point x="55" y="727" type="line"/>
			<point x="55" y="698" type="line"/>
			<point x="510" y="698" type="line"/>
		</contour>
		<contour>
			<point x="291" y="831" type="line"/>
			<point x="262" y="831" type="line"/>
			<point x="262" y="712" type="line"/>
			<point x="291" y="712" type="line"/>
		</contour>
		<contour>
			<point x="291" y="454" type="line"/>
			<point x="262" y="454" type="line"/>
			<point x="262" y="-71" type="line"/>
			<point x="291" y="-71" type="line"/>
		</contour>
		<contour>
			<point x="179" y="688" type="curve"/>
			<point x="151" y="682" type="line"/>
			<point x="168" y="637"/>
			<point x="184" y="577"/>
			<point x="189" y="541" type="curve"/>
			<point x="218" y="551" type="line"/>
			<point x="213" y="585"/>
			<point x="196" y="643"/>
		</contour>
		<contour>
			<point x="411" y="681" type="curve"/>
			<point x="380" y="692" type="line"/>
			<point x="370" y="651"/>
			<point x="349" y="587"/>
			<point x="332" y="549" type="curve"/>
			<point x="358" y="539" type="line"/>
			<point x="375" y="575"/>
			<point x="394" y="633"/>
		</contour>
		<contour>
			<point x="499" y="537" type="line"/>
			<point x="55" y="537" type="line"/>
			<point x="55" y="389" type="line"/>
			<point x="84" y="389" type="line"/>
			<point x="84" y="508" type="line"/>
			<point x="470" y="508" type="line"/>
			<point x="470" y="389" type="line"/>
			<point x="499" y="389" type="line"/>
		</contour>
		<contour>
			<point x="429" y="358" type="line"/>
			<point x="104" y="358" type="line"/>
			<point x="104" y="45" type="line"/>
			<point x="133" y="45" type="line"/>
			<point x="133" y="328" type="line"/>
			<point x="429" y="328" type="line"/>
		</contour>
		<contour>
			<point x="445" y="90" type="curve" smooth="yes"/>
			<point x="445" y="358" type="line"/>
			<point x="416" y="358" type="line"/>
			<point x="416" y="89" type="line" smooth="yes"/>
			<point x="416" y="82"/>
			<point x="414" y="80"/>
			<point x="405" y="80" type="curve" smooth="yes"/>
			<point x="396" y="79"/>
			<point x="370" y="79"/>
			<point x="337" y="80" type="curve"/>
			<point x="341" y="72"/>
			<point x="346" y="61"/>
			<point x="347" y="53" type="curve"/>
			<point x="388" y="53"/>
			<point x="413" y="53"/>
			<point x="427" y="58" type="curve" smooth="yes"/>
			<point x="441" y="64"/>
			<point x="445" y="72"/>
		</contour>
	</outline>
</glyph>
<glyph name="uni38C3" format="2">
	<advance width="1000" height="1000"/>
	<unicode hex="38C3"/>
	<note>
		cid03768
	</note>
	<outline>
		<contour>
			<point x="278" y="337" type="line"/>
			<point x="77" y="337" type="line"/>
			<point x="77" y="308" type="line"/>
			<point x="278" y="308" type="line"/>
		</contour>
		<contour>
			<point x="296" y="337" type="curve"/>
			<point x="267" y="337" type="line"/>
			<point x="267" y="330" type="line"/>
			<point x="256" y="79"/>
			<point x="245" y="-11"/>
			<point x="227" y="-33" type="curve" smooth="yes"/>
			<point x="220" y="-42"/>
			<point x="213" y="-43"/>
			<point x="198" y="-43" type="curve" smooth="yes"/>
			<point x="184" y="-43"/>
			<point x="145" y="-43"/>
			<point x="103" y="-39" type="curve"/>
			<point x="108" y="-48"/>
			<point x="111" y="-59"/>
			<point x="112" y="-68" type="curve"/>
			<point x="147" y="-71"/>
			<point x="185" y="-71"/>
			<point x="203" y="-71" type="curve" smooth="yes"/>
			<point x="224" y="-71"/>
			<point x="240" y="-65"/>
			<point x="251" y="-52" type="curve" smooth="yes"/>
			<point x="275" y="-24"/>
			<point x="284" y="59"/>
			<point x="296" y="318" type="curve"/>
			<point x="296" y="324"/>
			<point x="296" y="337"/>
		</contour>
		<contour>
			<point x="115" y="538" type="curve"/>
			<point x="85" y="538" type="line"/>
			<point x="79" y="451"/>
			<point x="66" y="328"/>
			<point x="55" y="257" type="curve"/>
			<point x="83" y="252" type="line"/>
			<point x="94" y="325"/>
			<point x="107" y="447"/>
		</contour>
		<contour>
			<point x="254" y="538" type="line"/>
			<point x="102" y="538" type="line"/>
			<point x="102" y="509" type="line"/>
			<point x="283" y="509" type="line"/>
			<point x="283" y="773" type="line"/>
			<point x="54" y="773" type="line"/>
			<point x="54" y="744" type="line"/>
			<point x="254" y="744" type="line"/>
		</contour>
		<contour>
			<point x="920" y="337" type="line"/>
			<point x="703" y="337" type="line"/>
			<point x="703" y="308" type="line"/>
			<point x="920" y="308" type="line"/>
		</contour>
		<contour>
			<point x="937" y="337" type="curve"/>
			<point x="908" y="337" type="line"/>
			<point x="908" y="330" type="line"/>
			<point x="896" y="80"/>
			<point x="884" y="-12"/>
			<point x="863" y="-33" type="curve" smooth="yes"/>
			<point x="855" y="-41"/>
			<point x="848" y="-44"/>
			<point x="832" y="-44" type="curve" smooth="yes"/>
			<point x="818" y="-44"/>
			<point x="775" y="-43"/>
			<point x="728" y="-39" type="curve"/>
			<point x="733" y="-47"/>
			<point x="736" y="-60"/>
			<point x="737" y="-68" type="curve"/>
			<point x="777" y="-71"/>
			<point x="818" y="-71"/>
			<point x="837" y="-71" type="curve" smooth="yes"/>
			<point x="862" y="-70"/>
			<point x="875" y="-65"/>
			<point x="887" y="-52" type="curve" smooth="yes"/>
			<point x="913" y="-24"/>
			<point x="923" y="61"/>
			<point x="936" y="318" type="curve"/>
			<point x="937" y="324"/>
			<point x="937" y="337"/>
		</contour>
		<contour>
			<point x="741" y="538" type="curve"/>
			<point x="712" y="538" type="line"/>
			<point x="705" y="451"/>
			<point x="690" y="328"/>
			<point x="678" y="257" type="curve"/>
			<point x="708" y="252" type="line"/>
			<point x="719" y="325"/>
			<point x="732" y="447"/>
		</contour>
		<contour>
			<point x="896" y="538" type="line"/>
			<point x="728" y="538" type="line"/>
			<point x="728" y="509" type="line"/>
			<point x="925" y="509" type="line"/>
			<point x="925" y="773" type="line"/>
			<point x="685" y="773" type="line"/>
			<point x="685" y="744" type="line"/>
			<point x="896" y="744" type="line"/>
		</contour>
		<contour>
			<point x="512" y="830" type="line"/>
			<point x="483" y="830" type="line"/>
			<point x="483" y="680" type="line"/>
			<point x="512" y="680" type="line"/>
		</contour>
		<contour>
			<point x="676" y="704" type="line"/>
			<point x="318" y="704" type="line"/>
			<point x="318" y="675" type="line"/>
			<point x="676" y="675" type="line"/>
		</contour>
		<contour>
			<point x="477" y="678" type="curve"/>
			<point x="445" y="686" type="line"/>
			<point x="429" y="630"/>
			<point x="399" y="550"/>
			<point x="376" y="505" type="curve"/>
			<point x="402" y="497" type="line"/>
			<point x="427" y="544"/>
			<point x="454" y="619"/>
		</contour>
		<contour>
			<point x="311" y="509" type="curve"/>
			<point x="316" y="478" type="line"/>
			<point x="400" y="483"/>
			<point x="509" y="491"/>
			<point x="620" y="501" type="curve"/>
			<point x="621" y="528" type="line"/>
			<point x="504" y="520"/>
			<point x="391" y="513"/>
		</contour>
		<contour>
			<point x="570" y="625" type="curve"/>
			<point x="544" y="612" type="line"/>
			<point x="585" y="561"/>
			<point x="628" y="493"/>
			<point x="647" y="446" type="curve"/>
			<point x="674" y="462" type="line"/>
			<point x="655" y="506"/>
			<point x="611" y="574"/>
		</contour>
		<contour>
			<point x="606" y="411" type="line"/>
			<point x="364" y="411" type="line"/>
			<point x="364" y="-73" type="line"/>
			<point x="393" y="-73" type="line"/>
			<point x="393" y="382" type="line"/>
			<point x="606" y="382" type="line"/>
		</contour>
		<contour>
			<point x="606" y="278" type="line"/>
			<point x="378" y="278" type="line"/>
			<point x="378" y="248" type="line"/>
			<point x="606" y="248" type="line"/>
		</contour>
		<contour>
			<point x="606" y="141" type="line"/>
			<point x="378" y="141" type="line"/>
			<point x="378" y="111" type="line"/>
			<point x="606" y="111" type="line"/>
		</contour>
		<contour>
			<point x="624" y="-28" type="curve" smooth="yes"/>
			<point x="624" y="411" type="line"/>
			<point x="595" y="411" type="line"/>
			<point x="595" y="-28" type="line" smooth="yes"/>
			<point x="595" y="-38"/>
			<point x="591" y="-42"/>
			<point x="581" y="-42" type="curve" smooth="yes"/>
			<point x="571" y="-42"/>
			<point x="538" y="-42"/>
			<point x="495" y="-41" type="curve"/>
			<point x="500" y="-50"/>
			<point x="505" y="-62"/>
			<point x="507" y="-70" type="curve"/>
			<point x="556" y="-70"/>
			<point x="587" y="-70"/>
			<point x="603" y="-64" type="curve" smooth="yes"/>
			<point x="619" y="-58"/>
			<point x="624" y="-49"/>
		</contour>
	</outline>
</glyph>
<glyph name="uni399B" format="2">
	<advance width="1000" height="1000"/>
	<unicode hex="399B"/>
	<note>
		cid03992
	</note>
	<outline>
		<contour>
			<point x="950" y="415" type="line"/>
			<point x="54" y="415" type="line"/>
			<point x="54" y="385" type="line"/>
			<point x="950" y="385" type="line"/>
		</contour>
		<contour>
			<point x="366" y="795" type="curve"/>
			<point x="339" y="818" type="line"/>
			<point x="297" y="800"/>
			<point x="224" y="777"/>
			<point x="161" y="762" type="curve"/>
			<point x="166" y="754"/>
			<point x="171" y="744"/>
			<point x="173" y="737" type="curve"/>
			<point x="236" y="752"/>
			<point x="311" y="773"/>
		</contour>
		<contour>
			<point x="198" y="761" type="curve"/>
			<point x="153" y="778" type="line"/>
			<point x="168" y="397" type="line"/>
			<point x="197" y="397" type="line"/>
			<point x="183" y="753" type="line"/>
			<point x="191" y="754"/>
			<point x="196" y="757"/>
		</contour>
		<contour>
			<point x="352" y="658" type="line"/>
			<point x="175" y="658" type="line"/>
			<point x="175" y="628" type="line"/>
			<point x="352" y="628" type="line"/>
		</contour>
		<contour>
			<point x="825" y="658" type="line"/>
			<point x="644" y="658" type="line"/>
			<point x="644" y="628" type="line"/>
			<point x="825" y="628" type="line"/>
		</contour>
		<contour>
			<point x="821" y="538" type="line"/>
			<point x="644" y="538" type="line"/>
			<point x="644" y="509" type="line"/>
			<point x="821" y="509" type="line"/>
		</contour>
		<contour>
			<point x="831" y="778" type="line"/>
			<point x="641" y="778" type="line"/>
			<point x="641" y="749" type="line"/>
			<point x="831" y="749" type="line"/>
		</contour>
		<contour>
			<point x="352" y="538" type="line"/>
			<point x="180" y="538" type="line"/>
			<point x="180" y="509" type="line"/>
			<point x="352" y="509" type="line"/>
		</contour>
		<contour>
			<point x="606" y="736" type="line"/>
			<point x="433" y="736" type="line"/>
			<point x="430" y="707" type="line"/>
			<point x="606" y="707" type="line"/>
		</contour>
		<contour>
			<point x="563" y="626" type="line"/>
			<point x="417" y="626" type="line"/>
			<point x="414" y="597" type="line"/>
			<point x="563" y="597" type="line"/>
		</contour>
		<contour>
			<point x="452" y="813" type="curve"/>
			<point x="423" y="816" type="line"/>
			<point x="419" y="739"/>
			<point x="409" y="635"/>
			<point x="400" y="572" type="curve"/>
			<point x="428" y="569" type="line"/>
			<point x="437" y="631"/>
			<point x="447" y="733"/>
		</contour>
		<contour>
			<point x="576" y="626" type="line"/>
			<point x="547" y="626" type="line"/>
			<point x="547" y="401" type="line"/>
			<point x="576" y="401" type="line"/>
		</contour>
		<contour>
			<point x="440" y="541" type="line"/>
			<point x="411" y="541" type="line"/>
			<point x="411" y="400" type="line"/>
			<point x="440" y="400" type="line"/>
		</contour>
		<contour>
			<point x="846" y="778" type="curve"/>
			<point x="817" y="778" type="line"/>
			<point x="815" y="664"/>
			<point x="806" y="498"/>
			<point x="797" y="406" type="curve"/>
			<point x="827" y="406" type="line"/>
			<point x="835" y="496"/>
			<point x="843" y="661"/>
		</contour>
		<contour>
			<point x="345" y="394" type="curve"/>
			<point x="320" y="406" type="line"/>
			<point x="261" y="311"/>
			<point x="143" y="220"/>
			<point x="37" y="179" type="curve"/>
			<point x="44" y="173"/>
			<point x="53" y="162"/>
			<point x="59" y="154" type="curve"/>
			<point x="164" y="200"/>
			<point x="284" y="294"/>
		</contour>
		<contour>
			<point x="679" y="406" type="curve"/>
			<point x="654" y="394" type="line"/>
			<point x="716" y="300"/>
			<point x="837" y="207"/>
			<point x="940" y="163" type="curve"/>
			<point x="945" y="171"/>
			<point x="955" y="180"/>
			<point x="962" y="186" type="curve"/>
			<point x="858" y="227"/>
			<point x="739" y="315"/>
		</contour>
		<contour>
			<point x="359" y="2" type="curve" smooth="yes"/>
			<point x="359" y="222" type="line"/>
			<point x="329" y="222" type="line"/>
			<point x="329" y="2" type="line" smooth="yes"/>
			<point x="329" y="-48"/>
			<point x="350" y="-57"/>
			<point x="426" y="-57" type="curve" smooth="yes"/>
			<point x="442" y="-57"/>
			<point x="610" y="-57"/>
			<point x="627" y="-57" type="curve" smooth="yes"/>
			<point x="695" y="-57"/>
			<point x="707" y="-30"/>
			<point x="712" y="83" type="curve"/>
			<point x="703" y="86"/>
			<point x="691" y="90"/>
			<point x="682" y="97" type="curve"/>
			<point x="678" y="-13"/>
			<point x="671" y="-27"/>
			<point x="625" y="-27" type="curve" smooth="yes"/>
			<point x="590" y="-27"/>
			<point x="449" y="-27"/>
			<point x="424" y="-27" type="curve" smooth="yes"/>
			<point x="369" y="-27"/>
			<point x="359" y="-21"/>
		</contour>
		<contour>
			<point x="413" y="327" type="curve"/>
			<point x="392" y="309" type="line"/>
			<point x="460" y="272"/>
			<point x="536" y="213"/>
			<point x="574" y="166" type="curve"/>
			<point x="595" y="187" type="line"/>
			<point x="557" y="233"/>
			<point x="481" y="291"/>
		</contour>
		<contour>
			<point x="721" y="216" type="curve"/>
			<point x="697" y="202" type="line"/>
			<point x="773" y="136"/>
			<point x="849" y="42"/>
			<point x="881" y="-26" type="curve"/>
			<point x="907" y="-10" type="line"/>
			<point x="873" y="60"/>
			<point x="796" y="154"/>
		</contour>
		<contour>
			<point x="255" y="197" type="curve"/>
			<point x="230" y="205" type="line"/>
			<point x="206" y="103"/>
			<point x="155" y="24"/>
			<point x="87" y="-15" type="curve"/>
			<point x="110" y="-32" type="line"/>
			<point x="178" y="8"/>
			<point x="230" y="90"/>
		</contour>
	</outline>
</glyph>
<glyph name="uni3A17" format="2">
	<advance width="1000" height="1000"/>
	<unicode hex="3A17"/>
	<note>
		cid04122
	</note>
	<outline>
		<contour>
			<point x="873" y="174" type="line"/>
			<point x="613" y="174" type="line"/>
			<point x="613" y="144" type="line"/>
			<point x="873" y="144" type="line"/>
		</contour>
		<contour>
			<point x="428" y="168" type="curve"/>
			<point x="407" y="156" type="line"/>
			<point x="468" y="-28"/>
			<point x="592" y="-59"/>
			<point x="767" y="-59" type="curve" smooth="yes"/>
			<point x="905" y="-59" type="line"/>
			<point x="951" y="-59" type="line"/>
			<point x="952" y="-51"/>
			<point x="958" y="-37"/>
			<point x="964" y="-29" type="curve"/>
			<point x="936" y="-29"/>
			<point x="786" y="-29"/>
			<point x="768" y="-29" type="curve" smooth="yes"/>
			<point x="609" y="-29"/>
			<point x="484" y="-4"/>
		</contour>
		<contour>
			<point x="631" y="314" type="line"/>
			<point x="601" y="314" type="line"/>
			<point x="601" y="-25" type="line"/>
			<point x="631" y="-35" type="line"/>
		</contour>
		<contour>
			<point x="452" y="259" type="curve"/>
			<point x="422" y="262" type="line"/>
			<point x="403" y="129"/>
			<point x="360" y="20"/>
			<point x="282" y="-49" type="curve"/>
			<point x="290" y="-54"/>
			<point x="302" y="-65"/>
			<point x="307" y="-70" type="curve"/>
			<point x="381" y="1"/>
			<point x="433" y="119"/>
		</contour>
		<contour>
			<point x="950" y="472" type="line"/>
			<point x="332" y="472" type="line"/>
			<point x="332" y="442" type="line"/>
			<point x="950" y="442" type="line"/>
		</contour>
		<contour>
			<point x="863" y="612" type="line"/>
			<point x="401" y="612" type="line"/>
			<point x="401" y="582" type="line"/>
			<point x="834" y="582" type="line"/>
			<point x="834" y="320" type="line"/>
			<point x="401" y="320" type="line"/>
			<point x="401" y="290" type="line"/>
			<point x="863" y="290" type="line"/>
		</contour>
		<contour>
			<point x="899" y="732" type="line"/>
			<point x="617" y="732" type="line"/>
			<point x="617" y="703" type="line"/>
			<point x="899" y="703" type="line"/>
		</contour>
		<contour>
			<point x="630" y="827" type="line"/>
			<point x="601" y="827" type="line"/>
			<point x="601" y="595" type="line"/>
			<point x="630" y="595" type="line"/>
		</contour>
		<contour>
			<point x="35" y="296" type="curve"/>
			<point x="47" y="266" type="line"/>
			<point x="129" y="295"/>
			<point x="239" y="335"/>
			<point x="345" y="374" type="curve"/>
			<point x="340" y="404" type="line"/>
			<point x="226" y="363"/>
			<point x="110" y="322"/>
		</contour>
		<contour>
			<point x="348" y="617" type="line"/>
			<point x="47" y="617" type="line"/>
			<point x="47" y="587" type="line"/>
			<point x="348" y="587" type="line"/>
		</contour>
		<contour>
			<point x="222" y="-23" type="curve" smooth="yes"/>
			<point x="222" y="830" type="line"/>
			<point x="192" y="830" type="line"/>
			<point x="192" y="-23" type="line" smooth="yes"/>
			<point x="192" y="-38"/>
			<point x="186" y="-42"/>
			<point x="174" y="-42" type="curve" smooth="yes"/>
			<point x="162" y="-43"/>
			<point x="120" y="-43"/>
			<point x="69" y="-42" type="curve"/>
			<point x="74" y="-51"/>
			<point x="79" y="-64"/>
			<point x="81" y="-70" type="curve"/>
			<point x="143" y="-71"/>
			<point x="177" y="-70"/>
			<point x="194" y="-65" type="curve" smooth="yes"/>
			<point x="213" y="-60"/>
			<point x="222" y="-50"/>
		</contour>
	</outline>
</glyph>
<glyph name="uni3ABD" format="2">
	<advance width="1000" height="1000"/>
	<unicode hex="3ABD"/>
	<note>
		cid04296
	</note>
	<outline>
		<contour>
			<point x="936" y="782" type="line"/>
			<point x="67" y="782" type="line"/>
			<point x="67" y="753" type="line"/>
			<point x="936" y="753" type="line"/>
		</contour>
		<contour>
			<point x="375" y="404" type="line"/>
			<point x="116" y="404" type="line"/>
			<point x="116" y="375" type="line"/>
			<point x="375" y="375" type="line"/>
		</contour>
		<contour>
			<point x="765" y="392" type="line"/>
			<point x="736" y="392" type="line"/>
			<point x="736" y="-70" type="line"/>
			<point x="765" y="-70" type="line"/>
		</contour>
		<contour>
			<point x="389" y="614" type="line"/>
			<point x="102" y="614" type="line"/>
			<point x="102" y="72" type="line"/>
			<point x="131" y="72" type="line"/>
			<point x="131" y="585" type="line"/>
			<point x="360" y="585" type="line"/>
			<point x="360" y="186" type="line"/>
			<point x="116" y="186" type="line"/>
			<point x="116" y="157" type="line"/>
			<point x="389" y="157" type="line"/>
		</contour>
		<contour>
			<point x="946" y="406" type="line"/>
			<point x="505" y="406" type="line"/>
			<point x="505" y="377" type="line"/>
			<point x="946" y="377" type="line"/>
		</contour>
		<contour>
			<point x="893" y="663" type="curve"/>
			<point x="862" y="685" type="line"/>
			<point x="777" y="651"/>
			<point x="639" y="618"/>
			<point x="504" y="600" type="curve"/>
			<point x="508" y="593"/>
			<point x="513" y="583"/>
			<point x="515" y="576" type="curve"/>
			<point x="652" y="594"/>
			<point x="797" y="627"/>
		</contour>
		<contour>
			<point x="535" y="590" type="curve"/>
			<point x="491" y="609" type="line"/>
			<point x="491" y="360" type="line" smooth="yes"/>
			<point x="491" y="229"/>
			<point x="462" y="69"/>
			<point x="325" y="-52" type="curve"/>
			<point x="333" y="-57"/>
			<point x="343" y="-66"/>
			<point x="347" y="-73" type="curve"/>
			<point x="489" y="54"/>
			<point x="520" y="224"/>
			<point x="520" y="360" type="curve" smooth="yes"/>
			<point x="520" y="582" type="line"/>
			<point x="530" y="583"/>
			<point x="534" y="585"/>
		</contour>
	</outline>
</glyph>
<glyph name="uni3B0A" format="2">
	<advance width="1000" height="1000"/>
	<unicode hex="3B0A"/>
	<note>
		cid04379
	</note>
	<outline>
		<contour>
			<point x="830" y="387" type="line"/>
			<point x="186" y="387" type="line"/>
			<point x="186" y="358" type="line"/>
			<point x="830" y="358" type="line"/>
		</contour>
		<contour>
			<point x="929" y="281" type="line"/>
			<point x="64" y="281" type="line"/>
			<point x="64" y="252" type="line"/>
			<point x="929" y="252" type="line"/>
		</contour>
		<contour>
			<point x="775" y="182" type="line"/>
			<point x="769" y="182" type="line"/>
			<point x="769" y="176" type="line"/>
			<point x="672" y="47"/>
			<point x="427" y="-25"/>
			<point x="222" y="-50" type="curve"/>
			<point x="228" y="-57"/>
			<point x="234" y="-68"/>
			<point x="236" y="-77" type="curve"/>
			<point x="446" y="-47"/>
			<point x="695" y="27"/>
			<point x="801" y="171" type="curve"/>
			<point x="782" y="184" type="line"/>
		</contour>
		<contour>
			<point x="374" y="360" type="curve"/>
			<point x="342" y="364" type="line"/>
			<point x="316" y="156"/>
			<point x="221" y="27"/>
			<point x="51" y="-55" type="curve"/>
			<point x="59" y="-60"/>
			<point x="69" y="-68"/>
			<point x="74" y="-74" type="curve"/>
			<point x="246" y="7"/>
			<point x="342" y="148"/>
		</contour>
		<contour>
			<point x="328" y="179" type="curve"/>
			<point x="301" y="164" type="line"/>
			<point x="421" y="39"/>
			<point x="672" y="-40"/>
			<point x="906" y="-69" type="curve"/>
			<point x="910" y="-61"/>
			<point x="917" y="-48"/>
			<point x="924" y="-41" type="curve"/>
			<point x="689" y="-15"/>
			<point x="442" y="61"/>
		</contour>
		<contour>
			<point x="780" y="182" type="line"/>
			<point x="303" y="182" type="line"/>
			<point x="294" y="153" type="line"/>
			<point x="780" y="153" type="line"/>
		</contour>
		<contour>
			<point x="203" y="600" type="line"/>
			<point x="203" y="674" type="line"/>
			<point x="808" y="674" type="line"/>
			<point x="808" y="600" type="line"/>
		</contour>
		<contour>
			<point x="203" y="703" type="line"/>
			<point x="203" y="775" type="line"/>
			<point x="808" y="775" type="line"/>
			<point x="808" y="703" type="line"/>
		</contour>
		<contour>
			<point x="837" y="804" type="line"/>
			<point x="174" y="804" type="line"/>
			<point x="174" y="571" type="line"/>
			<point x="837" y="571" type="line"/>
		</contour>
		<contour>
			<point x="827" y="528" type="curve"/>
			<point x="803" y="552" type="line"/>
			<point x="689" y="533"/>
			<point x="474" y="520"/>
			<point x="243" y="514" type="curve"/>
			<point x="247" y="507"/>
			<point x="250" y="496"/>
			<point x="251" y="488" type="curve"/>
			<point x="477" y="491"/>
			<point x="695" y="506"/>
		</contour>
		<contour>
			<point x="274" y="514" type="curve"/>
			<point x="245" y="523" type="line"/>
			<point x="216" y="476"/>
			<point x="156" y="422"/>
			<point x="90" y="384" type="curve"/>
			<point x="97" y="379"/>
			<point x="105" y="370"/>
			<point x="110" y="363" type="curve"/>
			<point x="177" y="401"/>
			<point x="240" y="459"/>
		</contour>
		<contour>
			<point x="740" y="501" type="curve"/>
			<point x="714" y="487" type="line"/>
			<point x="770" y="452"/>
			<point x="830" y="403"/>
			<point x="870" y="361" type="curve"/>
			<point x="898" y="378" type="line"/>
			<point x="854" y="422"/>
			<point x="793" y="470"/>
		</contour>
		<contour>
			<point x="479" y="489" type="curve"/>
			<point x="455" y="475" type="line"/>
			<point x="483" y="452"/>
			<point x="512" y="420"/>
			<point x="530" y="392" type="curve"/>
			<point x="555" y="407" type="line"/>
			<point x="534" y="438"/>
			<point x="505" y="470"/>
		</contour>
	</outline>
</glyph>
<glyph name="uni3B55" format="2">
	<advance width="1000" height="1000"/>
	<unicode hex="3B55"/>
	<note>
		cid04457
	</note>
	<outline>
		<contour>
			<point x="953" y="394" type="line"/>
			<point x="396" y="394" type="line"/>
			<point x="396" y="365" type="line"/>
			<point x="953" y="365" type="line"/>
		</contour>
		<contour>
			<point x="912" y="634" type="line"/>
			<point x="448" y="634" type="line"/>
			<point x="448" y="605" type="line"/>
			<point x="912" y="605" type="line"/>
		</contour>
		<contour>
			<point x="692" y="831" type="line"/>
			<point x="663" y="831" type="line"/>
			<point x="663" y="373" type="line"/>
			<point x="692" y="373" type="line"/>
		</contour>
		<contour>
			<point x="794" y="219" type="curve"/>
			<point x="768" y="207" type="line"/>
			<point x="837" y="113"/>
			<point x="897" y="5"/>
			<point x="924" y="-74" type="curve"/>
			<point x="951" y="-59" type="line"/>
			<point x="924" y="19"/>
			<point x="863" y="126"/>
		</contour>
		<contour>
			<point x="411" y="607" type="line"/>
			<point x="58" y="607" type="line"/>
			<point x="58" y="578" type="line"/>
			<point x="411" y="578" type="line"/>
		</contour>
		<contour>
			<point x="262" y="830" type="line"/>
			<point x="233" y="830" type="line"/>
			<point x="233" y="-68" type="line"/>
			<point x="262" y="-68" type="line"/>
		</contour>
		<contour>
			<point x="256" y="590" type="curve"/>
			<point x="230" y="597" type="line"/>
			<point x="198" y="443"/>
			<point x="124" y="272"/>
			<point x="38" y="154" type="curve"/>
			<point x="45" y="149"/>
			<point x="55" y="139"/>
			<point x="60" y="131" type="curve"/>
			<point x="140" y="237"/>
			<point x="215" y="414"/>
		</contour>
		<contour>
			<point x="258" y="464" type="curve"/>
			<point x="238" y="446" type="line"/>
			<point x="285" y="393"/>
			<point x="341" y="322"/>
			<point x="383" y="262" type="curve"/>
			<point x="408" y="289" type="line"/>
			<point x="365" y="342"/>
			<point x="307" y="409"/>
		</contour>
		<contour>
			<point x="651" y="372" type="curve"/>
			<point x="624" y="383" type="line"/>
			<point x="592" y="266"/>
			<point x="538" y="118"/>
			<point x="484" y="1" type="curve"/>
			<point x="510" y="-9" type="line"/>
			<point x="561" y="103"/>
			<point x="615" y="250"/>
		</contour>
		<contour>
			<point x="393" y="0" type="curve"/>
			<point x="399" y="-30" type="line"/>
			<point x="550" y="-18"/>
			<point x="742" y="-1"/>
			<point x="896" y="13" type="curve"/>
			<point x="895" y="40" type="line"/>
			<point x="737" y="26"/>
			<point x="544" y="11"/>
		</contour>
	</outline>
</glyph>
<glyph name="uni3B7B" format="2">
	<advance width="1000" height="1000"/>
	<unicode hex="3B7B"/>
	<note>
		cid04496
	</note>
	<outline>
		<contour>
			<point x="808" y="776" type="curve"/>
			<point x="785" y="761" type="line"/>
			<point x="840" y="704"/>
			<point x="904" y="626"/>
			<point x="933" y="576" type="curve"/>
			<point x="958" y="594" type="line"/>
			<point x="928" y="643"/>
			<point x="865" y="720"/>
		</contour>
		<contour>
			<point x="681" y="831" type="line"/>
			<point x="652" y="831" type="line"/>
			<point x="652" y="518" type="line"/>
			<point x="681" y="518" type="line"/>
		</contour>
		<contour>
			<point x="573" y="386" type="line"/>
			<point x="544" y="386" type="line"/>
			<point x="544" y="64" type="line"/>
			<point x="573" y="64" type="line"/>
		</contour>
		<contour>
			<point x="936" y="-22" type="curve" smooth="yes"/>
			<point x="936" y="533" type="line"/>
			<point x="906" y="533" type="line"/>
			<point x="906" y="-23" type="line" smooth="yes"/>
			<point x="906" y="-37"/>
			<point x="901" y="-41"/>
			<point x="887" y="-42" type="curve" smooth="yes"/>
			<point x="871" y="-43"/>
			<point x="821" y="-43"/>
			<point x="757" y="-42" type="curve"/>
			<point x="762" y="-51"/>
			<point x="767" y="-64"/>
			<point x="769" y="-71" type="curve"/>
			<point x="844" y="-71"/>
			<point x="887" y="-71"/>
			<point x="907" y="-65" type="curve" smooth="yes"/>
			<point x="929" y="-60"/>
			<point x="936" y="-48"/>
		</contour>
		<contour>
			<point x="557" y="766" type="curve"/>
			<point x="527" y="775" type="line"/>
			<point x="490" y="706"/>
			<point x="434" y="634"/>
			<point x="380" y="585" type="curve"/>
			<point x="387" y="581"/>
			<point x="400" y="571"/>
			<point x="405" y="566" type="curve"/>
			<point x="458" y="618"/>
			<point x="516" y="694"/>
		</contour>
		<contour>
			<point x="918" y="533" type="line"/>
			<point x="413" y="533" type="line"/>
			<point x="413" y="-70" type="line"/>
			<point x="443" y="-70" type="line"/>
			<point x="443" y="504" type="line"/>
			<point x="918" y="504" type="line"/>
		</contour>
		<contour>
			<point x="805" y="386" type="line"/>
			<point x="559" y="386" type="line"/>
			<point x="559" y="357" type="line"/>
			<point x="776" y="357" type="line"/>
			<point x="776" y="149" type="line"/>
			<point x="559" y="149" type="line"/>
			<point x="559" y="120" type="line"/>
			<point x="805" y="120" type="line"/>
		</contour>
		<contour>
			<point x="361" y="608" type="line"/>
			<point x="56" y="608" type="line"/>
			<point x="56" y="578" type="line"/>
			<point x="361" y="578" type="line"/>
		</contour>
		<contour>
			<point x="244" y="831" type="line"/>
			<point x="215" y="831" type="line"/>
			<point x="215" y="-70" type="line"/>
			<point x="244" y="-70" type="line"/>
		</contour>
		<contour>
			<point x="235" y="590" type="curve"/>
			<point x="209" y="598" type="line"/>
			<point x="179" y="441"/>
			<point x="106" y="252"/>
			<point x="39" y="159" type="curve"/>
			<point x="46" y="154"/>
			<point x="56" y="143"/>
			<point x="62" y="135" type="curve"/>
			<point x="131" y="234"/>
			<point x="203" y="433"/>
		</contour>
		<contour>
			<point x="239" y="450" type="curve"/>
			<point x="220" y="434" type="line"/>
			<point x="247" y="408"/>
			<point x="327" y="314"/>
			<point x="349" y="280" type="curve"/>
			<point x="373" y="305" type="line"/>
			<point x="352" y="330"/>
			<point x="263" y="427"/>
		</contour>
	</outline>
</glyph>
<glyph name="uni3BEC" format="2">
	<advance width="1000" height="1000"/>
	<unicode hex="3BEC"/>
	<note>
		cid04619
	</note>
	<outline>
		<contour>
			<point x="480" y="766" type="line"/>
			<point x="87" y="766" type="line"/>
			<point x="87" y="736" type="line"/>
			<point x="480" y="736" type="line"/>
		</contour>
		<contour>
			<point x="326" y="830" type="line"/>
			<point x="297" y="830" type="line"/>
			<point x="297" y="548" type="line"/>
			<point x="326" y="548" type="line"/>
		</contour>
		<contour>
			<point x="316" y="740" type="curve"/>
			<point x="294" y="754" type="line"/>
			<point x="245" y="688"/>
			<point x="153" y="615"/>
			<point x="73" y="578" type="curve"/>
			<point x="79" y="572"/>
			<point x="88" y="561"/>
			<point x="92" y="553" type="curve"/>
			<point x="170" y="595"/>
			<point x="263" y="672"/>
		</contour>
		<contour>
			<point x="322" y="728" type="curve"/>
			<point x="304" y="711" type="line"/>
			<point x="351" y="688"/>
			<point x="422" y="647"/>
			<point x="467" y="617" type="curve"/>
			<point x="486" y="641" type="line"/>
			<point x="436" y="669"/>
			<point x="364" y="707"/>
		</contour>
		<contour>
			<point x="942" y="766" type="line"/>
			<point x="508" y="766" type="line"/>
			<point x="508" y="736" type="line"/>
			<point x="942" y="736" type="line"/>
		</contour>
		<contour>
			<point x="713" y="830" type="line"/>
			<point x="683" y="830" type="line"/>
			<point x="683" y="548" type="line"/>
			<point x="713" y="548" type="line"/>
		</contour>
		<contour>
			<point x="694" y="743" type="curve"/>
			<point x="670" y="755" type="line"/>
			<point x="629" y="694"/>
			<point x="544" y="629"/>
			<point x="464" y="598" type="curve"/>
			<point x="471" y="591"/>
			<point x="479" y="581"/>
			<point x="483" y="573" type="curve"/>
			<point x="566" y="610"/>
			<point x="653" y="680"/>
		</contour>
		<contour>
			<point x="723" y="755" type="curve"/>
			<point x="700" y="743" type="line"/>
			<point x="748" y="678"/>
			<point x="840" y="606"/>
			<point x="923" y="567" type="curve"/>
			<point x="929" y="574"/>
			<point x="938" y="584"/>
			<point x="945" y="590" type="curve"/>
			<point x="864" y="622"/>
			<point x="773" y="690"/>
		</contour>
		<contour>
			<point x="951" y="400" type="line"/>
			<point x="314" y="400" type="line"/>
			<point x="314" y="371" type="line"/>
			<point x="951" y="371" type="line"/>
		</contour>
		<contour>
			<point x="880" y="498" type="line"/>
			<point x="397" y="498" type="line"/>
			<point x="397" y="469" type="line"/>
			<point x="851" y="469" type="line"/>
			<point x="851" y="297" type="line"/>
			<point x="388" y="297" type="line"/>
			<point x="388" y="268" type="line"/>
			<point x="880" y="268" type="line"/>
		</contour>
		<contour>
			<point x="899" y="202" type="line"/>
			<point x="373" y="202" type="line"/>
			<point x="373" y="173" type="line"/>
			<point x="899" y="173" type="line"/>
		</contour>
		<contour>
			<point x="940" y="106" type="line"/>
			<point x="335" y="106" type="line"/>
			<point x="335" y="77" type="line"/>
			<point x="940" y="77" type="line"/>
		</contour>
		<contour>
			<point x="644" y="560" type="line"/>
			<point x="615" y="560" type="line"/>
			<point x="615" y="-4" type="line"/>
			<point x="644" y="-4" type="line"/>
		</contour>
		<contour>
			<point x="270" y="522" type="line"/>
			<point x="76" y="522" type="line"/>
			<point x="76" y="493" type="line"/>
			<point x="270" y="493" type="line"/>
		</contour>
		<contour>
			<point x="264" y="522" type="line"/>
			<point x="259" y="522" type="line"/>
			<point x="259" y="517" type="line"/>
			<point x="212" y="437"/>
			<point x="151" y="342"/>
			<point x="101" y="270" type="curve"/>
			<point x="128" y="260" type="line"/>
			<point x="174" y="325"/>
			<point x="238" y="423"/>
			<point x="293" y="514" type="curve"/>
			<point x="271" y="525" type="line"/>
		</contour>
		<contour>
			<point x="314" y="317" type="line"/>
			<point x="159" y="317" type="line"/>
			<point x="138" y="288" type="line"/>
			<point x="314" y="288" type="line"/>
		</contour>
		<contour>
			<point x="306" y="317" type="line"/>
			<point x="300" y="317" type="line"/>
			<point x="300" y="309" type="line"/>
			<point x="266" y="132"/>
			<point x="183" y="13"/>
			<point x="49" y="-51" type="curve"/>
			<point x="56" y="-57"/>
			<point x="66" y="-68"/>
			<point x="70" y="-76" type="curve"/>
			<point x="207" y="-7"/>
			<point x="294" y="121"/>
			<point x="331" y="311" type="curve"/>
			<point x="313" y="318" type="line"/>
		</contour>
		<contour>
			<point x="137" y="216" type="curve"/>
			<point x="111" y="204" type="line"/>
			<point x="183" y="-6"/>
			<point x="317" y="-56"/>
			<point x="592" y="-56" type="curve" smooth="yes"/>
			<point x="889" y="-56" type="line"/>
			<point x="947" y="-56" type="line"/>
			<point x="949" y="-47"/>
			<point x="956" y="-35"/>
			<point x="962" y="-26" type="curve"/>
			<point x="928" y="-26"/>
			<point x="612" y="-26"/>
			<point x="590" y="-26" type="curve" smooth="yes"/>
			<point x="336" y="-26"/>
			<point x="202" y="17"/>
		</contour>
	</outline>
</glyph>
<glyph name="uni3CD6" format="2">
	<advance width="1000" height="1000"/>
	<unicode hex="3CD6"/>
	<note>
		cid04862
	</note>
	<outline>
		<contour>
			<point x="105" y="818" type="curve"/>
			<point x="87" y="798" type="line"/>
			<point x="149" y="767"/>
			<point x="221" y="719"/>
			<point x="258" y="684" type="curve"/>
			<point x="276" y="708" type="line"/>
			<point x="240" y="743"/>
			<point x="168" y="789"/>
		</contour>
		<contour>
			<point x="60" y="549" type="curve"/>
			<point x="43" y="527" type="line"/>
			<point x="106" y="500"/>
			<point x="180" y="456"/>
			<point x="218" y="423" type="curve"/>
			<point x="235" y="448" type="line"/>
			<point x="198" y="481"/>
			<point x="123" y="524"/>
		</contour>
		<contour>
			<point x="58" y="-35" type="curve"/>
			<point x="84" y="-55" type="line"/>
			<point x="134" y="35"/>
			<point x="200" y="170"/>
			<point x="245" y="276" type="curve"/>
			<point x="222" y="294" type="line"/>
			<point x="174" y="183"/>
			<point x="106" y="44"/>
		</contour>
		<contour>
			<point x="627" y="820" type="line"/>
			<point x="598" y="820" type="line"/>
			<point x="598" y="613" type="line"/>
			<point x="627" y="613" type="line"/>
		</contour>
		<contour>
			<point x="947" y="628" type="line"/>
			<point x="285" y="628" type="line"/>
			<point x="285" y="599" type="line"/>
			<point x="947" y="599" type="line"/>
		</contour>
		<contour>
			<point x="628" y="612" type="curve"/>
			<point x="601" y="621" type="line"/>
			<point x="529" y="467"/>
			<point x="407" y="334"/>
			<point x="262" y="248" type="curve"/>
			<point x="269" y="242"/>
			<point x="281" y="231"/>
			<point x="285" y="226" type="curve"/>
			<point x="433" y="318"/>
			<point x="556" y="456"/>
		</contour>
		<contour>
			<point x="301" y="-23" type="curve"/>
			<point x="312" y="-54" type="line"/>
			<point x="425" y="-26"/>
			<point x="586" y="14"/>
			<point x="737" y="52" type="curve"/>
			<point x="735" y="81" type="line"/>
			<point x="574" y="40"/>
			<point x="407" y="0"/>
		</contour>
		<contour>
			<point x="945" y="463" type="curve"/>
			<point x="922" y="482" type="line"/>
			<point x="859" y="420"/>
			<point x="774" y="350"/>
			<point x="700" y="300" type="curve"/>
			<point x="717" y="283" type="line"/>
			<point x="793" y="332"/>
			<point x="881" y="402"/>
		</contour>
		<contour>
			<point x="637" y="615" type="curve"/>
			<point x="611" y="610" type="line"/>
			<point x="667" y="279"/>
			<point x="784" y="40"/>
			<point x="937" y="-56" type="curve"/>
			<point x="943" y="-48"/>
			<point x="952" y="-38"/>
			<point x="960" y="-32" type="curve"/>
			<point x="808" y="58"/>
			<point x="692" y="290"/>
		</contour>
		<contour>
			<point x="464" y="415" type="line"/>
			<point x="437" y="387" type="line"/>
			<point x="437" y="-4" type="line"/>
			<point x="466" y="-4" type="line"/>
			<point x="466" y="414" type="line"/>
		</contour>
	</outline>
</glyph>
<glyph name="uni3E74" format="2">
	<advance width="1000" height="1000"/>
	<unicode hex="3E74"/>
	<note>
		cid05319
	</note>
	<outline>
		<contour>
			<point x="92" y="817" type="curve"/>
			<point x="72" y="800" type="line"/>
			<point x="256" y="643"/>
			<point x="278" y="473"/>
			<point x="278" y="294" type="curve" smooth="yes"/>
			<point x="278" y="151"/>
			<point x="267" y="20"/>
			<point x="235" y="-20" type="curve"/>
			<point x="227" y="-32"/>
			<point x="216" y="-37"/>
			<point x="200" y="-39" type="curve" smooth="yes"/>
			<point x="174" y="-42"/>
			<point x="128" y="-42"/>
			<point x="78" y="-38" type="curve"/>
			<point x="84" y="-47"/>
			<point x="89" y="-60"/>
			<point x="90" y="-69" type="curve"/>
			<point x="130" y="-71"/>
			<point x="172" y="-71"/>
			<point x="204" y="-67" type="curve" smooth="yes"/>
			<point x="230" y="-65"/>
			<point x="246" y="-57"/>
			<point x="258" y="-40" type="curve" smooth="yes"/>
			<point x="296" y="11"/>
			<point x="307" y="139"/>
			<point x="307" y="294" type="curve" smooth="yes"/>
			<point x="307" y="479"/>
			<point x="284" y="657"/>
		</contour>
		<contour>
			<point x="294" y="462" type="curve"/>
			<point x="271" y="475" type="line"/>
			<point x="223" y="373"/>
			<point x="126" y="259"/>
			<point x="40" y="204" type="curve"/>
			<point x="48" y="197"/>
			<point x="57" y="186"/>
			<point x="61" y="179" type="curve"/>
			<point x="148" y="241"/>
			<point x="244" y="357"/>
		</contour>
		<contour>
			<point x="350" y="815" type="curve"/>
			<point x="325" y="829" type="line"/>
			<point x="268" y="731"/>
			<point x="158" y="617"/>
			<point x="47" y="536" type="curve"/>
			<point x="54" y="531"/>
			<point x="63" y="523"/>
			<point x="68" y="519" type="curve"/>
			<point x="180" y="603"/>
			<point x="287" y="711"/>
		</contour>
		<contour>
			<point x="428" y="309" type="line"/>
			<point x="428" y="442" type="line"/>
			<point x="882" y="442" type="line"/>
			<point x="882" y="309" type="line"/>
		</contour>
		<contour>
			<point x="428" y="472" type="line"/>
			<point x="428" y="603" type="line"/>
			<point x="882" y="603" type="line"/>
			<point x="882" y="472" type="line"/>
		</contour>
		<contour>
			<point x="912" y="632" type="line"/>
			<point x="399" y="632" type="line"/>
			<point x="399" y="279" type="line"/>
			<point x="912" y="279" type="line"/>
		</contour>
		<contour>
			<point x="944" y="771" type="line"/>
			<point x="367" y="771" type="line"/>
			<point x="367" y="742" type="line"/>
			<point x="944" y="742" type="line"/>
		</contour>
		<contour>
			<point x="462" y="244" type="curve"/>
			<point x="437" y="235" type="line"/>
			<point x="512" y="58"/>
			<point x="694" y="-38"/>
			<point x="942" y="-70" type="curve"/>
			<point x="946" y="-62"/>
			<point x="953" y="-51"/>
			<point x="960" y="-45" type="curve"/>
			<point x="713" y="-17"/>
			<point x="533" y="77"/>
		</contour>
		<contour>
			<point x="664" y="387" type="curve" smooth="yes"/>
			<point x="664" y="765" type="line"/>
			<point x="634" y="765" type="line"/>
			<point x="634" y="387" type="line" smooth="yes"/>
			<point x="634" y="227"/>
			<point x="624" y="48"/>
			<point x="322" y="-46" type="curve"/>
			<point x="327" y="-52"/>
			<point x="334" y="-64"/>
			<point x="338" y="-70" type="curve"/>
			<point x="648" y="31"/>
			<point x="664" y="218"/>
		</contour>
	</outline>
</glyph>
<glyph name="uni4102" format="2">
	<advance width="1000" height="1000"/>
	<unicode hex="4102"/>
	<note>
		cid06015
	</note>
	<outline>
		<contour>
			<point x="910" y="317" type="line"/>
			<point x="477" y="317" type="line"/>
			<point x="477" y="288" type="line"/>
			<point x="910" y="288" type="line"/>
		</contour>
		<contour>
			<point x="924" y="611" type="line"/>
			<point x="463" y="611" type="line"/>
			<point x="463" y="-70" type="line"/>
			<point x="492" y="-70" type="line"/>
			<point x="492" y="582" type="line"/>
			<point x="895" y="582" type="line"/>
			<point x="895" y="-63" type="line"/>
			<point x="924" y="-63" type="line"/>
		</contour>
		<contour>
			<point x="705" y="830" type="line"/>
			<point x="675" y="830" type="line"/>
			<point x="675" y="-3" type="line"/>
			<point x="705" y="-3" type="line"/>
		</contour>
		<contour>
			<point x="910" y="12" type="line"/>
			<point x="477" y="12" type="line"/>
			<point x="477" y="-17" type="line"/>
			<point x="910" y="-17" type="line"/>
		</contour>
		<contour>
			<point x="411" y="559" type="line"/>
			<point x="57" y="559" type="line"/>
			<point x="57" y="529" type="line"/>
			<point x="411" y="529" type="line"/>
		</contour>
		<contour>
			<point x="388" y="762" type="line"/>
			<point x="87" y="762" type="line"/>
			<point x="87" y="732" type="line"/>
			<point x="388" y="732" type="line"/>
		</contour>
		<contour>
			<point x="381" y="437" type="line"/>
			<point x="352" y="437" type="line"/>
			<point x="352" y="71" type="line"/>
			<point x="381" y="71" type="line"/>
		</contour>
		<contour>
			<point x="249" y="551" type="line"/>
			<point x="220" y="551" type="line"/>
			<point x="220" y="-71" type="line"/>
			<point x="249" y="-71" type="line"/>
		</contour>
		<contour>
			<point x="116" y="318" type="curve" smooth="yes"/>
			<point x="116" y="437" type="line"/>
			<point x="86" y="437" type="line"/>
			<point x="86" y="318" type="line" smooth="yes"/>
			<point x="86" y="224"/>
			<point x="82" y="113"/>
			<point x="50" y="28" type="curve"/>
			<point x="58" y="25"/>
			<point x="70" y="17"/>
			<point x="76" y="10" type="curve"/>
			<point x="110" y="102"/>
			<point x="116" y="215"/>
		</contour>
	</outline>
</glyph>
<glyph name="uni41CA" format="2">
	<advance width="1000" height="1000"/>
	<unicode hex="41CA"/>
	<note>
		cid06227
	</note>
	<outline>
		<contour>
			<point x="380" y="619" type="line"/>
			<point x="54" y="619" type="line"/>
			<point x="54" y="589" type="line"/>
			<point x="380" y="589" type="line"/>
		</contour>
		<contour>
			<point x="234" y="820" type="line"/>
			<point x="204" y="820" type="line"/>
			<point x="204" y="604" type="line"/>
			<point x="234" y="604" type="line"/>
		</contour>
		<contour>
			<point x="44" y="96" type="curve"/>
			<point x="55" y="67" type="line"/>
			<point x="138" y="97"/>
			<point x="275" y="147"/>
			<point x="407" y="195" type="curve"/>
			<point x="402" y="223" type="line"/>
			<point x="264" y="173"/>
			<point x="126" y="124"/>
		</contour>
		<contour>
			<point x="126" y="539" type="curve"/>
			<point x="98" y="535" type="line"/>
			<point x="122" y="418"/>
			<point x="139" y="269"/>
			<point x="139" y="171" type="curve"/>
			<point x="168" y="174" type="line"/>
			<point x="168" y="273"/>
			<point x="151" y="422"/>
		</contour>
		<contour>
			<point x="336" y="541" type="curve"/>
			<point x="305" y="549" type="line"/>
			<point x="293" y="433"/>
			<point x="266" y="258"/>
			<point x="243" y="160" type="curve"/>
			<point x="268" y="152" type="line"/>
			<point x="291" y="251"/>
			<point x="318" y="421"/>
		</contour>
		<contour>
			<point x="708" y="830" type="line"/>
			<point x="678" y="830" type="line"/>
			<point x="678" y="658" type="line"/>
			<point x="708" y="658" type="line"/>
		</contour>
		<contour>
			<point x="943" y="674" type="line"/>
			<point x="469" y="674" type="line"/>
			<point x="469" y="645" type="line"/>
			<point x="943" y="645" type="line"/>
		</contour>
		<contour>
			<point x="487" y="480" type="curve" smooth="yes"/>
			<point x="487" y="674" type="line"/>
			<point x="458" y="674" type="line"/>
			<point x="458" y="480" type="line" smooth="yes"/>
			<point x="458" y="327"/>
			<point x="444" y="115"/>
			<point x="334" y="-42" type="curve"/>
			<point x="341" y="-44"/>
			<point x="353" y="-53"/>
			<point x="358" y="-59" type="curve"/>
			<point x="471" y="101"/>
			<point x="487" y="323"/>
		</contour>
		<contour>
			<point x="704" y="552" type="curve"/>
			<point x="672" y="560" type="line"/>
			<point x="647" y="397"/>
			<point x="598" y="153"/>
			<point x="557" y="17" type="curve"/>
			<point x="582" y="8" type="line"/>
			<point x="624" y="147"/>
			<point x="673" y="385"/>
		</contour>
		<contour>
			<point x="489" y="18" type="curve"/>
			<point x="495" y="-12" type="line"/>
			<point x="601" y="-1"/>
			<point x="750" y="16"/>
			<point x="895" y="32" type="curve"/>
			<point x="895" y="59" type="line"/>
			<point x="743" y="42"/>
			<point x="589" y="27"/>
		</contour>
		<contour>
			<point x="798" y="288" type="curve"/>
			<point x="772" y="277" type="line"/>
			<point x="837" y="166"/>
			<point x="902" y="18"/>
			<point x="925" y="-71" type="curve"/>
			<point x="952" y="-56" type="line"/>
			<point x="929" y="31"/>
			<point x="864" y="177"/>
		</contour>
	</outline>
</glyph>
<glyph name="uni42A2" format="2">
	<advance width="1000" height="1000"/>
	<unicode hex="42A2"/>
	<note>
		cid06456
	</note>
	<outline>
		<contour>
			<point x="329" y="831" type="line"/>
			<point x="300" y="831" type="line"/>
			<point x="300" y="271" type="line"/>
			<point x="329" y="271" type="line"/>
		</contour>
		<contour>
			<point x="316" y="524" type="line"/>
			<point x="50" y="524" type="line"/>
			<point x="50" y="495" type="line"/>
			<point x="316" y="495" type="line"/>
		</contour>
		<contour>
			<point x="940" y="514" type="line"/>
			<point x="379" y="514" type="line"/>
			<point x="379" y="484" type="line"/>
			<point x="940" y="484" type="line"/>
		</contour>
		<contour>
			<point x="174" y="518" type="curve"/>
			<point x="143" y="518" type="line"/>
			<point x="136" y="409"/>
			<point x="112" y="326"/>
			<point x="38" y="280" type="curve"/>
			<point x="45" y="277"/>
			<point x="55" y="267"/>
			<point x="60" y="261" type="curve"/>
			<point x="138" y="311"/>
			<point x="166" y="399"/>
		</contour>
		<contour>
			<point x="675" y="826" type="curve"/>
			<point x="640" y="833" type="line"/>
			<point x="589" y="785"/>
			<point x="494" y="736"/>
			<point x="372" y="702" type="curve"/>
			<point x="379" y="697"/>
			<point x="389" y="688"/>
			<point x="394" y="681" type="curve"/>
			<point x="520" y="720"/>
			<point x="615" y="769"/>
		</contour>
		<contour>
			<point x="859" y="787" type="line"/>
			<point x="589" y="787" type="line"/>
			<point x="560" y="758" type="line"/>
			<point x="859" y="758" type="line"/>
		</contour>
		<contour>
			<point x="858" y="787" type="line"/>
			<point x="850" y="787" type="line"/>
			<point x="850" y="780" type="line"/>
			<point x="777" y="649"/>
			<point x="574" y="591"/>
			<point x="383" y="572" type="curve"/>
			<point x="389" y="564"/>
			<point x="396" y="552"/>
			<point x="399" y="544" type="curve"/>
			<point x="598" y="569"/>
			<point x="802" y="630"/>
			<point x="883" y="777" type="curve"/>
			<point x="864" y="789" type="line"/>
		</contour>
		<contour>
			<point x="794" y="316" type="curve" smooth="yes"/>
			<point x="794" y="597" type="line"/>
			<point x="765" y="597" type="line"/>
			<point x="765" y="316" type="line" smooth="yes"/>
			<point x="765" y="305"/>
			<point x="763" y="302"/>
			<point x="750" y="301" type="curve" smooth="yes"/>
			<point x="736" y="300"/>
			<point x="699" y="300"/>
			<point x="644" y="301" type="curve"/>
			<point x="649" y="292"/>
			<point x="655" y="281"/>
			<point x="657" y="272" type="curve"/>
			<point x="716" y="272"/>
			<point x="752" y="272"/>
			<point x="770" y="278" type="curve" smooth="yes"/>
			<point x="789" y="283"/>
			<point x="794" y="293"/>
		</contour>
		<contour>
			<point x="480" y="457" type="curve"/>
			<point x="457" y="441" type="line"/>
			<point x="508" y="412"/>
			<point x="567" y="363"/>
			<point x="595" y="328" type="curve"/>
			<point x="621" y="347" type="line"/>
			<point x="592" y="380"/>
			<point x="532" y="427"/>
		</contour>
		<contour>
			<point x="575" y="769" type="curve"/>
			<point x="554" y="752" type="line"/>
			<point x="609" y="718"/>
			<point x="675" y="668"/>
			<point x="710" y="636" type="curve"/>
			<point x="731" y="657" type="line"/>
			<point x="697" y="689"/>
			<point x="629" y="737"/>
		</contour>
		<contour>
			<point x="480" y="727" type="curve"/>
			<point x="459" y="711" type="line"/>
			<point x="509" y="675"/>
			<point x="570" y="625"/>
			<point x="601" y="593" type="curve"/>
			<point x="623" y="613" type="line"/>
			<point x="591" y="645"/>
			<point x="530" y="693"/>
		</contour>
		<contour>
			<point x="146" y="805" type="line"/>
			<point x="117" y="805" type="line"/>
			<point x="117" y="613" type="line"/>
			<point x="317" y="613" type="line"/>
			<point x="317" y="642" type="line"/>
			<point x="146" y="642" type="line"/>
		</contour>
		<contour>
			<point x="939" y="149" type="line"/>
			<point x="61" y="149" type="line"/>
			<point x="61" y="120" type="line"/>
			<point x="939" y="120" type="line"/>
		</contour>
		<contour>
			<point x="512" y="278" type="line"/>
			<point x="482" y="278" type="line"/>
			<point x="482" y="-70" type="line"/>
			<point x="512" y="-70" type="line"/>
		</contour>
		<contour>
			<point x="482" y="128" type="curve"/>
			<point x="457" y="142" type="line"/>
			<point x="371" y="60"/>
			<point x="194" y="-6"/>
			<point x="44" y="-32" type="curve"/>
			<point x="52" y="-39"/>
			<point x="60" y="-50"/>
			<point x="65" y="-59" type="curve"/>
			<point x="212" y="-27"/>
			<point x="392" y="41"/>
		</contour>
		<contour>
			<point x="542" y="141" type="curve"/>
			<point x="517" y="127" type="line"/>
			<point x="608" y="44"/>
			<point x="788" y="-28"/>
			<point x="933" y="-60" type="curve"/>
			<point x="938" y="-51"/>
			<point x="947" y="-40"/>
			<point x="955" y="-33" type="curve"/>
			<point x="807" y="-6"/>
			<point x="629" y="63"/>
		</contour>
		<contour>
			<point x="767" y="245" type="curve"/>
			<point x="740" y="260" type="line"/>
			<point x="721" y="232"/>
			<point x="684" y="188"/>
			<point x="657" y="162" type="curve"/>
			<point x="679" y="150" type="line"/>
			<point x="706" y="175"/>
			<point x="740" y="211"/>
		</contour>
		<contour>
			<point x="263" y="257" type="curve"/>
			<point x="242" y="244" type="line"/>
			<point x="273" y="215"/>
			<point x="304" y="175"/>
			<point x="318" y="146" type="curve"/>
			<point x="343" y="161" type="line"/>
			<point x="328" y="190"/>
			<point x="295" y="229"/>
		</contour>
	</outline>
</glyph>
<glyph name="uni44A2" format="2">
	<advance width="1000" height="1000"/>
	<unicode hex="44A2"/>
	<note>
		cid07005
	</note>
	<outline>
		<contour>
			<point x="938" y="744" type="line"/>
			<point x="69" y="744" type="line"/>
			<point x="69" y="715" type="line"/>
			<point x="938" y="715" type="line"/>
		</contour>
		<contour>
			<point x="348" y="830" type="line"/>
			<point x="319" y="830" type="line"/>
			<point x="319" y="596" type="line"/>
			<point x="348" y="596" type="line"/>
		</contour>
		<contour>
			<point x="675" y="830" type="line"/>
			<point x="646" y="830" type="line"/>
			<point x="646" y="596" type="line"/>
			<point x="675" y="596" type="line"/>
		</contour>
		<contour>
			<point x="867" y="504" type="line"/>
			<point x="526" y="504" type="line"/>
			<point x="526" y="-69" type="line"/>
			<point x="556" y="-69" type="line"/>
			<point x="556" y="475" type="line"/>
			<point x="867" y="475" type="line"/>
		</contour>
		<contour>
			<point x="881" y="106" type="curve" smooth="yes"/>
			<point x="881" y="504" type="line"/>
			<point x="852" y="504" type="line"/>
			<point x="852" y="105" type="line" smooth="yes"/>
			<point x="852" y="92"/>
			<point x="848" y="88"/>
			<point x="831" y="87" type="curve" smooth="yes"/>
			<point x="815" y="86"/>
			<point x="761" y="86"/>
			<point x="689" y="87" type="curve"/>
			<point x="694" y="78"/>
			<point x="699" y="67"/>
			<point x="701" y="59" type="curve"/>
			<point x="784" y="59"/>
			<point x="830" y="58"/>
			<point x="853" y="64" type="curve" smooth="yes"/>
			<point x="874" y="70"/>
			<point x="881" y="82"/>
		</contour>
		<contour>
			<point x="56" y="75" type="curve"/>
			<point x="64" y="44" type="line"/>
			<point x="166" y="68"/>
			<point x="313" y="101"/>
			<point x="454" y="133" type="curve"/>
			<point x="451" y="161" type="line"/>
			<point x="303" y="128"/>
			<point x="153" y="94"/>
		</contour>
		<contour>
			<point x="165" y="476" type="line"/>
			<point x="135" y="485" type="line"/>
			<point x="135" y="78" type="line"/>
			<point x="165" y="78" type="line"/>
		</contour>
		<contour>
			<point x="448" y="540" type="curve"/>
			<point x="422" y="562" type="line"/>
			<point x="357" y="533"/>
			<point x="239" y="497"/>
			<point x="139" y="472" type="curve"/>
			<point x="144" y="465"/>
			<point x="149" y="455"/>
			<point x="151" y="448" type="curve"/>
			<point x="252" y="473"/>
			<point x="370" y="507"/>
		</contour>
	</outline>
</glyph>
<glyph name="uni453B" format="2">
	<advance width="1000" height="1000"/>
	<unicode hex="453B"/>
	<note>
		cid07192
	</note>
	<outline>
		<contour>
			<point x="939" y="755" type="line"/>
			<point x="61" y="755" type="line"/>
			<point x="61" y="726" type="line"/>
			<point x="939" y="726" type="line"/>
		</contour>
		<contour>
			<point x="343" y="830" type="line"/>
			<point x="314" y="830" type="line"/>
			<point x="314" y="640" type="line"/>
			<point x="343" y="640" type="line"/>
		</contour>
		<contour>
			<point x="681" y="830" type="line"/>
			<point x="652" y="830" type="line"/>
			<point x="652" y="640" type="line"/>
			<point x="681" y="640" type="line"/>
		</contour>
		<contour>
			<point x="313" y="625" type="line"/>
			<point x="284" y="625" type="line"/>
			<point x="284" y="538" type="line"/>
			<point x="313" y="538" type="line"/>
		</contour>
		<contour>
			<point x="535" y="553" type="line"/>
			<point x="54" y="553" type="line"/>
			<point x="54" y="524" type="line"/>
			<point x="535" y="524" type="line"/>
		</contour>
		<contour>
			<point x="455" y="472" type="line"/>
			<point x="128" y="472" type="line"/>
			<point x="128" y="318" type="line"/>
			<point x="455" y="318" type="line"/>
		</contour>
		<contour>
			<point x="157" y="347" type="line"/>
			<point x="157" y="443" type="line"/>
			<point x="426" y="443" type="line"/>
			<point x="426" y="347" type="line"/>
		</contour>
		<contour>
			<point x="438" y="266" type="line"/>
			<point x="104" y="266" type="line"/>
			<point x="104" y="237" type="line"/>
			<point x="438" y="237" type="line"/>
		</contour>
		<contour>
			<point x="443" y="266" type="line"/>
			<point x="434" y="266" type="line"/>
			<point x="434" y="259" type="line"/>
			<point x="407" y="231"/>
			<point x="349" y="197"/>
			<point x="283" y="170" type="curve"/>
			<point x="289" y="166"/>
			<point x="297" y="157"/>
			<point x="300" y="150" type="curve"/>
			<point x="368" y="178"/>
			<point x="434" y="218"/>
			<point x="471" y="254" type="curve"/>
			<point x="449" y="268" type="line"/>
		</contour>
		<contour>
			<point x="305" y="-30" type="curve" smooth="yes"/>
			<point x="305" y="175" type="line"/>
			<point x="276" y="175" type="line"/>
			<point x="276" y="-30" type="line" smooth="yes"/>
			<point x="276" y="-41"/>
			<point x="273" y="-44"/>
			<point x="260" y="-45" type="curve" smooth="yes"/>
			<point x="248" y="-46"/>
			<point x="206" y="-46"/>
			<point x="152" y="-44" type="curve"/>
			<point x="156" y="-53"/>
			<point x="161" y="-62"/>
			<point x="163" y="-71" type="curve"/>
			<point x="228" y="-71"/>
			<point x="264" y="-71"/>
			<point x="283" y="-65" type="curve" smooth="yes"/>
			<point x="300" y="-60"/>
			<point x="305" y="-51"/>
		</contour>
		<contour>
			<point x="63" y="102" type="curve"/>
			<point x="67" y="71" type="line"/>
			<point x="195" y="80"/>
			<point x="367" y="92"/>
			<point x="514" y="103" type="curve"/>
			<point x="514" y="132" type="line"/>
			<point x="359" y="120"/>
			<point x="185" y="109"/>
		</contour>
		<contour>
			<point x="939" y="488" type="line"/>
			<point x="625" y="488" type="line"/>
			<point x="625" y="459" type="line"/>
			<point x="939" y="459" type="line"/>
		</contour>
		<contour>
			<point x="685" y="621" type="curve"/>
			<point x="655" y="627" type="line"/>
			<point x="623" y="493"/>
			<point x="572" y="362"/>
			<point x="503" y="275" type="curve"/>
			<point x="512" y="271"/>
			<point x="525" y="262"/>
			<point x="531" y="257" type="curve"/>
			<point x="597" y="347"/>
			<point x="651" y="480"/>
		</contour>
		<contour>
			<point x="886" y="475" type="curve"/>
			<point x="857" y="481" type="line"/>
			<point x="803" y="225"/>
			<point x="682" y="50"/>
			<point x="491" y="-46" type="curve"/>
			<point x="498" y="-53"/>
			<point x="508" y="-66"/>
			<point x="512" y="-73" type="curve"/>
			<point x="709" y="36"/>
			<point x="833" y="218"/>
		</contour>
		<contour>
			<point x="625" y="444" type="curve"/>
			<point x="599" y="437" type="line"/>
			<point x="654" y="204"/>
			<point x="768" y="11"/>
			<point x="938" y="-72" type="curve"/>
			<point x="944" y="-65"/>
			<point x="953" y="-54"/>
			<point x="961" y="-48" type="curve"/>
			<point x="790" y="28"/>
			<point x="677" y="219"/>
		</contour>
	</outline>
</glyph>
<glyph name="uni4871" format="2">
	<advance width="1000" height="1000"/>
	<unicode hex="4871"/>
	<note>
		cid08066
	</note>
	<outline>
		<contour>
			<point x="375" y="709" type="line"/>
			<point x="57" y="709" type="line"/>
			<point x="57" y="679" type="line"/>
			<point x="375" y="679" type="line"/>
		</contour>
		<contour>
			<point x="383" y="150" type="line"/>
			<point x="48" y="150" type="line"/>
			<point x="48" y="121" type="line"/>
			<point x="383" y="121" type="line"/>
		</contour>
		<contour>
			<point x="230" y="831" type="line"/>
			<point x="201" y="831" type="line"/>
			<point x="201" y="571" type="line"/>
			<point x="230" y="571" type="line"/>
		</contour>
		<contour>
			<point x="230" y="572" type="line"/>
			<point x="201" y="572" type="line"/>
			<point x="201" y="268" type="line"/>
			<point x="201" y="268" type="line"/>
			<point x="201" y="-71" type="line"/>
			<point x="230" y="-71" type="line"/>
			<point x="230" y="268" type="line"/>
			<point x="230" y="268" type="line"/>
		</contour>
		<contour>
			<point x="111" y="279" type="line"/>
			<point x="111" y="405" type="line"/>
			<point x="320" y="405" type="line"/>
			<point x="320" y="279" type="line"/>
		</contour>
		<contour>
			<point x="111" y="434" type="line"/>
			<point x="111" y="558" type="line"/>
			<point x="320" y="558" type="line"/>
			<point x="320" y="434" type="line"/>
		</contour>
		<contour>
			<point x="350" y="587" type="line"/>
			<point x="82" y="587" type="line"/>
			<point x="82" y="250" type="line"/>
			<point x="350" y="250" type="line"/>
		</contour>
		<contour>
			<point x="929" y="766" type="line"/>
			<point x="411" y="766" type="line"/>
			<point x="411" y="-71" type="line"/>
			<point x="440" y="-71" type="line"/>
			<point x="440" y="737" type="line"/>
			<point x="929" y="737" type="line"/>
		</contour>
		<contour>
			<point x="953" y="8" type="line"/>
			<point x="425" y="8" type="line"/>
			<point x="425" y="-21" type="line"/>
			<point x="952" y="-21" type="line"/>
		</contour>
		<contour>
			<point x="832" y="644" type="line"/>
			<point x="567" y="644" type="line"/>
			<point x="567" y="423" type="line"/>
			<point x="832" y="423" type="line"/>
		</contour>
		<contour>
			<point x="596" y="452" type="line"/>
			<point x="596" y="615" type="line"/>
			<point x="803" y="615" type="line"/>
			<point x="803" y="452" type="line"/>
		</contour>
		<contour>
			<point x="673" y="345" type="line"/>
			<point x="493" y="345" type="line"/>
			<point x="493" y="106" type="line"/>
			<point x="673" y="106" type="line"/>
		</contour>
		<contour>
			<point x="522" y="135" type="line"/>
			<point x="522" y="316" type="line"/>
			<point x="644" y="316" type="line"/>
			<point x="644" y="135" type="line"/>
		</contour>
		<contour>
			<point x="917" y="345" type="line"/>
			<point x="734" y="345" type="line"/>
			<point x="734" y="106" type="line"/>
			<point x="917" y="106" type="line"/>
		</contour>
		<contour>
			<point x="763" y="135" type="line"/>
			<point x="763" y="316" type="line"/>
			<point x="888" y="316" type="line"/>
			<point x="888" y="135" type="line"/>
		</contour>
	</outline>
</glyph>
<glyph name="uni491E" format="2">
	<advance width="1000" height="1000"/>
	<unicode hex="491E"/>
	<note>
		cid08250
	</note>
	<outline>
		<contour>
			<point x="945" y="589" type="line"/>
			<point x="438" y="589" type="line"/>
			<point x="438" y="560" type="line"/>
			<point x="945" y="560" type="line"/>
		</contour>
		<contour>
			<point x="680" y="14" type="curve" smooth="yes"/>
			<point x="680" y="468" type="line"/>
			<point x="651" y="468" type="line"/>
			<point x="651" y="14" type="line" smooth="yes"/>
			<point x="651" y="-39"/>
			<point x="667" y="-50"/>
			<point x="727" y="-50" type="curve" smooth="yes"/>
			<point x="741" y="-50"/>
			<point x="857" y="-50"/>
			<point x="871" y="-50" type="curve" smooth="yes"/>
			<point x="934" y="-50"/>
			<point x="944" y="-11"/>
			<point x="948" y="142" type="curve"/>
			<point x="939" y="145"/>
			<point x="928" y="150"/>
			<point x="919" y="157" type="curve"/>
			<point x="916" y="5"/>
			<point x="910" y="-21"/>
			<point x="870" y="-21" type="curve" smooth="yes"/>
			<point x="844" y="-21"/>
			<point x="746" y="-21"/>
			<point x="727" y="-21" type="curve" smooth="yes"/>
			<point x="688" y="-21"/>
			<point x="680" y="-15"/>
		</contour>
		<contour>
			<point x="677" y="829" type="curve"/>
			<point x="648" y="829" type="line"/>
			<point x="647" y="543"/>
			<point x="645" y="129"/>
			<point x="370" y="-52" type="curve"/>
			<point x="379" y="-56"/>
			<point x="391" y="-65"/>
			<point x="397" y="-71" type="curve"/>
			<point x="672" y="119"/>
			<point x="675" y="530"/>
		</contour>
		<contour>
			<point x="774" y="811" type="curve"/>
			<point x="753" y="793" type="line"/>
			<point x="809" y="752"/>
			<point x="873" y="691"/>
			<point x="904" y="650" type="curve"/>
			<point x="927" y="670" type="line"/>
			<point x="896" y="711"/>
			<point x="832" y="768"/>
		</contour>
		<contour>
			<point x="412" y="584" type="line"/>
			<point x="120" y="584" type="line"/>
			<point x="120" y="555" type="line"/>
			<point x="412" y="555" type="line"/>
		</contour>
		<contour>
			<point x="455" y="416" type="line"/>
			<point x="62" y="416" type="line"/>
			<point x="62" y="386" type="line"/>
			<point x="455" y="386" type="line"/>
		</contour>
		<contour>
			<point x="124" y="310" type="curve"/>
			<point x="96" y="304" type="line"/>
			<point x="121" y="240"/>
			<point x="139" y="159"/>
			<point x="142" y="105" type="curve"/>
			<point x="172" y="112" type="line"/>
			<point x="168" y="165"/>
			<point x="149" y="247"/>
		</contour>
		<contour>
			<point x="52" y="-3" type="curve"/>
			<point x="63" y="-31" type="line"/>
			<point x="167" y="-8"/>
			<point x="317" y="26"/>
			<point x="458" y="58" type="curve"/>
			<point x="455" y="85" type="line"/>
			<point x="303" y="51"/>
			<point x="148" y="18"/>
		</contour>
		<contour>
			<point x="422" y="311" type="curve"/>
			<point x="391" y="324" type="line"/>
			<point x="378" y="266"/>
			<point x="351" y="178"/>
			<point x="330" y="126" type="curve"/>
			<point x="355" y="115" type="line"/>
			<point x="377" y="166"/>
			<point x="402" y="247"/>
		</contour>
		<contour>
			<point x="280" y="569" type="line"/>
			<point x="250" y="569" type="line"/>
			<point x="250" y="22" type="line"/>
			<point x="280" y="25" type="line"/>
		</contour>
		<contour>
			<point x="255" y="830" type="line"/>
			<point x="239" y="830" type="line"/>
			<point x="205" y="748"/>
			<point x="140" y="639"/>
			<point x="49" y="558" type="curve"/>
			<point x="56" y="554"/>
			<point x="66" y="547"/>
			<point x="71" y="541" type="curve"/>
			<point x="165" y="626"/>
			<point x="228" y="734"/>
			<point x="265" y="812" type="curve"/>
			<point x="265" y="820" type="line"/>
			<point x="255" y="820" type="line"/>
		</contour>
		<contour>
			<point x="276" y="830" type="curve"/>
			<point x="248" y="830" type="line"/>
			<point x="248" y="809" type="line"/>
			<point x="256" y="809" type="line"/>
			<point x="325" y="751"/>
			<point x="402" y="666"/>
			<point x="442" y="613" type="curve"/>
			<point x="466" y="635" type="line"/>
			<point x="427" y="687"/>
			<point x="344" y="771"/>
		</contour>
	</outline>
</glyph>
<glyph name="uni4930" format="2">
	<advance width="1000" height="1000"/>
	<unicode hex="4930"/>
	<note>
		cid08269
	</note>
	<outline>
		<contour>
			<point x="385" y="701" type="line"/>
			<point x="76" y="701" type="line"/>
			<point x="76" y="672" type="line"/>
			<point x="385" y="672" type="line"/>
		</contour>
		<contour>
			<point x="248" y="815" type="line"/>
			<point x="219" y="815" type="line"/>
			<point x="219" y="483" type="line"/>
			<point x="248" y="492" type="line"/>
		</contour>
		<contour>
			<point x="53" y="441" type="curve"/>
			<point x="63" y="412" type="line"/>
			<point x="153" y="440"/>
			<point x="274" y="480"/>
			<point x="392" y="518" type="curve"/>
			<point x="388" y="545" type="line"/>
			<point x="261" y="504"/>
			<point x="141" y="466"/>
		</contour>
		<contour>
			<point x="531" y="823" type="curve"/>
			<point x="501" y="830" type="line"/>
			<point x="468" y="741"/>
			<point x="412" y="660"/>
			<point x="346" y="604" type="curve"/>
			<point x="354" y="599"/>
			<point x="367" y="589"/>
			<point x="371" y="584" type="curve"/>
			<point x="437" y="644"/>
			<point x="496" y="731"/>
		</contour>
		<contour>
			<point x="901" y="728" type="line"/>
			<point x="458" y="728" type="line"/>
			<point x="458" y="699" type="line"/>
			<point x="901" y="699" type="line"/>
		</contour>
		<contour>
			<point x="896" y="728" type="line"/>
			<point x="889" y="728" type="line"/>
			<point x="889" y="722" type="line"/>
			<point x="869" y="675"/>
			<point x="842" y="622"/>
			<point x="817" y="584" type="curve"/>
			<point x="843" y="572" type="line"/>
			<point x="868" y="609"/>
			<point x="896" y="669"/>
			<point x="922" y="721" type="curve"/>
			<point x="902" y="730" type="line"/>
		</contour>
		<contour>
			<point x="642" y="669" type="curve" smooth="yes"/>
			<point x="642" y="714" type="line"/>
			<point x="627" y="714" type="line"/>
			<point x="613" y="714" type="line"/>
			<point x="613" y="669" type="line" smooth="yes"/>
			<point x="613" y="632"/>
			<point x="611" y="475"/>
			<point x="302" y="409" type="curve"/>
			<point x="308" y="402"/>
			<point x="317" y="391"/>
			<point x="320" y="386" type="curve"/>
			<point x="564" y="438"/>
			<point x="619" y="552"/>
			<point x="628" y="609" type="curve"/>
			<point x="640" y="552"/>
			<point x="704" y="437"/>
			<point x="934" y="386" type="curve"/>
			<point x="938" y="392"/>
			<point x="948" y="404"/>
			<point x="953" y="410" type="curve"/>
			<point x="660" y="473"/>
			<point x="642" y="634"/>
		</contour>
		<contour>
			<point x="501" y="374" type="curve"/>
			<point x="614" y="297"/>
			<point x="793" y="234"/>
			<point x="944" y="206" type="curve"/>
			<point x="947" y="212"/>
			<point x="955" y="226"/>
			<point x="960" y="233" type="curve"/>
			<point x="809" y="258"/>
			<point x="628" y="319"/>
			<point x="512" y="399" type="curve"/>
			<point x="485" y="399" type="line"/>
			<point x="396" y="326"/>
			<point x="227" y="251"/>
			<point x="47" y="208" type="curve"/>
			<point x="52" y="202"/>
			<point x="58" y="192"/>
			<point x="61" y="185" type="curve"/>
			<point x="240" y="231"/>
			<point x="406" y="302"/>
		</contour>
		<contour>
			<point x="685" y="253" type="line"/>
			<point x="322" y="253" type="line"/>
			<point x="322" y="224" type="line"/>
			<point x="685" y="224" type="line"/>
		</contour>
		<contour>
			<point x="813" y="143" type="line"/>
			<point x="192" y="143" type="line"/>
			<point x="192" y="114" type="line"/>
			<point x="813" y="114" type="line"/>
		</contour>
		<contour>
			<point x="515" y="239" type="line"/>
			<point x="486" y="239" type="line"/>
			<point x="486" y="-27" type="line"/>
			<point x="515" y="-27" type="line"/>
		</contour>
		<contour>
			<point x="315" y="101" type="curve"/>
			<point x="290" y="90" type="line"/>
			<point x="314" y="61"/>
			<point x="338" y="19"/>
			<point x="349" y="-8" type="curve"/>
			<point x="375" y="5" type="line"/>
			<point x="365" y="31"/>
			<point x="339" y="72"/>
		</contour>
		<contour>
			<point x="721" y="93" type="curve"/>
			<point x="694" y="105" type="line"/>
			<point x="678" y="76"/>
			<point x="646" y="30"/>
			<point x="623" y="3" type="curve"/>
			<point x="646" y="-8" type="line"/>
			<point x="671" y="19"/>
			<point x="698" y="57"/>
		</contour>
		<contour>
			<point x="941" y="-12" type="line"/>
			<point x="59" y="-12" type="line"/>
			<point x="59" y="-41" type="line"/>
			<point x="941" y="-41" type="line"/>
		</contour>
	</outline>
</glyph>
<glyph name="uni4B70" format="2">
	<advance width="1000" height="1000"/>
	<unicode hex="4B70"/>
	<note>
		cid08871
	</note>
	<outline>
		<contour>
			<point x="416" y="789" type="curve"/>
			<point x="392" y="811" type="line"/>
			<point x="322" y="782"/>
			<point x="179" y="758"/>
			<point x="64" y="744" type="curve"/>
			<point x="69" y="736"/>
			<point x="73" y="726"/>
			<point x="75" y="720" type="curve"/>
			<point x="191" y="733"/>
			<point x="333" y="757"/>
		</contour>
		<contour>
			<point x="265" y="768" type="line"/>
			<point x="235" y="768" type="line"/>
			<point x="235" y="354" type="line"/>
			<point x="265" y="354" type="line"/>
		</contour>
		<contour>
			<point x="435" y="628" type="line"/>
			<point x="60" y="628" type="line"/>
			<point x="60" y="599" type="line"/>
			<point x="435" y="599" type="line"/>
		</contour>
		<contour>
			<point x="387" y="169" type="line"/>
			<point x="122" y="169" type="line"/>
			<point x="122" y="139" type="line"/>
			<point x="387" y="139" type="line"/>
		</contour>
		<contour>
			<point x="387" y="9" type="line"/>
			<point x="122" y="9" type="line"/>
			<point x="122" y="-20" type="line"/>
			<point x="387" y="-20" type="line"/>
		</contour>
		<contour>
			<point x="257" y="608" type="curve"/>
			<point x="232" y="619" type="line"/>
			<point x="191" y="528"/>
			<point x="106" y="428"/>
			<point x="37" y="380" type="curve"/>
			<point x="43" y="375"/>
			<point x="51" y="364"/>
			<point x="55" y="356" type="curve"/>
			<point x="128" y="409"/>
			<point x="212" y="514"/>
		</contour>
		<contour>
			<point x="265" y="580" type="curve"/>
			<point x="244" y="564" type="line"/>
			<point x="289" y="530"/>
			<point x="355" y="475"/>
			<point x="393" y="439" type="curve"/>
			<point x="414" y="461" type="line"/>
			<point x="374" y="495"/>
			<point x="308" y="547"/>
		</contour>
		<contour>
			<point x="397" y="325" type="line"/>
			<point x="108" y="325" type="line"/>
			<point x="108" y="-65" type="line"/>
			<point x="137" y="-65" type="line"/>
			<point x="137" y="295" type="line"/>
			<point x="368" y="295" type="line"/>
			<point x="368" y="-58" type="line"/>
			<point x="397" y="-58" type="line"/>
		</contour>
		<contour>
			<point x="930" y="726" type="line"/>
			<point x="440" y="726" type="line"/>
			<point x="440" y="697" type="line"/>
			<point x="930" y="697" type="line"/>
		</contour>
		<contour>
			<point x="952" y="461" type="line"/>
			<point x="422" y="461" type="line"/>
			<point x="422" y="432" type="line"/>
			<point x="952" y="432" type="line"/>
		</contour>
		<contour>
			<point x="936" y="145" type="line"/>
			<point x="456" y="145" type="line"/>
			<point x="456" y="116" type="line"/>
			<point x="936" y="116" type="line"/>
		</contour>
		<contour>
			<point x="870" y="284" type="line"/>
			<point x="516" y="284" type="line"/>
			<point x="516" y="255" type="line"/>
			<point x="870" y="255" type="line"/>
		</contour>
		<contour>
			<point x="908" y="599" type="line"/>
			<point x="471" y="599" type="line"/>
			<point x="471" y="570" type="line"/>
			<point x="908" y="570" type="line"/>
		</contour>
		<contour>
			<point x="706" y="392" type="line"/>
			<point x="677" y="392" type="line"/>
			<point x="677" y="-71" type="line"/>
			<point x="706" y="-71" type="line"/>
		</contour>
		<contour>
			<point x="761" y="583" type="curve"/>
			<point x="735" y="574" type="line"/>
			<point x="781" y="423"/>
			<point x="854" y="301"/>
			<point x="938" y="235" type="curve"/>
			<point x="943" y="243"/>
			<point x="952" y="254"/>
			<point x="960" y="259" type="curve"/>
			<point x="876" y="317"/>
			<point x="806" y="433"/>
		</contour>
		<contour>
			<point x="699" y="826" type="curve"/>
			<point x="669" y="831" type="line"/>
			<point x="642" y="611"/>
			<point x="583" y="380"/>
			<point x="416" y="246" type="curve"/>
			<point x="422" y="240"/>
			<point x="430" y="230"/>
			<point x="434" y="224" type="curve"/>
			<point x="609" y="365"/>
			<point x="667" y="597"/>
		</contour>
	</outline>
</glyph>
<glyph name="uni4C07" format="2">
	<advance width="1000" height="1000"/>
	<unicode hex="4C07"/>
	<note>
		cid09032
	</note>
	<outline>
		<contour>
			<point x="942" y="288" type="line"/>
			<point x="59" y="288" type="line"/>
			<point x="59" y="259" type="line"/>
			<point x="942" y="259" type="line"/>
		</contour>
		<contour>
			<point x="726" y="392" type="line"/>
			<point x="169" y="392" type="line"/>
			<point x="169" y="363" type="line"/>
			<point x="726" y="363" type="line"/>
		</contour>
		<contour>
			<point x="827" y="90" type="line"/>
			<point x="275" y="90" type="line"/>
			<point x="275" y="61" type="line"/>
			<point x="827" y="61" type="line"/>
		</contour>
		<contour>
			<point x="823" y="-12" type="line"/>
			<point x="275" y="-12" type="line"/>
			<point x="275" y="-41" type="line"/>
			<point x="823" y="-41" type="line"/>
		</contour>
		<contour>
			<point x="469" y="445" type="line"/>
			<point x="440" y="445" type="line"/>
			<point x="440" y="273" type="line"/>
			<point x="469" y="273" type="line"/>
		</contour>
		<contour>
			<point x="841" y="188" type="line"/>
			<point x="258" y="188" type="line"/>
			<point x="258" y="-72" type="line"/>
			<point x="288" y="-72" type="line"/>
			<point x="288" y="159" type="line"/>
			<point x="812" y="159" type="line"/>
			<point x="812" y="-69" type="line"/>
			<point x="841" y="-69" type="line"/>
		</contour>
		<contour>
			<point x="868" y="425" type="curve"/>
			<point x="843" y="444" type="line"/>
			<point x="681" y="313"/>
			<point x="370" y="187"/>
			<point x="37" y="118" type="curve"/>
			<point x="44" y="111"/>
			<point x="54" y="96"/>
			<point x="58" y="89" type="curve"/>
			<point x="395" y="167"/>
			<point x="708" y="296"/>
		</contour>
		<contour>
			<point x="488" y="732" type="line"/>
			<point x="170" y="732" type="line"/>
			<point x="170" y="703" type="line"/>
			<point x="488" y="703" type="line"/>
		</contour>
		<contour>
			<point x="488" y="663" type="line"/>
			<point x="170" y="663" type="line"/>
			<point x="170" y="633" type="line"/>
			<point x="488" y="633" type="line"/>
		</contour>
		<contour>
			<point x="563" y="593" type="line"/>
			<point x="59" y="593" type="line"/>
			<point x="59" y="564" type="line"/>
			<point x="563" y="564" type="line"/>
		</contour>
		<contour>
			<point x="516" y="802" type="line"/>
			<point x="155" y="802" type="line"/>
			<point x="155" y="572" type="line"/>
			<point x="184" y="572" type="line"/>
			<point x="184" y="772" type="line"/>
			<point x="516" y="772" type="line"/>
		</contour>
		<contour>
			<point x="232" y="577" type="curve"/>
			<point x="203" y="588" type="line"/>
			<point x="191" y="562"/>
			<point x="169" y="520"/>
			<point x="151" y="494" type="curve"/>
			<point x="179" y="483" type="line"/>
			<point x="196" y="510"/>
			<point x="215" y="542"/>
		</contour>
		<contour>
			<point x="84" y="497" type="curve"/>
			<point x="87" y="466" type="line"/>
			<point x="195" y="470"/>
			<point x="342" y="477"/>
			<point x="466" y="484" type="curve"/>
			<point x="467" y="511" type="line"/>
			<point x="333" y="505"/>
			<point x="185" y="499"/>
		</contour>
		<contour>
			<point x="406" y="556" type="curve"/>
			<point x="385" y="537" type="line"/>
			<point x="429" y="514"/>
			<point x="478" y="476"/>
			<point x="505" y="446" type="curve"/>
			<point x="527" y="466" type="line"/>
			<point x="502" y="495"/>
			<point x="451" y="532"/>
		</contour>
		<contour>
			<point x="867" y="816" type="curve"/>
			<point x="840" y="828" type="line"/>
			<point x="770" y="785"/>
			<point x="652" y="748"/>
			<point x="560" y="725" type="curve"/>
			<point x="568" y="719"/>
			<point x="575" y="709"/>
			<point x="581" y="702" type="curve"/>
			<point x="674" y="727"/>
			<point x="792" y="768"/>
		</contour>
		<contour>
			<point x="908" y="719" type="curve"/>
			<point x="880" y="732" type="line"/>
			<point x="815" y="682"/>
			<point x="697" y="641"/>
			<point x="594" y="618" type="curve"/>
			<point x="602" y="611"/>
			<point x="610" y="601"/>
			<point x="616" y="594" type="curve"/>
			<point x="720" y="620"/>
			<point x="838" y="666"/>
		</contour>
		<contour>
			<point x="942" y="615" type="curve"/>
			<point x="915" y="627" type="line"/>
			<point x="845" y="561"/>
			<point x="703" y="516"/>
			<point x="559" y="492" type="curve"/>
			<point x="567" y="486"/>
			<point x="574" y="474"/>
			<point x="578" y="468" type="curve"/>
			<point x="723" y="493"/>
			<point x="870" y="543"/>
		</contour>
		<contour>
			<point x="667" y="266" type="curve"/>
			<point x="651" y="247" type="line"/>
			<point x="692" y="232"/>
			<point x="746" y="203"/>
			<point x="774" y="182" type="curve"/>
			<point x="790" y="205" type="line"/>
			<point x="764" y="225"/>
			<point x="710" y="252"/>
		</contour>
	</outline>
</glyph>
<glyph name="uni4CB3" format="2">
	<advance width="1000" height="1000"/>
	<unicode hex="4CB3"/>
	<note>
		cid09213
	</note>
	<outline>
		<contour>
			<point x="270" y="822" type="line"/>
			<point x="241" y="822" type="line"/>
			<point x="241" y="661" type="line"/>
			<point x="270" y="661" type="line"/>
		</contour>
		<contour>
			<point x="161" y="292" type="curve" smooth="yes"/>
			<point x="161" y="526" type="line"/>
			<point x="132" y="526" type="line"/>
			<point x="132" y="292" type="line" smooth="yes"/>
			<point x="132" y="192"/>
			<point x="121" y="67"/>
			<point x="36" y="-24" type="curve"/>
			<point x="43" y="-28"/>
			<point x="55" y="-37"/>
			<point x="59" y="-43" type="curve"/>
			<point x="146" y="51"/>
			<point x="161" y="187"/>
		</contour>
		<contour>
			<point x="434" y="676" type="line"/>
			<point x="55" y="676" type="line"/>
			<point x="55" y="647" type="line"/>
			<point x="434" y="647" type="line"/>
		</contour>
		<contour>
			<point x="357" y="148" type="curve" smooth="yes"/>
			<point x="357" y="526" type="line"/>
			<point x="328" y="526" type="line"/>
			<point x="328" y="160" type="line" smooth="yes"/>
			<point x="328" y="102"/>
			<point x="330" y="91"/>
			<point x="341" y="83" type="curve" smooth="yes"/>
			<point x="350" y="75"/>
			<point x="365" y="72"/>
			<point x="378" y="72" type="curve" smooth="yes"/>
			<point x="390" y="72"/>
			<point x="402" y="72"/>
			<point x="414" y="72" type="curve" smooth="yes"/>
			<point x="426" y="72"/>
			<point x="439" y="75"/>
			<point x="447" y="80" type="curve" smooth="yes"/>
			<point x="456" y="85"/>
			<point x="461" y="95"/>
			<point x="465" y="112" type="curve" smooth="yes"/>
			<point x="468" y="126"/>
			<point x="470" y="178"/>
			<point x="471" y="221" type="curve"/>
			<point x="462" y="223"/>
			<point x="453" y="227"/>
			<point x="445" y="233" type="curve"/>
			<point x="445" y="184"/>
			<point x="444" y="148"/>
			<point x="441" y="131" type="curve" smooth="yes"/>
			<point x="439" y="117"/>
			<point x="435" y="108"/>
			<point x="431" y="104" type="curve" smooth="yes"/>
			<point x="426" y="100"/>
			<point x="418" y="99"/>
			<point x="409" y="99" type="curve" smooth="yes"/>
			<point x="399" y="99"/>
			<point x="389" y="99"/>
			<point x="379" y="99" type="curve" smooth="yes"/>
			<point x="373" y="99"/>
			<point x="367" y="100"/>
			<point x="363" y="103" type="curve" smooth="yes"/>
			<point x="358" y="107"/>
			<point x="357" y="123"/>
		</contour>
		<contour>
			<point x="343" y="526" type="line"/>
			<point x="146" y="526" type="line"/>
			<point x="146" y="497" type="line"/>
			<point x="343" y="497" type="line"/>
		</contour>
		<contour>
			<point x="705" y="818" type="curve"/>
			<point x="675" y="831" type="line"/>
			<point x="667" y="803"/>
			<point x="648" y="758"/>
			<point x="633" y="729" type="curve"/>
			<point x="658" y="719" type="line"/>
			<point x="672" y="745"/>
			<point x="689" y="783"/>
		</contour>
		<contour>
			<point x="875" y="737" type="line"/>
			<point x="522" y="737" type="line"/>
			<point x="522" y="708" type="line"/>
			<point x="846" y="708" type="line"/>
			<point x="846" y="494" type="line"/>
			<point x="522" y="494" type="line"/>
			<point x="522" y="465" type="line"/>
			<point x="875" y="465" type="line"/>
		</contour>
		<contour>
			<point x="859" y="617" type="line"/>
			<point x="523" y="617" type="line"/>
			<point x="523" y="587" type="line"/>
			<point x="859" y="587" type="line"/>
		</contour>
		<contour>
			<point x="951" y="384" type="line"/>
			<point x="519" y="384" type="line"/>
			<point x="519" y="355" type="line"/>
			<point x="951" y="355" type="line"/>
		</contour>
		<contour>
			<point x="531" y="737" type="line"/>
			<point x="502" y="737" type="line"/>
			<point x="502" y="256" type="line"/>
			<point x="531" y="256" type="line"/>
		</contour>
		<contour>
			<point x="914" y="274" type="line"/>
			<point x="502" y="274" type="line"/>
			<point x="502" y="244" type="line"/>
			<point x="914" y="244" type="line"/>
		</contour>
		<contour>
			<point x="936" y="274" type="curve"/>
			<point x="906" y="274" type="line"/>
			<point x="906" y="267" type="line"/>
			<point x="891" y="63"/>
			<point x="877" y="-14"/>
			<point x="854" y="-36" type="curve" smooth="yes"/>
			<point x="846" y="-44"/>
			<point x="837" y="-45"/>
			<point x="818" y="-45" type="curve" smooth="yes"/>
			<point x="801" y="-45"/>
			<point x="747" y="-44"/>
			<point x="691" y="-39" type="curve"/>
			<point x="696" y="-47"/>
			<point x="699" y="-59"/>
			<point x="700" y="-67" type="curve"/>
			<point x="751" y="-71"/>
			<point x="801" y="-72"/>
			<point x="824" y="-72" type="curve" smooth="yes"/>
			<point x="850" y="-72"/>
			<point x="865" y="-66"/>
			<point x="877" y="-54" type="curve" smooth="yes"/>
			<point x="905" y="-26"/>
			<point x="919" y="46"/>
			<point x="934" y="254" type="curve" smooth="yes"/>
			<point x="935" y="261"/>
			<point x="936" y="274"/>
		</contour>
		<contour>
			<point x="529" y="172" type="curve"/>
			<point x="502" y="179" type="line"/>
			<point x="492" y="104"/>
			<point x="472" y="24"/>
			<point x="427" y="-20" type="curve"/>
			<point x="451" y="-38" type="line"/>
			<point x="499" y="10"/>
			<point x="519" y="95"/>
		</contour>
		<contour>
			<point x="608" y="165" type="curve"/>
			<point x="581" y="162" type="line"/>
			<point x="595" y="108"/>
			<point x="605" y="39"/>
			<point x="606" y="-5" type="curve"/>
			<point x="634" y="-1" type="line"/>
			<point x="633" y="43"/>
			<point x="623" y="112"/>
		</contour>
		<contour>
			<point x="696" y="179" type="curve"/>
			<point x="671" y="172" type="line"/>
			<point x="694" y="127"/>
			<point x="718" y="66"/>
			<point x="726" y="27" type="curve"/>
			<point x="754" y="35" type="line"/>
			<point x="745" y="74"/>
			<point x="721" y="133"/>
		</contour>
		<contour>
			<point x="775" y="205" type="curve"/>
			<point x="753" y="192" type="line"/>
			<point x="782" y="160"/>
			<point x="815" y="115"/>
			<point x="830" y="84" type="curve"/>
			<point x="855" y="100" type="line"/>
			<point x="839" y="129"/>
			<point x="807" y="173"/>
		</contour>
	</outline>
</glyph>
<glyph name="uni4D91" format="2">
	<advance width="1000" height="1000"/>
	<unicode hex="4D91"/>
	<note>
		cid09443
	</note>
	<outline>
		<contour>
			<point x="93" y="250" type="line"/>
			<point x="93" y="308" type="line"/>
			<point x="397" y="308" type="line"/>
			<point x="397" y="250" type="line"/>
		</contour>
		<contour>
			<point x="93" y="337" type="line"/>
			<point x="93" y="393" type="line"/>
			<point x="397" y="393" type="line"/>
			<point x="397" y="337" type="line"/>
		</contour>
		<contour>
			<point x="426" y="423" type="line"/>
			<point x="63" y="423" type="line"/>
			<point x="63" y="221" type="line"/>
			<point x="426" y="221" type="line"/>
		</contour>
		<contour>
			<point x="456" y="165" type="line"/>
			<point x="50" y="165" type="line"/>
			<point x="50" y="135" type="line"/>
			<point x="456" y="135" type="line"/>
		</contour>
		<contour>
			<point x="260" y="411" type="line"/>
			<point x="231" y="411" type="line"/>
			<point x="231" y="234" type="line"/>
			<point x="260" y="234" type="line"/>
		</contour>
		<contour>
			<point x="332" y="155" type="line"/>
			<point x="303" y="155" type="line"/>
			<point x="303" y="-70" type="line"/>
			<point x="332" y="-70" type="line"/>
		</contour>
		<contour>
			<point x="128" y="590" type="line"/>
			<point x="128" y="643" type="line"/>
			<point x="365" y="643" type="line"/>
			<point x="365" y="590" type="line"/>
		</contour>
		<contour>
			<point x="128" y="507" type="line"/>
			<point x="128" y="561" type="line"/>
			<point x="365" y="561" type="line"/>
			<point x="365" y="507" type="line"/>
		</contour>
		<contour>
			<point x="128" y="672" type="line"/>
			<point x="128" y="723" type="line"/>
			<point x="365" y="723" type="line"/>
			<point x="365" y="672" type="line"/>
		</contour>
		<contour>
			<point x="394" y="753" type="line"/>
			<point x="99" y="753" type="line"/>
			<point x="99" y="477" type="line"/>
			<point x="394" y="477" type="line"/>
		</contour>
		<contour>
			<point x="188" y="157" type="curve"/>
			<point x="158" y="157" type="line"/>
			<point x="151" y="56"/>
			<point x="127" y="-13"/>
			<point x="50" y="-51" type="curve"/>
			<point x="57" y="-55"/>
			<point x="68" y="-66"/>
			<point x="72" y="-72" type="curve"/>
			<point x="151" y="-29"/>
			<point x="180" y="46"/>
		</contour>
		<contour>
			<point x="275" y="821" type="curve"/>
			<point x="243" y="832" type="line"/>
			<point x="236" y="808"/>
			<point x="219" y="768"/>
			<point x="206" y="743" type="curve"/>
			<point x="232" y="733" type="line"/>
			<point x="245" y="757"/>
			<point x="260" y="789"/>
		</contour>
		<contour>
			<point x="930" y="755" type="line"/>
			<point x="461" y="755" type="line"/>
			<point x="461" y="725" type="line"/>
			<point x="930" y="725" type="line"/>
		</contour>
		<contour>
			<point x="709" y="830" type="line"/>
			<point x="680" y="830" type="line"/>
			<point x="680" y="636" type="line"/>
			<point x="709" y="636" type="line"/>
		</contour>
		<contour>
			<point x="951" y="651" type="line"/>
			<point x="434" y="651" type="line"/>
			<point x="434" y="533" type="line"/>
			<point x="463" y="533" type="line"/>
			<point x="463" y="622" type="line"/>
			<point x="922" y="622" type="line"/>
			<point x="922" y="533" type="line"/>
			<point x="951" y="533" type="line"/>
		</contour>
		<contour>
			<point x="901" y="550" type="line"/>
			<point x="485" y="550" type="line"/>
			<point x="485" y="319" type="line"/>
			<point x="901" y="319" type="line"/>
		</contour>
		<contour>
			<point x="514" y="450" type="line"/>
			<point x="514" y="521" type="line"/>
			<point x="872" y="521" type="line"/>
			<point x="872" y="450" type="line"/>
		</contour>
		<contour>
			<point x="514" y="348" type="line"/>
			<point x="514" y="421" type="line"/>
			<point x="872" y="421" type="line"/>
			<point x="872" y="348" type="line"/>
		</contour>
		<contour>
			<point x="708" y="536" type="line"/>
			<point x="679" y="536" type="line"/>
			<point x="679" y="333" type="line"/>
			<point x="708" y="333" type="line"/>
		</contour>
		<contour>
			<point x="656" y="327" type="curve"/>
			<point x="630" y="341" type="line"/>
			<point x="606" y="300"/>
			<point x="574" y="255"/>
			<point x="545" y="223" type="curve"/>
			<point x="568" y="210" type="line"/>
			<point x="597" y="241"/>
			<point x="630" y="286"/>
		</contour>
		<contour>
			<point x="457" y="230" type="curve"/>
			<point x="459" y="199" type="line"/>
			<point x="576" y="201"/>
			<point x="739" y="205"/>
			<point x="881" y="209" type="curve"/>
			<point x="883" y="236" type="line"/>
			<point x="728" y="232"/>
			<point x="564" y="230"/>
		</contour>
		<contour>
			<point x="797" y="310" type="curve"/>
			<point x="774" y="296" type="line"/>
			<point x="828" y="259"/>
			<point x="887" y="205"/>
			<point x="919" y="166" type="curve"/>
			<point x="943" y="184" type="line"/>
			<point x="913" y="220"/>
			<point x="850" y="274"/>
		</contour>
		<contour>
			<point x="709" y="219" type="line"/>
			<point x="680" y="219" type="line"/>
			<point x="680" y="-36" type="line"/>
			<point x="709" y="-36" type="line"/>
		</contour>
		<contour>
			<point x="868" y="120" type="line"/>
			<point x="694" y="120" type="line"/>
			<point x="694" y="90" type="line"/>
			<point x="868" y="90" type="line"/>
		</contour>
		<contour>
			<point x="548" y="182" type="curve"/>
			<point x="517" y="185" type="line"/>
			<point x="503" y="75"/>
			<point x="459" y="-1"/>
			<point x="381" y="-49" type="curve"/>
			<point x="388" y="-55"/>
			<point x="400" y="-66"/>
			<point x="405" y="-72" type="curve"/>
			<point x="487" y="-15"/>
			<point x="534" y="69"/>
		</contour>
		<contour>
			<point x="526" y="94" type="curve"/>
			<point x="502" y="83" type="line"/>
			<point x="547" y="-33"/>
			<point x="626" y="-53"/>
			<point x="755" y="-53" type="curve" smooth="yes"/>
			<point x="894" y="-53" type="line"/>
			<point x="940" y="-53" type="line"/>
			<point x="941" y="-45"/>
			<point x="947" y="-31"/>
			<point x="953" y="-22" type="curve"/>
			<point x="926" y="-22"/>
			<point x="768" y="-22"/>
			<point x="755" y="-22" type="curve" smooth="yes"/>
			<point x="645" y="-22"/>
			<point x="567" y="-10"/>
		</contour>
	</outline>
</glyph>
<glyph name="uni4E08" format="2">
	<advance width="1000" height="1000"/>
	<unicode hex="4E08"/>
	<note>
		cid09491
	</note>
	<outline>
		<contour>
			<point x="931" y="621" type="line"/>
			<point x="71" y="621" type="line"/>
			<point x="71" y="592" type="line"/>
			<point x="931" y="592" type="line"/>
		</contour>
		<contour>
			<point x="265" y="531" type="curve"/>
			<point x="238" y="523" type="line"/>
			<point x="325" y="168"/>
			<point x="527" y="-16"/>
			<point x="933" y="-72" type="curve"/>
			<point x="937" y="-64"/>
			<point x="945" y="-53"/>
			<point x="951" y="-46" type="curve"/>
			<point x="546" y="6"/>
			<point x="347" y="188"/>
		</contour>
		<contour>
			<point x="542" y="814" type="curve"/>
			<point x="512" y="814" type="line"/>
			<point x="511" y="342"/>
			<point x="514" y="64"/>
			<point x="47" y="-47" type="curve"/>
			<point x="53" y="-53"/>
			<point x="62" y="-64"/>
			<point x="65" y="-71" type="curve"/>
			<point x="538" y="44"/>
			<point x="542" y="332"/>
		</contour>
	</outline>
</glyph>
<glyph name="uni4E2B" format="2">
	<advance width="1000" height="1000"/>
	<unicode hex="4E2B"/>
	<note>
		cid09542
	</note>
	<outline>
		<contour>
			<point x="515" y="508" type="line"/>
			<point x="485" y="508" type="line"/>
			<point x="485" y="-70" type="line"/>
			<point x="515" y="-70" type="line"/>
		</contour>
		<contour>
			<point x="196" y="812" type="curve"/>
			<point x="176" y="794" type="line"/>
			<point x="283" y="713"/>
			<point x="386" y="618"/>
			<point x="442" y="548" type="curve"/>
			<point x="464" y="570" type="line"/>
			<point x="408" y="639"/>
			<point x="305" y="733"/>
		</contour>
		<contour>
			<point x="841" y="796" type="curve"/>
			<point x="814" y="813" type="line"/>
			<point x="722" y="693"/>
			<point x="597" y="572"/>
			<point x="492" y="497" type="curve"/>
			<point x="512" y="477" type="line"/>
			<point x="617" y="555"/>
			<point x="744" y="678"/>
		</contour>
	</outline>
</glyph>
<glyph name="uni4E3D" format="2">
	<advance width="1000"/>
	<unicode hex="4E3D"/>
	<outline>
		<contour>
			<point x="421" y="600" type="line"/>
			<point x="112" y="600" type="line"/>
			<point x="112" y="-69" type="line"/>
			<point x="141" y="-69" type="line"/>
			<point x="141" y="571" type="line"/>
			<point x="421" y="571" type="line"/>
		</contour>
		<contour>
			<point x="453" y="767" type="line"/>
			<point x="77" y="767" type="line"/>
			<point x="77" y="738" type="line"/>
			<point x="453" y="738" type="line"/>
		</contour>
		<contour>
			<point x="865" y="600" type="line"/>
			<point x="552" y="600" type="line"/>
			<point x="552" y="-69" type="line"/>
			<point x="581" y="-69" type="line"/>
			<point x="581" y="571" type="line"/>
			<point x="865" y="571" type="line"/>
		</contour>
		<contour>
			<point x="923" y="767" type="line"/>
			<point x="530" y="767" type="line"/>
			<point x="530" y="738" type="line"/>
			<point x="923" y="738" type="line"/>
		</contour>
		<contour>
			<point x="290" y="458" type="line"/>
			<point x="261" y="458" type="line"/>
			<point x="261" y="103" type="line"/>
			<point x="290" y="103" type="line"/>
		</contour>
		<contour>
			<point x="734" y="458" type="line"/>
			<point x="705" y="458" type="line"/>
			<point x="705" y="103" type="line"/>
			<point x="734" y="103" type="line"/>
		</contour>
		<contour>
			<point x="439" y="-26" type="curve" smooth="yes"/>
			<point x="439" y="600" type="line"/>
			<point x="410" y="600" type="line"/>
			<point x="410" y="-27" type="line" smooth="yes"/>
			<point x="410" y="-39"/>
			<point x="405" y="-43"/>
			<point x="393" y="-43" type="curve" smooth="yes"/>
			<point x="382" y="-44"/>
			<point x="341" y="-44"/>
			<point x="291" y="-43" type="curve"/>
			<point x="296" y="-52"/>
			<point x="302" y="-63"/>
			<point x="304" y="-70" type="curve"/>
			<point x="364" y="-71"/>
			<point x="397" y="-71"/>
			<point x="415" y="-65" type="curve" smooth="yes"/>
			<point x="432" y="-59"/>
			<point x="439" y="-50"/>
		</contour>
		<contour>
			<point x="888" y="-26" type="curve" smooth="yes"/>
			<point x="888" y="600" type="line"/>
			<point x="859" y="600" type="line"/>
			<point x="859" y="-26" type="line" smooth="yes"/>
			<point x="859" y="-39"/>
			<point x="854" y="-43"/>
			<point x="841" y="-43" type="curve" smooth="yes"/>
			<point x="830" y="-44"/>
			<point x="787" y="-44"/>
			<point x="735" y="-43" type="curve"/>
			<point x="740" y="-52"/>
			<point x="745" y="-63"/>
			<point x="747" y="-70" type="curve"/>
			<point x="811" y="-71"/>
			<point x="845" y="-71"/>
			<point x="864" y="-65" type="curve" smooth="yes"/>
			<point x="881" y="-60"/>
			<point x="888" y="-50"/>
		</contour>
	</outline>
</glyph>
<glyph name="uni4E49" format="2">
	<advance width="1000" height="1000"/>
	<unicode hex="4E49"/>
	<note>
		cid09580
	</note>
	<outline>
		<contour>
			<point x="239" y="738" type="curve"/>
			<point x="212" y="732" type="line"/>
			<point x="323" y="298"/>
			<point x="560" y="32"/>
			<point x="926" y="-70" type="curve"/>
			<point x="931" y="-62"/>
			<point x="939" y="-52"/>
			<point x="946" y="-47" type="curve"/>
			<point x="583" y="51"/>
			<point x="348" y="312"/>
		</contour>
		<contour>
			<point x="801" y="749" type="curve"/>
			<point x="773" y="756" type="line"/>
			<point x="673" y="319"/>
			<point x="462" y="74"/>
			<point x="78" y="-48" type="curve"/>
			<point x="85" y="-53"/>
			<point x="95" y="-65"/>
			<point x="99" y="-72" type="curve"/>
			<point x="482" y="55"/>
			<point x="696" y="305"/>
		</contour>
		<contour>
			<point x="411" y="814" type="curve"/>
			<point x="392" y="796" type="line"/>
			<point x="461" y="738"/>
			<point x="525" y="668"/>
			<point x="559" y="615" type="curve"/>
			<point x="580" y="637" type="line"/>
			<point x="547" y="689"/>
			<point x="481" y="757"/>
		</contour>
	</outline>
</glyph>
<glyph name="uni4E60" format="2">
	<advance width="1000" height="1000"/>
	<unicode hex="4E60"/>
	<note>
		cid09610
	</note>
	<outline>
		<contour>
			<point x="860" y="744" type="line"/>
			<point x="131" y="744" type="line"/>
			<point x="131" y="716" type="line"/>
			<point x="860" y="716" type="line"/>
		</contour>
		<contour>
			<point x="271" y="605" type="curve"/>
			<point x="246" y="589" type="line"/>
			<point x="322" y="518"/>
			<point x="391" y="431"/>
			<point x="426" y="365" type="curve"/>
			<point x="451" y="384" type="line"/>
			<point x="414" y="449"/>
			<point x="345" y="535"/>
		</contour>
		<contour>
			<point x="870" y="744" type="curve"/>
			<point x="842" y="744" type="line"/>
			<point x="842" y="735" type="line"/>
			<point x="834" y="195"/>
			<point x="823" y="15"/>
			<point x="793" y="-21" type="curve" smooth="yes"/>
			<point x="783" y="-34"/>
			<point x="772" y="-37"/>
			<point x="755" y="-36" type="curve" smooth="yes"/>
			<point x="734" y="-36"/>
			<point x="673" y="-36"/>
			<point x="609" y="-31" type="curve"/>
			<point x="615" y="-39"/>
			<point x="617" y="-51"/>
			<point x="618" y="-61" type="curve"/>
			<point x="671" y="-65"/>
			<point x="726" y="-66"/>
			<point x="758" y="-65" type="curve" smooth="yes"/>
			<point x="787" y="-65"/>
			<point x="805" y="-58"/>
			<point x="820" y="-36" type="curve"/>
			<point x="856" y="9"/>
			<point x="863" y="176"/>
			<point x="870" y="720" type="curve" smooth="yes"/>
			<point x="870" y="726"/>
			<point x="870" y="744"/>
		</contour>
		<contour>
			<point x="117" y="111" type="curve"/>
			<point x="129" y="81" type="line"/>
			<point x="280" y="131"/>
			<point x="516" y="209"/>
			<point x="730" y="281" type="curve"/>
			<point x="725" y="311" type="line"/>
			<point x="500" y="236"/>
			<point x="260" y="157"/>
		</contour>
	</outline>
</glyph>
<glyph name="uni4E6A" format="2">
	<advance width="1000" height="1000"/>
	<unicode hex="4E6A"/>
	<note>
		cid09622
	</note>
	<outline>
		<contour>
			<point x="364" y="753" type="line"/>
			<point x="63" y="753" type="line"/>
			<point x="63" y="723" type="line"/>
			<point x="364" y="723" type="line"/>
		</contour>
		<contour>
			<point x="359" y="753" type="line"/>
			<point x="354" y="753" type="line"/>
			<point x="80" y="159"/>
			<point x="67" y="95"/>
			<point x="67" y="44" type="curve" smooth="yes"/>
			<point x="67" y="-13"/>
			<point x="113" y="-44"/>
			<point x="200" y="-44" type="curve" smooth="yes"/>
			<point x="805" y="-44" type="line" smooth="yes"/>
			<point x="904" y="-44"/>
			<point x="923" y="-8"/>
			<point x="933" y="146" type="curve"/>
			<point x="923" y="148"/>
			<point x="911" y="151"/>
			<point x="902" y="157" type="curve"/>
			<point x="896" y="16"/>
			<point x="881" y="-16"/>
			<point x="808" y="-16" type="curve" smooth="yes"/>
			<point x="193" y="-15" type="line" smooth="yes"/>
			<point x="137" y="-15"/>
			<point x="97" y="3"/>
			<point x="97" y="44" type="curve" smooth="yes"/>
			<point x="97" y="89"/>
			<point x="112" y="149"/>
			<point x="381" y="737" type="curve"/>
			<point x="382" y="741"/>
			<point x="384" y="745"/>
			<point x="385" y="749" type="curve"/>
			<point x="367" y="754" type="line"/>
		</contour>
		<contour>
			<point x="661" y="750" type="line"/>
			<point x="631" y="750" type="line"/>
			<point x="631" y="149" type="line"/>
			<point x="661" y="149" type="line"/>
		</contour>
		<contour>
			<point x="863" y="764" type="line"/>
			<point x="433" y="764" type="line"/>
			<point x="433" y="136" type="line"/>
			<point x="863" y="136" type="line"/>
		</contour>
		<contour>
			<point x="463" y="165" type="line"/>
			<point x="463" y="734" type="line"/>
			<point x="833" y="734" type="line"/>
			<point x="833" y="165" type="line"/>
		</contour>
		<contour>
			<point x="842" y="469" type="line"/>
			<point x="449" y="469" type="line"/>
			<point x="449" y="440" type="line"/>
			<point x="842" y="440" type="line"/>
		</contour>
	</outline>
</glyph>
<glyph name="uni4EC5" format="2">
	<advance width="1000" height="1000"/>
	<unicode hex="4EC5"/>
	<note>
		cid09762
	</note>
	<outline>
		<contour>
			<point x="874" y="715" type="line"/>
			<point x="363" y="715" type="line"/>
			<point x="363" y="686" type="line"/>
			<point x="874" y="686" type="line"/>
		</contour>
		<contour>
			<point x="444" y="671" type="curve"/>
			<point x="416" y="665" type="line"/>
			<point x="490" y="346"/>
			<point x="640" y="52"/>
			<point x="938" y="-70" type="curve"/>
			<point x="943" y="-61"/>
			<point x="952" y="-50"/>
			<point x="959" y="-44" type="curve"/>
			<point x="661" y="70"/>
			<point x="515" y="364"/>
		</contour>
		<contour>
			<point x="865" y="715" type="line"/>
			<point x="860" y="715" type="line"/>
			<point x="860" y="708" type="line"/>
			<point x="782" y="301"/>
			<point x="540" y="50"/>
			<point x="303" y="-45" type="curve"/>
			<point x="309" y="-51"/>
			<point x="318" y="-63"/>
			<point x="322" y="-71" type="curve"/>
			<point x="564" y="32"/>
			<point x="807" y="284"/>
			<point x="890" y="710" type="curve"/>
			<point x="871" y="717" type="line"/>
		</contour>
		<contour>
			<point x="234" y="610" type="line"/>
			<point x="205" y="580" type="line"/>
			<point x="205" y="-69" type="line"/>
			<point x="234" y="-69" type="line"/>
			<point x="234" y="609" type="line"/>
		</contour>
		<contour>
			<point x="351" y="815" type="curve"/>
			<point x="322" y="823" type="line"/>
			<point x="257" y="657"/>
			<point x="151" y="497"/>
			<point x="37" y="393" type="curve"/>
			<point x="44" y="387"/>
			<point x="55" y="375"/>
			<point x="59" y="369" type="curve"/>
			<point x="174" y="480"/>
			<point x="280" y="643"/>
		</contour>
	</outline>
</glyph>
<glyph name="uni4F18" format="2">
	<advance width="1000" height="1000"/>
	<unicode hex="4F18"/>
	<note>
		cid09885
	</note>
	<outline>
		<contour>
			<point x="625" y="29" type="curve" smooth="yes"/>
			<point x="625" y="457" type="line"/>
			<point x="596" y="457" type="line"/>
			<point x="596" y="29" type="line" smooth="yes"/>
			<point x="596" y="-26"/>
			<point x="615" y="-38"/>
			<point x="685" y="-38" type="curve" smooth="yes"/>
			<point x="704" y="-38"/>
			<point x="847" y="-38"/>
			<point x="867" y="-38" type="curve" smooth="yes"/>
			<point x="936" y="-38"/>
			<point x="946" y="-3"/>
			<point x="951" y="131" type="curve"/>
			<point x="942" y="134"/>
			<point x="931" y="139"/>
			<point x="922" y="145" type="curve"/>
			<point x="918" y="15"/>
			<point x="911" y="-9"/>
			<point x="867" y="-9" type="curve" smooth="yes"/>
			<point x="847" y="-9"/>
			<point x="703" y="-9"/>
			<point x="683" y="-9" type="curve" smooth="yes"/>
			<point x="635" y="-9"/>
			<point x="625" y="-1"/>
		</contour>
		<contour>
			<point x="939" y="585" type="line"/>
			<point x="303" y="585" type="line"/>
			<point x="303" y="556" type="line"/>
			<point x="939" y="556" type="line"/>
		</contour>
		<contour>
			<point x="617" y="720" type="curve" smooth="yes"/>
			<point x="617" y="820" type="line"/>
			<point x="588" y="820" type="line"/>
			<point x="588" y="720" type="line" smooth="yes"/>
			<point x="588" y="282"/>
			<point x="513" y="68"/>
			<point x="283" y="-53" type="curve"/>
			<point x="289" y="-57"/>
			<point x="298" y="-64"/>
			<point x="303" y="-69" type="curve"/>
			<point x="535" y="52"/>
			<point x="617" y="269"/>
		</contour>
		<contour>
			<point x="743" y="804" type="curve"/>
			<point x="722" y="789" type="line"/>
			<point x="781" y="748"/>
			<point x="848" y="688"/>
			<point x="880" y="648" type="curve"/>
			<point x="901" y="664" type="line"/>
			<point x="869" y="706"/>
			<point x="802" y="764"/>
		</contour>
		<contour>
			<point x="311" y="814" type="curve"/>
			<point x="283" y="821" type="line"/>
			<point x="226" y="657"/>
			<point x="133" y="491"/>
			<point x="42" y="391" type="curve"/>
			<point x="50" y="386"/>
			<point x="62" y="376"/>
			<point x="67" y="371" type="curve"/>
			<point x="156" y="475"/>
			<point x="250" y="646"/>
		</contour>
		<contour>
			<point x="217" y="618" type="line"/>
			<point x="190" y="590" type="line"/>
			<point x="190" y="-70" type="line"/>
			<point x="219" y="-70" type="line"/>
			<point x="219" y="617" type="line"/>
		</contour>
	</outline>
</glyph>
<glyph name="uni4F41" format="2">
	<advance width="1000" height="1000"/>
	<unicode hex="4F41"/>
	<note>
		cid09940
	</note>
	<outline>
		<contour>
			<point x="320" y="819" type="curve"/>
			<point x="291" y="827" type="line"/>
			<point x="234" y="667"/>
			<point x="142" y="509"/>
			<point x="43" y="405" type="curve"/>
			<point x="50" y="399"/>
			<point x="61" y="387"/>
			<point x="65" y="381" type="curve"/>
			<point x="166" y="492"/>
			<point x="258" y="651"/>
		</contour>
		<contour>
			<point x="207" y="616" type="line"/>
			<point x="180" y="588" type="line"/>
			<point x="180" y="-68" type="line"/>
			<point x="209" y="-68" type="line"/>
			<point x="209" y="615" type="line"/>
		</contour>
		<contour>
			<point x="849" y="4" type="line"/>
			<point x="407" y="4" type="line"/>
			<point x="407" y="-25" type="line"/>
			<point x="849" y="-25" type="line"/>
		</contour>
		<contour>
			<point x="864" y="316" type="line"/>
			<point x="390" y="316" type="line"/>
			<point x="390" y="-73" type="line"/>
			<point x="420" y="-73" type="line"/>
			<point x="420" y="286" type="line"/>
			<point x="834" y="286" type="line"/>
			<point x="834" y="-70" type="line"/>
			<point x="864" y="-70" type="line"/>
		</contour>
		<contour>
			<point x="303" y="459" type="curve"/>
			<point x="307" y="428" type="line"/>
			<point x="451" y="434"/>
			<point x="673" y="444"/>
			<point x="886" y="454" type="curve"/>
			<point x="887" y="481" type="line"/>
			<point x="668" y="472"/>
			<point x="442" y="463"/>
		</contour>
		<contour>
			<point x="733" y="669" type="curve"/>
			<point x="709" y="655" type="line"/>
			<point x="791" y="569"/>
			<point x="885" y="449"/>
			<point x="929" y="372" type="curve"/>
			<point x="955" y="388" type="line"/>
			<point x="913" y="464"/>
			<point x="818" y="582"/>
		</contour>
		<contour>
			<point x="587" y="820" type="curve"/>
			<point x="556" y="831" type="line"/>
			<point x="518" y="719"/>
			<point x="448" y="552"/>
			<point x="393" y="454" type="curve"/>
			<point x="420" y="443" type="line"/>
			<point x="475" y="542"/>
			<point x="541" y="703"/>
		</contour>
	</outline>
</glyph>
<glyph name="uni4F62" format="2">
	<advance width="1000" height="1000"/>
	<unicode hex="4F62"/>
	<note>
		cid09989
	</note>
	<outline>
		<contour>
			<point x="350" y="815" type="curve"/>
			<point x="322" y="823" type="line"/>
			<point x="260" y="660"/>
			<point x="152" y="497"/>
			<point x="41" y="402" type="curve"/>
			<point x="48" y="396"/>
			<point x="59" y="383"/>
			<point x="63" y="377" type="curve"/>
			<point x="177" y="483"/>
			<point x="288" y="652"/>
		</contour>
		<contour>
			<point x="232" y="606" type="line"/>
			<point x="205" y="578" type="line"/>
			<point x="205" y="-69" type="line"/>
			<point x="234" y="-69" type="line"/>
			<point x="234" y="605" type="line"/>
		</contour>
		<contour>
			<point x="903" y="529" type="line"/>
			<point x="436" y="529" type="line"/>
			<point x="436" y="500" type="line"/>
			<point x="874" y="500" type="line"/>
			<point x="874" y="267" type="line"/>
			<point x="436" y="267" type="line"/>
			<point x="436" y="238" type="line"/>
			<point x="903" y="238" type="line"/>
		</contour>
		<contour>
			<point x="932" y="768" type="line"/>
			<point x="421" y="768" type="line"/>
			<point x="421" y="-69" type="line"/>
			<point x="450" y="-69" type="line"/>
			<point x="450" y="739" type="line"/>
			<point x="932" y="739" type="line"/>
		</contour>
		<contour>
			<point x="951" y="27" type="line"/>
			<point x="436" y="27" type="line"/>
			<point x="436" y="-2" type="line"/>
			<point x="951" y="-2" type="line"/>
		</contour>
	</outline>
</glyph>
<glyph name="uni4FD6" format="2">
	<advance width="1000" height="1000"/>
	<unicode hex="4FD6"/>
	<note>
		cid10176
	</note>
	<outline>
		<contour>
			<point x="934" y="742" type="line"/>
			<point x="329" y="742" type="line"/>
			<point x="329" y="713" type="line"/>
			<point x="934" y="713" type="line"/>
		</contour>
		<contour>
			<point x="318" y="816" type="curve"/>
			<point x="290" y="822" type="line"/>
			<point x="235" y="658"/>
			<point x="145" y="502"/>
			<point x="42" y="400" type="curve"/>
			<point x="49" y="395"/>
			<point x="60" y="382"/>
			<point x="64" y="377" type="curve"/>
			<point x="168" y="485"/>
			<point x="259" y="644"/>
		</contour>
		<contour>
			<point x="224" y="621" type="line"/>
			<point x="196" y="591" type="line"/>
			<point x="196" y="-71" type="line"/>
			<point x="225" y="-71" type="line"/>
			<point x="225" y="619" type="line"/>
		</contour>
		<contour>
			<point x="726" y="726" type="curve"/>
			<point x="698" y="738" type="line"/>
			<point x="604" y="608"/>
			<point x="443" y="495"/>
			<point x="289" y="426" type="curve"/>
			<point x="297" y="420"/>
			<point x="308" y="407"/>
			<point x="312" y="400" type="curve"/>
			<point x="465" y="475"/>
			<point x="625" y="590"/>
		</contour>
		<contour>
			<point x="618" y="633" type="line"/>
			<point x="599" y="614" type="line"/>
			<point x="599" y="322" type="line"/>
			<point x="628" y="322" type="line"/>
			<point x="628" y="628" type="line"/>
		</contour>
		<contour>
			<point x="860" y="16" type="line"/>
			<point x="414" y="16" type="line"/>
			<point x="414" y="-13" type="line"/>
			<point x="860" y="-13" type="line"/>
		</contour>
		<contour>
			<point x="871" y="301" type="line"/>
			<point x="395" y="301" type="line"/>
			<point x="395" y="-71" type="line"/>
			<point x="424" y="-71" type="line"/>
			<point x="424" y="272" type="line"/>
			<point x="842" y="272" type="line"/>
			<point x="842" y="-68" type="line"/>
			<point x="871" y="-68" type="line"/>
		</contour>
		<contour>
			<point x="715" y="598" type="curve"/>
			<point x="699" y="578" type="line"/>
			<point x="785" y="531"/>
			<point x="886" y="459"/>
			<point x="937" y="408" type="curve"/>
			<point x="952" y="432" type="line"/>
			<point x="903" y="481"/>
			<point x="802" y="551"/>
		</contour>
	</outline>
</glyph>
<glyph name="uni4FF7" format="2">
	<advance width="1000" height="1000"/>
	<unicode hex="4FF7"/>
	<note>
		cid10225
	</note>
	<outline>
		<contour>
			<point x="276" y="816" type="curve"/>
			<point x="247" y="822" type="line"/>
			<point x="200" y="664"/>
			<point x="124" y="508"/>
			<point x="36" y="404" type="curve"/>
			<point x="43" y="399"/>
			<point x="54" y="386"/>
			<point x="58" y="380" type="curve"/>
			<point x="146" y="491"/>
			<point x="225" y="650"/>
		</contour>
		<contour>
			<point x="200" y="643" type="line"/>
			<point x="172" y="615" type="line"/>
			<point x="172" y="-70" type="line"/>
			<point x="201" y="-70" type="line"/>
			<point x="201" y="641" type="line"/>
		</contour>
		<contour>
			<point x="510" y="775" type="line"/>
			<point x="341" y="775" type="line"/>
			<point x="341" y="746" type="line"/>
			<point x="510" y="746" type="line"/>
		</contour>
		<contour>
			<point x="352" y="427" type="curve" smooth="yes"/>
			<point x="352" y="775" type="line"/>
			<point x="323" y="775" type="line"/>
			<point x="323" y="427" type="line" smooth="yes"/>
			<point x="323" y="284"/>
			<point x="318" y="87"/>
			<point x="260" y="-56" type="curve"/>
			<point x="268" y="-58"/>
			<point x="280" y="-65"/>
			<point x="285" y="-70" type="curve"/>
			<point x="344" y="75"/>
			<point x="352" y="281"/>
		</contour>
		<contour>
			<point x="526" y="-25" type="curve" smooth="yes"/>
			<point x="526" y="775" type="line"/>
			<point x="497" y="775" type="line"/>
			<point x="497" y="-25" type="line" smooth="yes"/>
			<point x="497" y="-38"/>
			<point x="492" y="-41"/>
			<point x="481" y="-42" type="curve" smooth="yes"/>
			<point x="471" y="-42"/>
			<point x="434" y="-43"/>
			<point x="389" y="-42" type="curve"/>
			<point x="394" y="-50"/>
			<point x="400" y="-63"/>
			<point x="402" y="-70" type="curve"/>
			<point x="456" y="-70"/>
			<point x="485" y="-70"/>
			<point x="503" y="-65" type="curve" smooth="yes"/>
			<point x="520" y="-60"/>
			<point x="526" y="-49"/>
		</contour>
		<contour>
			<point x="917" y="766" type="line"/>
			<point x="614" y="766" type="line"/>
			<point x="614" y="736" type="line"/>
			<point x="887" y="736" type="line"/>
			<point x="887" y="299" type="line"/>
			<point x="917" y="299" type="line"/>
		</contour>
		<contour>
			<point x="631" y="21" type="curve" smooth="yes"/>
			<point x="631" y="766" type="line"/>
			<point x="602" y="766" type="line"/>
			<point x="602" y="22" type="line" smooth="yes"/>
			<point x="602" y="-46"/>
			<point x="622" y="-61"/>
			<point x="690" y="-61" type="curve" smooth="yes"/>
			<point x="705" y="-61"/>
			<point x="845" y="-61"/>
			<point x="862" y="-61" type="curve" smooth="yes"/>
			<point x="932" y="-61"/>
			<point x="941" y="-17"/>
			<point x="946" y="126" type="curve"/>
			<point x="937" y="129"/>
			<point x="926" y="133"/>
			<point x="917" y="140" type="curve"/>
			<point x="913" y="1"/>
			<point x="907" y="-33"/>
			<point x="863" y="-33" type="curve" smooth="yes"/>
			<point x="832" y="-33"/>
			<point x="711" y="-33"/>
			<point x="688" y="-33" type="curve" smooth="yes"/>
			<point x="641" y="-33"/>
			<point x="631" y="-22"/>
		</contour>
		<contour>
			<point x="901" y="387" type="line"/>
			<point x="618" y="387" type="line"/>
			<point x="618" y="358" type="line"/>
			<point x="901" y="358" type="line"/>
		</contour>
		<contour>
			<point x="775" y="749" type="line"/>
			<point x="746" y="749" type="line"/>
			<point x="746" y="370" type="line"/>
			<point x="775" y="370" type="line"/>
		</contour>
		<contour>
			<point x="510" y="543" type="line"/>
			<point x="341" y="543" type="line"/>
			<point x="341" y="514" type="line"/>
			<point x="510" y="514" type="line"/>
		</contour>
		<contour>
			<point x="510" y="311" type="line"/>
			<point x="341" y="311" type="line"/>
			<point x="341" y="282" type="line"/>
			<point x="510" y="282" type="line"/>
		</contour>
	</outline>
</glyph>
<glyph name="uni505D" format="2">
	<advance width="1000" height="1000"/>
	<unicode hex="505D"/>
	<note>
		cid10408
	</note>
	<outline>
		<contour>
			<point x="524" y="718" type="line"/>
			<point x="316" y="718" type="line"/>
			<point x="316" y="689" type="line"/>
			<point x="524" y="689" type="line"/>
		</contour>
		<contour>
			<point x="304" y="519" type="curve"/>
			<point x="314" y="490" type="line"/>
			<point x="383" y="507"/>
			<point x="465" y="528"/>
			<point x="529" y="545" type="curve"/>
			<point x="526" y="571" type="line"/>
			<point x="459" y="554"/>
			<point x="375" y="534"/>
		</contour>
		<contour>
			<point x="540" y="831" type="line"/>
			<point x="511" y="831" type="line"/>
			<point x="511" y="482" type="line"/>
			<point x="540" y="482" type="line"/>
		</contour>
		<contour>
			<point x="707" y="540" type="curve" smooth="yes"/>
			<point x="707" y="831" type="line"/>
			<point x="678" y="831" type="line"/>
			<point x="678" y="540" type="line" smooth="yes"/>
			<point x="678" y="495"/>
			<point x="693" y="486"/>
			<point x="751" y="486" type="curve" smooth="yes"/>
			<point x="763" y="486"/>
			<point x="878" y="486"/>
			<point x="891" y="486" type="curve" smooth="yes"/>
			<point x="938" y="486"/>
			<point x="948" y="507"/>
			<point x="952" y="592" type="curve"/>
			<point x="943" y="595"/>
			<point x="931" y="599"/>
			<point x="923" y="605" type="curve"/>
			<point x="921" y="525"/>
			<point x="917" y="515"/>
			<point x="888" y="515" type="curve" smooth="yes"/>
			<point x="865" y="515"/>
			<point x="767" y="515"/>
			<point x="750" y="515" type="curve" smooth="yes"/>
			<point x="713" y="515"/>
			<point x="707" y="519"/>
		</contour>
		<contour>
			<point x="845" y="-29" type="curve" smooth="yes"/>
			<point x="845" y="415" type="line"/>
			<point x="816" y="415" type="line"/>
			<point x="816" y="-30" type="line" smooth="yes"/>
			<point x="816" y="-42"/>
			<point x="812" y="-46"/>
			<point x="798" y="-46" type="curve" smooth="yes"/>
			<point x="785" y="-47"/>
			<point x="741" y="-47"/>
			<point x="686" y="-46" type="curve"/>
			<point x="691" y="-54"/>
			<point x="695" y="-65"/>
			<point x="697" y="-72" type="curve"/>
			<point x="766" y="-73"/>
			<point x="802" y="-73"/>
			<point x="821" y="-67" type="curve" smooth="yes"/>
			<point x="840" y="-61"/>
			<point x="845" y="-52"/>
		</contour>
		<contour>
			<point x="305" y="814" type="curve"/>
			<point x="277" y="822" type="line"/>
			<point x="222" y="672"/>
			<point x="134" y="525"/>
			<point x="40" y="428" type="curve"/>
			<point x="47" y="423"/>
			<point x="57" y="410"/>
			<point x="61" y="404" type="curve"/>
			<point x="156" y="506"/>
			<point x="250" y="664"/>
		</contour>
		<contour>
			<point x="207" y="636" type="line"/>
			<point x="180" y="608" type="line"/>
			<point x="180" y="-71" type="line"/>
			<point x="209" y="-71" type="line"/>
			<point x="209" y="635" type="line"/>
		</contour>
		<contour>
			<point x="831" y="415" type="line"/>
			<point x="421" y="415" type="line"/>
			<point x="421" y="386" type="line"/>
			<point x="831" y="386" type="line"/>
		</contour>
		<contour>
			<point x="436" y="415" type="line"/>
			<point x="407" y="415" type="line"/>
			<point x="407" y="-73" type="line"/>
			<point x="436" y="-73" type="line"/>
		</contour>
		<contour>
			<point x="831" y="275" type="line"/>
			<point x="421" y="275" type="line"/>
			<point x="421" y="246" type="line"/>
			<point x="831" y="246" type="line"/>
		</contour>
		<contour>
			<point x="831" y="132" type="line"/>
			<point x="421" y="132" type="line"/>
			<point x="421" y="103" type="line"/>
			<point x="831" y="103" type="line"/>
		</contour>
		<contour>
			<point x="927" y="743" type="curve"/>
			<point x="901" y="767" type="line"/>
			<point x="860" y="740"/>
			<point x="779" y="705"/>
			<point x="684" y="674" type="curve"/>
			<point x="689" y="668"/>
			<point x="695" y="656"/>
			<point x="697" y="650" type="curve"/>
			<point x="794" y="680"/>
			<point x="883" y="716"/>
		</contour>
	</outline>
</glyph>
<glyph name="uni507B" format="2">
	<advance width="1000" height="1000"/>
	<unicode hex="507B"/>
	<note>
		cid10460
	</note>
	<outline>
		<contour>
			<point x="321" y="813" type="curve"/>
			<point x="293" y="821" type="line"/>
			<point x="235" y="656"/>
			<point x="142" y="497"/>
			<point x="40" y="391" type="curve"/>
			<point x="47" y="385"/>
			<point x="58" y="373"/>
			<point x="62" y="367" type="curve"/>
			<point x="162" y="476"/>
			<point x="262" y="648"/>
		</contour>
		<contour>
			<point x="217" y="614" type="line"/>
			<point x="190" y="586" type="line"/>
			<point x="190" y="-70" type="line"/>
			<point x="219" y="-70" type="line"/>
			<point x="219" y="613" type="line"/>
		</contour>
		<contour>
			<point x="941" y="621" type="line"/>
			<point x="328" y="621" type="line"/>
			<point x="328" y="591" type="line"/>
			<point x="941" y="591" type="line"/>
		</contour>
		<contour>
			<point x="869" y="801" type="curve"/>
			<point x="841" y="817" type="line"/>
			<point x="815" y="771"/>
			<point x="767" y="705"/>
			<point x="730" y="665" type="curve"/>
			<point x="754" y="650" type="line"/>
			<point x="791" y="690"/>
			<point x="836" y="749"/>
		</contour>
		<contour>
			<point x="645" y="831" type="line"/>
			<point x="616" y="831" type="line"/>
			<point x="616" y="376" type="line"/>
			<point x="645" y="376" type="line"/>
		</contour>
		<contour>
			<point x="427" y="806" type="curve"/>
			<point x="402" y="793" type="line"/>
			<point x="439" y="751"/>
			<point x="477" y="693"/>
			<point x="493" y="655" type="curve"/>
			<point x="519" y="670" type="line"/>
			<point x="503" y="708"/>
			<point x="464" y="765"/>
		</contour>
		<contour>
			<point x="625" y="599" type="curve"/>
			<point x="602" y="613" type="line"/>
			<point x="547" y="522"/>
			<point x="434" y="429"/>
			<point x="330" y="389" type="curve"/>
			<point x="338" y="383"/>
			<point x="346" y="373"/>
			<point x="350" y="364" type="curve"/>
			<point x="455" y="411"/>
			<point x="568" y="506"/>
		</contour>
		<contour>
			<point x="662" y="606" type="curve"/>
			<point x="638" y="593" type="line"/>
			<point x="705" y="511"/>
			<point x="832" y="421"/>
			<point x="929" y="378" type="curve"/>
			<point x="935" y="386"/>
			<point x="944" y="397"/>
			<point x="952" y="403" type="curve"/>
			<point x="852" y="440"/>
			<point x="725" y="526"/>
		</contour>
		<contour>
			<point x="457" y="140" type="curve"/>
			<point x="441" y="119" type="line"/>
			<point x="621" y="66"/>
			<point x="799" y="-6"/>
			<point x="901" y="-69" type="curve"/>
			<point x="921" y="-46" type="line"/>
			<point x="818" y="18"/>
			<point x="639" y="90"/>
		</contour>
		<contour>
			<point x="600" y="366" type="curve"/>
			<point x="571" y="374" type="line"/>
			<point x="522" y="281"/>
			<point x="459" y="171"/>
			<point x="407" y="89" type="curve"/>
			<point x="437" y="81" type="line"/>
			<point x="488" y="161"/>
			<point x="550" y="271"/>
		</contour>
		<contour>
			<point x="952" y="285" type="line"/>
			<point x="307" y="285" type="line"/>
			<point x="307" y="256" type="line"/>
			<point x="952" y="256" type="line"/>
		</contour>
		<contour>
			<point x="815" y="265" type="curve"/>
			<point x="784" y="275" type="line"/>
			<point x="740" y="88"/>
			<point x="602" y="-8"/>
			<point x="331" y="-40" type="curve"/>
			<point x="338" y="-49"/>
			<point x="345" y="-61"/>
			<point x="348" y="-69" type="curve"/>
			<point x="629" y="-29"/>
			<point x="771" y="73"/>
		</contour>
	</outline>
</glyph>
<glyph name="uni5087" format="2">
	<advance width="1000" height="1000"/>
	<unicode hex="5087"/>
	<note>
		cid10479
	</note>
	<outline>
		<contour>
			<point x="305" y="814" type="curve"/>
			<point x="277" y="822" type="line"/>
			<point x="222" y="672"/>
			<point x="134" y="525"/>
			<point x="40" y="428" type="curve"/>
			<point x="47" y="423"/>
			<point x="57" y="411"/>
			<point x="61" y="405" type="curve"/>
			<point x="155" y="505"/>
			<point x="249" y="663"/>
		</contour>
		<contour>
			<point x="204" y="627" type="line"/>
			<point x="180" y="603" type="line"/>
			<point x="180" y="-70" type="line"/>
			<point x="209" y="-70" type="line"/>
			<point x="209" y="625" type="line"/>
		</contour>
		<contour>
			<point x="938" y="545" type="line"/>
			<point x="320" y="545" type="line"/>
			<point x="320" y="516" type="line"/>
			<point x="938" y="516" type="line"/>
		</contour>
		<contour>
			<point x="521" y="831" type="line"/>
			<point x="492" y="831" type="line"/>
			<point x="492" y="593" type="line"/>
			<point x="521" y="593" type="line"/>
		</contour>
		<contour>
			<point x="790" y="831" type="line"/>
			<point x="761" y="831" type="line"/>
			<point x="761" y="593" type="line"/>
			<point x="790" y="593" type="line"/>
		</contour>
		<contour>
			<point x="937" y="721" type="line"/>
			<point x="324" y="721" type="line"/>
			<point x="324" y="692" type="line"/>
			<point x="937" y="692" type="line"/>
		</contour>
		<contour>
			<point x="815" y="394" type="line"/>
			<point x="449" y="394" type="line"/>
			<point x="449" y="365" type="line"/>
			<point x="815" y="365" type="line"/>
		</contour>
		<contour>
			<point x="815" y="241" type="line"/>
			<point x="449" y="241" type="line"/>
			<point x="449" y="212" type="line"/>
			<point x="815" y="212" type="line"/>
		</contour>
		<contour>
			<point x="464" y="532" type="line"/>
			<point x="435" y="532" type="line"/>
			<point x="435" y="63" type="line"/>
			<point x="464" y="63" type="line"/>
		</contour>
		<contour>
			<point x="829" y="532" type="line"/>
			<point x="800" y="532" type="line"/>
			<point x="800" y="-71" type="line"/>
			<point x="829" y="-71" type="line"/>
		</contour>
		<contour>
			<point x="310" y="69" type="curve"/>
			<point x="314" y="39" type="line"/>
			<point x="525" y="55"/>
			<point x="736" y="72"/>
			<point x="947" y="90" type="curve"/>
			<point x="947" y="117" type="line"/>
			<point x="735" y="100"/>
			<point x="522" y="84"/>
		</contour>
	</outline>
</glyph>
<glyph name="uni50B3" format="2">
	<advance width="1000" height="1000"/>
	<unicode hex="50B3"/>
	<note>
		cid10569
	</note>
	<outline>
		<contour>
			<point x="383" y="412" type="line"/>
			<point x="383" y="497" type="line"/>
			<point x="861" y="497" type="line"/>
			<point x="861" y="412" type="line"/>
		</contour>
		<contour>
			<point x="383" y="526" type="line"/>
			<point x="383" y="610" type="line"/>
			<point x="861" y="610" type="line"/>
			<point x="861" y="526" type="line"/>
		</contour>
		<contour>
			<point x="890" y="639" type="line"/>
			<point x="354" y="639" type="line"/>
			<point x="354" y="382" type="line"/>
			<point x="890" y="382" type="line"/>
		</contour>
		<contour>
			<point x="298" y="295" type="curve"/>
			<point x="302" y="264" type="line"/>
			<point x="475" y="268"/>
			<point x="696" y="274"/>
			<point x="877" y="280" type="curve"/>
			<point x="879" y="307" type="line"/>
			<point x="693" y="302"/>
			<point x="469" y="297"/>
		</contour>
		<contour>
			<point x="772" y="384" type="curve"/>
			<point x="750" y="368" type="line"/>
			<point x="815" y="327"/>
			<point x="891" y="268"/>
			<point x="928" y="228" type="curve"/>
			<point x="952" y="248" type="line"/>
			<point x="914" y="288"/>
			<point x="837" y="346"/>
		</contour>
		<contour>
			<point x="633" y="823" type="line"/>
			<point x="604" y="823" type="line"/>
			<point x="604" y="288" type="line"/>
			<point x="633" y="289" type="line"/>
		</contour>
		<contour>
			<point x="952" y="190" type="line"/>
			<point x="280" y="190" type="line"/>
			<point x="280" y="161" type="line"/>
			<point x="952" y="161" type="line"/>
		</contour>
		<contour>
			<point x="796" y="-22" type="curve" smooth="yes"/>
			<point x="796" y="288" type="line"/>
			<point x="767" y="288" type="line"/>
			<point x="767" y="-22" type="line" smooth="yes"/>
			<point x="767" y="-36"/>
			<point x="764" y="-40"/>
			<point x="747" y="-41" type="curve" smooth="yes"/>
			<point x="728" y="-43"/>
			<point x="677" y="-43"/>
			<point x="601" y="-41" type="curve"/>
			<point x="606" y="-51"/>
			<point x="612" y="-62"/>
			<point x="614" y="-70" type="curve"/>
			<point x="695" y="-70"/>
			<point x="743" y="-71"/>
			<point x="767" y="-65" type="curve" smooth="yes"/>
			<point x="789" y="-60"/>
			<point x="796" y="-49"/>
		</contour>
		<contour>
			<point x="427" y="138" type="curve"/>
			<point x="405" y="122" type="line"/>
			<point x="455" y="82"/>
			<point x="511" y="25"/>
			<point x="538" y="-13" type="curve"/>
			<point x="561" y="8" type="line"/>
			<point x="533" y="44"/>
			<point x="476" y="100"/>
		</contour>
		<contour>
			<point x="940" y="744" type="line"/>
			<point x="313" y="744" type="line"/>
			<point x="313" y="715" type="line"/>
			<point x="940" y="715" type="line"/>
		</contour>
		<contour>
			<point x="320" y="819" type="curve"/>
			<point x="291" y="827" type="line"/>
			<point x="230" y="666"/>
			<point x="130" y="508"/>
			<point x="23" y="405" type="curve"/>
			<point x="30" y="400"/>
			<point x="40" y="387"/>
			<point x="44" y="381" type="curve"/>
			<point x="152" y="491"/>
			<point x="253" y="650"/>
		</contour>
		<contour>
			<point x="207" y="616" type="line"/>
			<point x="180" y="588" type="line"/>
			<point x="180" y="-68" type="line"/>
			<point x="209" y="-68" type="line"/>
			<point x="209" y="615" type="line"/>
		</contour>
	</outline>
</glyph>
<glyph name="uni50BC" format="2">
	<advance width="1000" height="1000"/>
	<unicode hex="50BC"/>
	<note>
		cid10586
	</note>
	<outline>
		<contour>
			<point x="292" y="816" type="curve"/>
			<point x="264" y="822" type="line"/>
			<point x="213" y="661"/>
			<point x="132" y="502"/>
			<point x="39" y="396" type="curve"/>
			<point x="47" y="390"/>
			<point x="58" y="378"/>
			<point x="62" y="373" type="curve"/>
			<point x="154" y="485"/>
			<point x="237" y="646"/>
		</contour>
		<contour>
			<point x="199" y="619" type="line"/>
			<point x="175" y="594" type="line"/>
			<point x="175" y="-70" type="line"/>
			<point x="204" y="-70" type="line"/>
			<point x="204" y="617" type="line"/>
		</contour>
		<contour>
			<point x="939" y="740" type="line"/>
			<point x="299" y="740" type="line"/>
			<point x="299" y="711" type="line"/>
			<point x="939" y="711" type="line"/>
		</contour>
		<contour>
			<point x="898" y="267" type="line"/>
			<point x="332" y="267" type="line"/>
			<point x="332" y="237" type="line"/>
			<point x="898" y="237" type="line"/>
		</contour>
		<contour>
			<point x="925" y="154" type="line"/>
			<point x="294" y="154" type="line"/>
			<point x="294" y="125" type="line"/>
			<point x="925" y="125" type="line"/>
		</contour>
		<contour>
			<point x="481" y="828" type="line"/>
			<point x="452" y="828" type="line"/>
			<point x="452" y="585" type="line"/>
			<point x="785" y="585" type="line"/>
			<point x="785" y="828" type="line"/>
			<point x="756" y="828" type="line"/>
			<point x="756" y="615" type="line"/>
			<point x="481" y="615" type="line"/>
		</contour>
		<contour>
			<point x="381" y="371" type="line"/>
			<point x="381" y="495" type="line"/>
			<point x="850" y="495" type="line"/>
			<point x="850" y="371" type="line"/>
		</contour>
		<contour>
			<point x="879" y="524" type="line"/>
			<point x="352" y="524" type="line"/>
			<point x="352" y="341" type="line"/>
			<point x="879" y="341" type="line"/>
		</contour>
		<contour>
			<point x="629" y="267" type="curve" smooth="yes"/>
			<point x="629" y="603" type="line"/>
			<point x="599" y="603" type="line"/>
			<point x="599" y="267" type="line" smooth="yes"/>
			<point x="599" y="118"/>
			<point x="561" y="15"/>
			<point x="290" y="-45" type="curve"/>
			<point x="297" y="-51"/>
			<point x="306" y="-62"/>
			<point x="309" y="-69" type="curve"/>
			<point x="586" y="-7"/>
			<point x="629" y="104"/>
		</contour>
		<contour>
			<point x="642" y="139" type="curve"/>
			<point x="615" y="130" type="line"/>
			<point x="663" y="28"/>
			<point x="776" y="-44"/>
			<point x="929" y="-72" type="curve"/>
			<point x="933" y="-62"/>
			<point x="942" y="-50"/>
			<point x="950" y="-44" type="curve"/>
			<point x="801" y="-23"/>
			<point x="690" y="43"/>
		</contour>
	</outline>
</glyph>
<glyph name="uni50C1" format="2">
	<advance width="1000" height="1000"/>
	<unicode hex="50C1"/>
	<note>
		cid10594
	</note>
	<outline>
		<contour>
			<point x="297" y="815" type="curve"/>
			<point x="269" y="822" type="line"/>
			<point x="217" y="659"/>
			<point x="134" y="498"/>
			<point x="41" y="392" type="curve"/>
			<point x="48" y="386"/>
			<point x="58" y="375"/>
			<point x="63" y="368" type="curve"/>
			<point x="157" y="482"/>
			<point x="241" y="644"/>
		</contour>
		<contour>
			<point x="204" y="613" type="line"/>
			<point x="175" y="583" type="line"/>
			<point x="175" y="-69" type="line"/>
			<point x="204" y="-69" type="line"/>
			<point x="204" y="612" type="line"/>
		</contour>
		<contour>
			<point x="938" y="558" type="line"/>
			<point x="293" y="558" type="line"/>
			<point x="293" y="529" type="line"/>
			<point x="938" y="529" type="line"/>
		</contour>
		<contour>
			<point x="628" y="758" type="line"/>
			<point x="599" y="758" type="line"/>
			<point x="599" y="317" type="line"/>
			<point x="628" y="317" type="line"/>
		</contour>
		<contour>
			<point x="899" y="783" type="curve"/>
			<point x="874" y="808" type="line"/>
			<point x="756" y="783"/>
			<point x="522" y="766"/>
			<point x="335" y="759" type="curve"/>
			<point x="339" y="751"/>
			<point x="343" y="740"/>
			<point x="344" y="732" type="curve"/>
			<point x="533" y="738"/>
			<point x="765" y="756"/>
		</contour>
		<contour>
			<point x="603" y="541" type="curve"/>
			<point x="576" y="554" type="line"/>
			<point x="510" y="452"/>
			<point x="381" y="346"/>
			<point x="278" y="298" type="curve"/>
			<point x="285" y="292"/>
			<point x="294" y="281"/>
			<point x="300" y="274" type="curve"/>
			<point x="403" y="327"/>
			<point x="533" y="435"/>
		</contour>
		<contour>
			<point x="840" y="711" type="curve"/>
			<point x="813" y="726" type="line"/>
			<point x="792" y="683"/>
			<point x="751" y="617"/>
			<point x="720" y="578" type="curve"/>
			<point x="743" y="566" type="line"/>
			<point x="774" y="603"/>
			<point x="812" y="662"/>
		</contour>
		<contour>
			<point x="423" y="713" type="curve"/>
			<point x="397" y="703" type="line"/>
			<point x="429" y="661"/>
			<point x="461" y="605"/>
			<point x="472" y="567" type="curve"/>
			<point x="498" y="577" type="line"/>
			<point x="487" y="616"/>
			<point x="456" y="671"/>
		</contour>
		<contour>
			<point x="400" y="192" type="curve"/>
			<point x="374" y="200" type="line"/>
			<point x="359" y="123"/>
			<point x="328" y="32"/>
			<point x="274" y="-18" type="curve"/>
			<point x="297" y="-37" type="line"/>
			<point x="354" y="17"/>
			<point x="385" y="112"/>
		</contour>
		<contour>
			<point x="511" y="-3" type="curve" smooth="yes"/>
			<point x="511" y="218" type="line"/>
			<point x="482" y="218" type="line"/>
			<point x="482" y="-3" type="line" smooth="yes"/>
			<point x="482" y="-49"/>
			<point x="500" y="-58"/>
			<point x="566" y="-58" type="curve" smooth="yes"/>
			<point x="739" y="-58" type="line" smooth="yes"/>
			<point x="797" y="-58"/>
			<point x="807" y="-35"/>
			<point x="812" y="67" type="curve"/>
			<point x="802" y="70"/>
			<point x="791" y="74"/>
			<point x="783" y="81" type="curve"/>
			<point x="780" y="-16"/>
			<point x="774" y="-29"/>
			<point x="736" y="-29" type="curve" smooth="yes"/>
			<point x="565" y="-29" type="line" smooth="yes"/>
			<point x="519" y="-29"/>
			<point x="511" y="-24"/>
		</contour>
		<contour>
			<point x="543" y="295" type="curve"/>
			<point x="522" y="274" type="line"/>
			<point x="585" y="244"/>
			<point x="659" y="195"/>
			<point x="697" y="159" type="curve"/>
			<point x="718" y="183" type="line"/>
			<point x="681" y="218"/>
			<point x="606" y="265"/>
		</contour>
		<contour>
			<point x="808" y="207" type="curve"/>
			<point x="784" y="194" type="line"/>
			<point x="844" y="127"/>
			<point x="905" y="34"/>
			<point x="929" y="-27" type="curve"/>
			<point x="954" y="-11" type="line"/>
			<point x="932" y="49"/>
			<point x="870" y="141"/>
		</contour>
		<contour>
			<point x="645" y="554" type="curve"/>
			<point x="621" y="541" type="line"/>
			<point x="695" y="440"/>
			<point x="816" y="342"/>
			<point x="934" y="287" type="curve"/>
			<point x="940" y="296"/>
			<point x="948" y="306"/>
			<point x="955" y="312" type="curve"/>
			<point x="839" y="361"/>
			<point x="719" y="455"/>
		</contour>
	</outline>
</glyph>
<glyph name="uni50D7" format="2">
	<advance width="1000" height="1000"/>
	<unicode hex="50D7"/>
	<note>
		cid10634
	</note>
	<outline>
		<contour>
			<point x="934" y="443" type="line"/>
			<point x="299" y="443" type="line"/>
			<point x="299" y="291" type="line"/>
			<point x="328" y="291" type="line"/>
			<point x="328" y="414" type="line"/>
			<point x="905" y="414" type="line"/>
			<point x="905" y="291" type="line"/>
			<point x="934" y="291" type="line"/>
		</contour>
		<contour>
			<point x="619" y="761" type="curve"/>
			<point x="591" y="775" type="line"/>
			<point x="574" y="743"/>
			<point x="543" y="692"/>
			<point x="520" y="661" type="curve"/>
			<point x="543" y="650" type="line"/>
			<point x="567" y="679"/>
			<point x="596" y="722"/>
		</contour>
		<contour>
			<point x="466" y="640" type="curve"/>
			<point x="443" y="624" type="line"/>
			<point x="496" y="584"/>
			<point x="549" y="540"/>
			<point x="581" y="510" type="curve"/>
			<point x="605" y="528" type="line"/>
			<point x="569" y="561"/>
			<point x="515" y="604"/>
		</contour>
		<contour>
			<point x="859" y="264" type="line"/>
			<point x="360" y="264" type="line"/>
			<point x="360" y="235" type="line"/>
			<point x="859" y="235" type="line"/>
		</contour>
		<contour>
			<point x="496" y="830" type="curve"/>
			<point x="467" y="830" type="line"/>
			<point x="460" y="642"/>
			<point x="432" y="548"/>
			<point x="293" y="495" type="curve"/>
			<point x="300" y="490"/>
			<point x="310" y="478"/>
			<point x="313" y="471" type="curve"/>
			<point x="442" y="526"/>
			<point x="489" y="605"/>
		</contour>
		<contour>
			<point x="874" y="264" type="curve"/>
			<point x="845" y="264" type="line"/>
			<point x="845" y="257" type="line"/>
			<point x="834" y="51"/>
			<point x="822" y="-14"/>
			<point x="804" y="-34" type="curve" smooth="yes"/>
			<point x="797" y="-42"/>
			<point x="788" y="-43"/>
			<point x="772" y="-43" type="curve" smooth="yes"/>
			<point x="756" y="-43"/>
			<point x="703" y="-42"/>
			<point x="649" y="-37" type="curve"/>
			<point x="655" y="-46"/>
			<point x="658" y="-57"/>
			<point x="659" y="-65" type="curve"/>
			<point x="707" y="-69"/>
			<point x="752" y="-69"/>
			<point x="777" y="-69" type="curve" smooth="yes"/>
			<point x="802" y="-69"/>
			<point x="816" y="-64"/>
			<point x="829" y="-52" type="curve" smooth="yes"/>
			<point x="852" y="-27"/>
			<point x="862" y="42"/>
			<point x="873" y="245" type="curve"/>
			<point x="874" y="252"/>
			<point x="874" y="263"/>
		</contour>
		<contour>
			<point x="627" y="376" type="curve"/>
			<point x="597" y="376" type="line"/>
			<point x="582" y="112"/>
			<point x="511" y="13"/>
			<point x="299" y="-45" type="curve"/>
			<point x="306" y="-51"/>
			<point x="315" y="-63"/>
			<point x="318" y="-70" type="curve"/>
			<point x="536" y="-8"/>
			<point x="611" y="102"/>
		</contour>
		<contour>
			<point x="945" y="763" type="curve"/>
			<point x="918" y="778" type="line"/>
			<point x="901" y="742"/>
			<point x="869" y="685"/>
			<point x="846" y="651" type="curve"/>
			<point x="868" y="639" type="line"/>
			<point x="892" y="671"/>
			<point x="921" y="720"/>
		</contour>
		<contour>
			<point x="777" y="635" type="curve"/>
			<point x="755" y="620" type="line"/>
			<point x="826" y="569"/>
			<point x="893" y="517"/>
			<point x="928" y="485" type="curve"/>
			<point x="950" y="507" type="line"/>
			<point x="910" y="541"/>
			<point x="844" y="590"/>
		</contour>
		<contour>
			<point x="811" y="830" type="curve"/>
			<point x="782" y="830" type="line"/>
			<point x="775" y="647"/>
			<point x="747" y="555"/>
			<point x="612" y="503" type="curve"/>
			<point x="618" y="498"/>
			<point x="628" y="487"/>
			<point x="632" y="480" type="curve"/>
			<point x="762" y="534"/>
			<point x="805" y="620"/>
		</contour>
		<contour>
			<point x="394" y="767" type="curve"/>
			<point x="368" y="775" type="line"/>
			<point x="360" y="728"/>
			<point x="342" y="675"/>
			<point x="313" y="646" type="curve"/>
			<point x="338" y="630" type="line"/>
			<point x="367" y="663"/>
			<point x="384" y="718"/>
		</contour>
		<contour>
			<point x="703" y="767" type="curve"/>
			<point x="678" y="775" type="line"/>
			<point x="671" y="730"/>
			<point x="655" y="678"/>
			<point x="631" y="650" type="curve"/>
			<point x="656" y="634" type="line"/>
			<point x="682" y="666"/>
			<point x="695" y="720"/>
		</contour>
		<contour>
			<point x="296" y="816" type="curve"/>
			<point x="268" y="822" type="line"/>
			<point x="215" y="659"/>
			<point x="130" y="498"/>
			<point x="35" y="392" type="curve"/>
			<point x="42" y="386"/>
			<point x="53" y="375"/>
			<point x="57" y="369" type="curve"/>
			<point x="153" y="482"/>
			<point x="239" y="644"/>
		</contour>
		<contour>
			<point x="214" y="634" type="line"/>
			<point x="185" y="606" type="line"/>
			<point x="185" y="-71" type="line"/>
			<point x="215" y="-71" type="line"/>
			<point x="215" y="632" type="line"/>
		</contour>
	</outline>
</glyph>
<glyph name="uni50E0" format="2">
	<advance width="1000" height="1000"/>
	<unicode hex="50E0"/>
	<note>
		cid10652
	</note>
	<outline>
		<contour>
			<point x="305" y="814" type="curve"/>
			<point x="277" y="822" type="line"/>
			<point x="222" y="672"/>
			<point x="134" y="525"/>
			<point x="40" y="428" type="curve"/>
			<point x="47" y="423"/>
			<point x="57" y="410"/>
			<point x="61" y="404" type="curve"/>
			<point x="155" y="504"/>
			<point x="249" y="662"/>
		</contour>
		<contour>
			<point x="207" y="626" type="line"/>
			<point x="180" y="598" type="line"/>
			<point x="180" y="-71" type="line"/>
			<point x="209" y="-71" type="line"/>
			<point x="209" y="625" type="line"/>
		</contour>
		<contour>
			<point x="940" y="569" type="line"/>
			<point x="288" y="569" type="line"/>
			<point x="288" y="540" type="line"/>
			<point x="940" y="540" type="line"/>
		</contour>
		<contour>
			<point x="847" y="166" type="line"/>
			<point x="385" y="166" type="line"/>
			<point x="385" y="137" type="line"/>
			<point x="847" y="137" type="line"/>
		</contour>
		<contour>
			<point x="847" y="3" type="line"/>
			<point x="385" y="3" type="line"/>
			<point x="385" y="-26" type="line"/>
			<point x="847" y="-26" type="line"/>
		</contour>
		<contour>
			<point x="625" y="777" type="line"/>
			<point x="596" y="777" type="line"/>
			<point x="596" y="345" type="line"/>
			<point x="625" y="345" type="line"/>
		</contour>
		<contour>
			<point x="625" y="307" type="line"/>
			<point x="596" y="307" type="line"/>
			<point x="596" y="-16" type="line"/>
			<point x="625" y="-16" type="line"/>
		</contour>
		<contour>
			<point x="879" y="799" type="curve"/>
			<point x="853" y="823" type="line"/>
			<point x="741" y="795"/>
			<point x="509" y="777"/>
			<point x="329" y="770" type="curve"/>
			<point x="332" y="762"/>
			<point x="337" y="752"/>
			<point x="338" y="745" type="curve"/>
			<point x="557" y="750"/>
			<point x="751" y="769"/>
		</contour>
		<contour>
			<point x="421" y="721" type="curve"/>
			<point x="397" y="710" type="line"/>
			<point x="424" y="674"/>
			<point x="451" y="625"/>
			<point x="463" y="593" type="curve"/>
			<point x="488" y="606" type="line"/>
			<point x="476" y="638"/>
			<point x="448" y="686"/>
		</contour>
		<contour>
			<point x="836" y="728" type="curve"/>
			<point x="807" y="743" type="line"/>
			<point x="788" y="704"/>
			<point x="751" y="644"/>
			<point x="722" y="607" type="curve"/>
			<point x="746" y="595" type="line"/>
			<point x="774" y="629"/>
			<point x="808" y="682"/>
		</contour>
		<contour>
			<point x="861" y="321" type="line"/>
			<point x="371" y="321" type="line"/>
			<point x="371" y="-64" type="line"/>
			<point x="400" y="-64" type="line"/>
			<point x="400" y="292" type="line"/>
			<point x="832" y="292" type="line"/>
			<point x="832" y="-60" type="line"/>
			<point x="861" y="-60" type="line"/>
		</contour>
		<contour>
			<point x="595" y="549" type="curve"/>
			<point x="570" y="561" type="line"/>
			<point x="505" y="462"/>
			<point x="387" y="365"/>
			<point x="264" y="309" type="curve"/>
			<point x="272" y="304"/>
			<point x="281" y="294"/>
			<point x="286" y="286" type="curve"/>
			<point x="409" y="347"/>
			<point x="528" y="448"/>
		</contour>
		<contour>
			<point x="649" y="561" type="curve"/>
			<point x="626" y="549" type="line"/>
			<point x="701" y="447"/>
			<point x="822" y="351"/>
			<point x="940" y="301" type="curve"/>
			<point x="945" y="308"/>
			<point x="955" y="319"/>
			<point x="962" y="325" type="curve"/>
			<point x="844" y="370"/>
			<point x="723" y="461"/>
		</contour>
	</outline>
</glyph>
<glyph name="uni50FD" format="2">
	<advance width="1000" height="1000"/>
	<unicode hex="50FD"/>
	<note>
		cid10707
	</note>
	<outline>
		<contour>
			<point x="297" y="815" type="curve"/>
			<point x="269" y="822" type="line"/>
			<point x="217" y="658"/>
			<point x="134" y="498"/>
			<point x="41" y="392" type="curve"/>
			<point x="48" y="386"/>
			<point x="58" y="375"/>
			<point x="63" y="368" type="curve"/>
			<point x="156" y="481"/>
			<point x="240" y="641"/>
		</contour>
		<contour>
			<point x="204" y="617" type="line"/>
			<point x="175" y="587" type="line"/>
			<point x="175" y="-71" type="line"/>
			<point x="204" y="-71" type="line"/>
			<point x="204" y="616" type="line"/>
		</contour>
		<contour>
			<point x="495" y="-3" type="curve" smooth="yes"/>
			<point x="495" y="218" type="line"/>
			<point x="466" y="218" type="line"/>
			<point x="466" y="-3" type="line" smooth="yes"/>
			<point x="466" y="-49"/>
			<point x="484" y="-58"/>
			<point x="550" y="-58" type="curve" smooth="yes"/>
			<point x="608" y="-58"/>
			<point x="666" y="-58"/>
			<point x="724" y="-58" type="curve" smooth="yes"/>
			<point x="782" y="-58"/>
			<point x="792" y="-35"/>
			<point x="797" y="67" type="curve"/>
			<point x="787" y="70"/>
			<point x="776" y="74"/>
			<point x="768" y="81" type="curve"/>
			<point x="765" y="-16"/>
			<point x="759" y="-29"/>
			<point x="721" y="-29" type="curve" smooth="yes"/>
			<point x="664" y="-29"/>
			<point x="606" y="-29"/>
			<point x="549" y="-29" type="curve" smooth="yes"/>
			<point x="503" y="-29"/>
			<point x="495" y="-24"/>
		</contour>
		<contour>
			<point x="391" y="185" type="curve"/>
			<point x="364" y="194" type="line"/>
			<point x="349" y="118"/>
			<point x="318" y="29"/>
			<point x="264" y="-18" type="curve"/>
			<point x="287" y="-37" type="line"/>
			<point x="345" y="15"/>
			<point x="374" y="107"/>
		</contour>
		<contour>
			<point x="547" y="262" type="curve"/>
			<point x="527" y="247" type="line"/>
			<point x="585" y="209"/>
			<point x="649" y="153"/>
			<point x="681" y="113" type="curve"/>
			<point x="702" y="132" type="line"/>
			<point x="671" y="171"/>
			<point x="605" y="226"/>
		</contour>
		<contour>
			<point x="809" y="207" type="curve"/>
			<point x="784" y="193" type="line"/>
			<point x="845" y="127"/>
			<point x="907" y="35"/>
			<point x="930" y="-26" type="curve"/>
			<point x="957" y="-10" type="line"/>
			<point x="932" y="50"/>
			<point x="871" y="142"/>
		</contour>
		<contour>
			<point x="953" y="692" type="curve"/>
			<point x="925" y="706" type="line"/>
			<point x="904" y="658"/>
			<point x="865" y="586"/>
			<point x="835" y="542" type="curve"/>
			<point x="859" y="528" type="line"/>
			<point x="890" y="573"/>
			<point x="926" y="637"/>
		</contour>
		<contour>
			<point x="771" y="599" type="curve" smooth="yes"/>
			<point x="771" y="827" type="line"/>
			<point x="759" y="827" type="line"/>
			<point x="746" y="827" type="line"/>
			<point x="746" y="599" type="line" smooth="yes"/>
			<point x="746" y="560"/>
			<point x="733" y="385"/>
			<point x="569" y="295" type="curve"/>
			<point x="575" y="289"/>
			<point x="583" y="280"/>
			<point x="587" y="274" type="curve"/>
			<point x="715" y="347"/>
			<point x="752" y="473"/>
			<point x="759" y="521" type="curve"/>
			<point x="765" y="473"/>
			<point x="806" y="345"/>
			<point x="943" y="274" type="curve"/>
			<point x="946" y="281"/>
			<point x="955" y="292"/>
			<point x="960" y="298" type="curve"/>
			<point x="786" y="381"/>
			<point x="771" y="560"/>
		</contour>
		<contour>
			<point x="659" y="695" type="curve"/>
			<point x="633" y="700" type="line"/>
			<point x="628" y="637"/>
			<point x="611" y="565"/>
			<point x="582" y="522" type="curve"/>
			<point x="606" y="508" type="line"/>
			<point x="639" y="554"/>
			<point x="655" y="632"/>
		</contour>
		<contour>
			<point x="459" y="761" type="line"/>
			<point x="430" y="761" type="line"/>
			<point x="430" y="262" type="line"/>
			<point x="459" y="262" type="line"/>
		</contour>
		<contour>
			<point x="581" y="628" type="line"/>
			<point x="276" y="628" type="line"/>
			<point x="276" y="599" type="line"/>
			<point x="581" y="599" type="line"/>
		</contour>
		<contour>
			<point x="451" y="611" type="curve"/>
			<point x="427" y="620" type="line"/>
			<point x="390" y="529"/>
			<point x="316" y="422"/>
			<point x="256" y="369" type="curve"/>
			<point x="262" y="364"/>
			<point x="271" y="353"/>
			<point x="276" y="346" type="curve"/>
			<point x="338" y="403"/>
			<point x="411" y="516"/>
		</contour>
		<contour>
			<point x="576" y="789" type="curve"/>
			<point x="547" y="810" type="line"/>
			<point x="492" y="787"/>
			<point x="383" y="764"/>
			<point x="293" y="751" type="curve"/>
			<point x="297" y="744"/>
			<point x="302" y="734"/>
			<point x="304" y="727" type="curve"/>
			<point x="397" y="740"/>
			<point x="508" y="762"/>
		</contour>
		<contour>
			<point x="454" y="546" type="curve"/>
			<point x="436" y="531" type="line"/>
			<point x="461" y="510"/>
			<point x="531" y="439"/>
			<point x="550" y="415" type="curve"/>
			<point x="572" y="440" type="line"/>
			<point x="555" y="459"/>
			<point x="476" y="529"/>
		</contour>
	</outline>
</glyph>
<glyph name="uni512E" format="2">
	<advance width="1000" height="1000"/>
	<unicode hex="512E"/>
	<note>
		cid10797
	</note>
	<outline>
		<contour>
			<point x="276" y="815" type="curve"/>
			<point x="247" y="822" type="line"/>
			<point x="201" y="663"/>
			<point x="126" y="507"/>
			<point x="41" y="403" type="curve"/>
			<point x="48" y="399"/>
			<point x="58" y="386"/>
			<point x="62" y="380" type="curve"/>
			<point x="149" y="491"/>
			<point x="231" y="659"/>
		</contour>
		<contour>
			<point x="200" y="635" type="line"/>
			<point x="172" y="607" type="line"/>
			<point x="172" y="-70" type="line"/>
			<point x="201" y="-70" type="line"/>
			<point x="201" y="633" type="line"/>
		</contour>
		<contour>
			<point x="939" y="784" type="line"/>
			<point x="335" y="784" type="line"/>
			<point x="335" y="755" type="line"/>
			<point x="939" y="755" type="line"/>
		</contour>
		<contour>
			<point x="630" y="560" type="line"/>
			<point x="399" y="560" type="line"/>
			<point x="399" y="531" type="line"/>
			<point x="630" y="531" type="line"/>
		</contour>
		<contour>
			<point x="894" y="172" type="line"/>
			<point x="680" y="172" type="line"/>
			<point x="680" y="143" type="line"/>
			<point x="894" y="143" type="line"/>
		</contour>
		<contour>
			<point x="935" y="-12" type="line"/>
			<point x="361" y="-12" type="line"/>
			<point x="361" y="-41" type="line"/>
			<point x="935" y="-41" type="line"/>
		</contour>
		<contour>
			<point x="552" y="674" type="line"/>
			<point x="523" y="674" type="line"/>
			<point x="523" y="286" type="line"/>
			<point x="552" y="286" type="line"/>
		</contour>
		<contour>
			<point x="350" y="431" type="curve" smooth="yes"/>
			<point x="350" y="784" type="line"/>
			<point x="321" y="784" type="line"/>
			<point x="321" y="431" type="line" smooth="yes"/>
			<point x="321" y="289"/>
			<point x="313" y="101"/>
			<point x="229" y="-34" type="curve"/>
			<point x="235" y="-37"/>
			<point x="248" y="-46"/>
			<point x="253" y="-52" type="curve"/>
			<point x="339" y="87"/>
			<point x="350" y="285"/>
		</contour>
		<contour>
			<point x="695" y="290" type="line"/>
			<point x="666" y="290" type="line"/>
			<point x="666" y="-27" type="line"/>
			<point x="695" y="-27" type="line"/>
		</contour>
		<contour>
			<point x="522" y="223" type="line"/>
			<point x="493" y="223" type="line"/>
			<point x="493" y="-27" type="line"/>
			<point x="522" y="-27" type="line"/>
		</contour>
		<contour>
			<point x="550" y="543" type="curve"/>
			<point x="528" y="552" type="line"/>
			<point x="493" y="473"/>
			<point x="440" y="396"/>
			<point x="389" y="352" type="curve"/>
			<point x="395" y="346"/>
			<point x="404" y="334"/>
			<point x="409" y="327" type="curve"/>
			<point x="461" y="376"/>
			<point x="515" y="459"/>
		</contour>
		<contour>
			<point x="936" y="560" type="line"/>
			<point x="662" y="560" type="line"/>
			<point x="662" y="531" type="line"/>
			<point x="936" y="531" type="line"/>
		</contour>
		<contour>
			<point x="808" y="674" type="line"/>
			<point x="779" y="674" type="line"/>
			<point x="779" y="286" type="line"/>
			<point x="808" y="286" type="line"/>
		</contour>
		<contour>
			<point x="797" y="532" type="curve"/>
			<point x="774" y="542" type="line"/>
			<point x="739" y="457"/>
			<point x="686" y="379"/>
			<point x="635" y="341" type="curve"/>
			<point x="642" y="336"/>
			<point x="651" y="326"/>
			<point x="657" y="319" type="curve"/>
			<point x="710" y="364"/>
			<point x="764" y="446"/>
		</contour>
		<contour>
			<point x="816" y="542" type="curve"/>
			<point x="796" y="532" type="line"/>
			<point x="831" y="445"/>
			<point x="881" y="366"/>
			<point x="926" y="327" type="curve"/>
			<point x="931" y="334"/>
			<point x="941" y="344"/>
			<point x="948" y="349" type="curve"/>
			<point x="901" y="388"/>
			<point x="850" y="463"/>
		</contour>
		<contour>
			<point x="545" y="501" type="curve"/>
			<point x="526" y="488" type="line"/>
			<point x="563" y="456"/>
			<point x="600" y="419"/>
			<point x="623" y="392" type="curve"/>
			<point x="643" y="414" type="line"/>
			<point x="618" y="438"/>
			<point x="580" y="472"/>
		</contour>
		<contour>
			<point x="634" y="692" type="curve"/>
			<point x="605" y="714" type="line"/>
			<point x="562" y="693"/>
			<point x="479" y="672"/>
			<point x="409" y="659" type="curve"/>
			<point x="413" y="653"/>
			<point x="419" y="642"/>
			<point x="421" y="636" type="curve"/>
			<point x="497" y="648"/>
			<point x="579" y="669"/>
		</contour>
		<contour>
			<point x="904" y="692" type="curve"/>
			<point x="876" y="714" type="line"/>
			<point x="832" y="691"/>
			<point x="746" y="666"/>
			<point x="675" y="651" type="curve"/>
			<point x="680" y="644"/>
			<point x="684" y="634"/>
			<point x="686" y="627" type="curve"/>
			<point x="771" y="644"/>
			<point x="855" y="669"/>
		</contour>
	</outline>
</glyph>
<glyph name="uni515D" format="2">
	<advance width="1000" height="1000"/>
	<unicode hex="515D"/>
	<note>
		cid10880
	</note>
	<outline>
		<contour>
			<point x="503" y="710" type="line"/>
			<point x="50" y="710" type="line"/>
			<point x="50" y="681" type="line"/>
			<point x="503" y="681" type="line"/>
		</contour>
		<contour>
			<point x="298" y="831" type="line"/>
			<point x="269" y="831" type="line"/>
			<point x="269" y="544" type="line"/>
			<point x="298" y="544" type="line"/>
		</contour>
		<contour>
			<point x="116" y="335" type="line"/>
			<point x="116" y="524" type="line"/>
			<point x="440" y="524" type="line"/>
			<point x="440" y="335" type="line"/>
		</contour>
		<contour>
			<point x="469" y="554" type="line"/>
			<point x="87" y="554" type="line"/>
			<point x="87" y="306" type="line"/>
			<point x="469" y="306" type="line"/>
		</contour>
		<contour>
			<point x="374" y="20" type="curve" smooth="yes"/>
			<point x="374" y="322" type="line"/>
			<point x="345" y="322" type="line"/>
			<point x="345" y="21" type="line" smooth="yes"/>
			<point x="345" y="-43"/>
			<point x="377" y="-55"/>
			<point x="486" y="-55" type="curve" smooth="yes"/>
			<point x="510" y="-55"/>
			<point x="803" y="-55"/>
			<point x="828" y="-55" type="curve" smooth="yes"/>
			<point x="928" y="-55"/>
			<point x="943" y="-25"/>
			<point x="951" y="98" type="curve"/>
			<point x="942" y="100"/>
			<point x="930" y="105"/>
			<point x="921" y="111" type="curve"/>
			<point x="915" y="-5"/>
			<point x="903" y="-26"/>
			<point x="830" y="-26" type="curve" smooth="yes"/>
			<point x="770" y="-26"/>
			<point x="523" y="-26"/>
			<point x="480" y="-26" type="curve" smooth="yes"/>
			<point x="391" y="-26"/>
			<point x="374" y="-16"/>
		</contour>
		<contour>
			<point x="221" y="260" type="curve" smooth="yes"/>
			<point x="221" y="322" type="line"/>
			<point x="192" y="322" type="line"/>
			<point x="192" y="260" type="line" smooth="yes"/>
			<point x="192" y="170"/>
			<point x="172" y="45"/>
			<point x="45" y="-53" type="curve"/>
			<point x="53" y="-58"/>
			<point x="62" y="-65"/>
			<point x="69" y="-72" type="curve"/>
			<point x="198" y="29"/>
			<point x="221" y="161"/>
		</contour>
		<contour>
			<point x="841" y="480" type="line"/>
			<point x="558" y="480" type="line"/>
			<point x="558" y="451" type="line"/>
			<point x="841" y="451" type="line"/>
		</contour>
		<contour>
			<point x="856" y="480" type="curve"/>
			<point x="827" y="480" type="line"/>
			<point x="827" y="473" type="line"/>
			<point x="820" y="218"/>
			<point x="811" y="130"/>
			<point x="795" y="109" type="curve" smooth="yes"/>
			<point x="788" y="100"/>
			<point x="782" y="99"/>
			<point x="769" y="99" type="curve" smooth="yes"/>
			<point x="757" y="99"/>
			<point x="721" y="100"/>
			<point x="683" y="103" type="curve"/>
			<point x="688" y="95"/>
			<point x="691" y="83"/>
			<point x="692" y="74" type="curve"/>
			<point x="723" y="72"/>
			<point x="757" y="71"/>
			<point x="775" y="72" type="curve" smooth="yes"/>
			<point x="796" y="73"/>
			<point x="810" y="78"/>
			<point x="820" y="91" type="curve" smooth="yes"/>
			<point x="841" y="117"/>
			<point x="848" y="198"/>
			<point x="856" y="461" type="curve" smooth="yes"/>
			<point x="856" y="467"/>
			<point x="856" y="480"/>
		</contour>
		<contour>
			<point x="677" y="435" type="curve" smooth="yes"/>
			<point x="677" y="474" type="line"/>
			<point x="648" y="474" type="line"/>
			<point x="648" y="435" type="line" smooth="yes"/>
			<point x="648" y="346"/>
			<point x="634" y="196"/>
			<point x="469" y="85" type="curve"/>
			<point x="477" y="79"/>
			<point x="487" y="71"/>
			<point x="492" y="65" type="curve"/>
			<point x="661" y="183"/>
			<point x="677" y="335"/>
		</contour>
		<contour>
			<point x="793" y="783" type="line"/>
			<point x="624" y="783" type="line"/>
			<point x="624" y="754" type="line"/>
			<point x="793" y="754" type="line"/>
		</contour>
		<contour>
			<point x="632" y="693" type="curve"/>
			<point x="602" y="697" type="line"/>
			<point x="580" y="605"/>
			<point x="540" y="523"/>
			<point x="483" y="466" type="curve"/>
			<point x="491" y="463"/>
			<point x="503" y="453"/>
			<point x="507" y="448" type="curve"/>
			<point x="563" y="506"/>
			<point x="609" y="594"/>
		</contour>
		<contour>
			<point x="812" y="783" type="curve"/>
			<point x="774" y="783" type="line"/>
			<point x="774" y="763" type="line"/>
			<point x="787" y="763" type="line"/>
			<point x="811" y="629"/>
			<point x="868" y="517"/>
			<point x="938" y="457" type="curve"/>
			<point x="944" y="464"/>
			<point x="954" y="473"/>
			<point x="962" y="478" type="curve"/>
			<point x="893" y="534"/>
			<point x="833" y="649"/>
		</contour>
	</outline>
</glyph>
<glyph name="uni516C" format="2">
	<advance width="1000" height="1000"/>
	<unicode hex="516C"/>
	<note>
		cid62102
	</note>
	<outline>
		<contour>
			<point x="474" y="472" type="curve"/>
			<point x="442" y="480" type="line"/>
			<point x="391" y="336"/>
			<point x="298" y="124"/>
			<point x="227" y="-6" type="curve"/>
			<point x="255" y="-16" type="line"/>
			<point x="327" y="115"/>
			<point x="414" y="322"/>
		</contour>
		<contour>
			<point x="98" y="3" type="curve"/>
			<point x="103" y="-28" type="line"/>
			<point x="278" y="-19"/>
			<point x="568" y="-4"/>
			<point x="841" y="11" type="curve"/>
			<point x="843" y="40" type="line"/>
			<point x="559" y="25"/>
			<point x="267" y="10"/>
		</contour>
		<contour>
			<point x="666" y="265" type="curve"/>
			<point x="640" y="252" type="line"/>
			<point x="733" y="151"/>
			<point x="844" y="11"/>
			<point x="897" y="-76" type="curve"/>
			<point x="923" y="-60" type="line"/>
			<point x="871" y="26"/>
			<point x="761" y="163"/>
		</contour>
		<contour>
			<point x="660" y="792" type="line"/>
			<point x="353" y="792" type="line"/>
			<point x="353" y="763" type="line"/>
			<point x="660" y="763" type="line"/>
		</contour>
		<contour>
			<point x="669" y="792" type="curve"/>
			<point x="632" y="792" type="line"/>
			<point x="632" y="771" type="line"/>
			<point x="647" y="771" type="line"/>
			<point x="696" y="625"/>
			<point x="806" y="473"/>
			<point x="934" y="376" type="curve"/>
			<point x="940" y="383"/>
			<point x="951" y="391"/>
			<point x="959" y="396" type="curve"/>
			<point x="828" y="493"/>
			<point x="716" y="646"/>
		</contour>
		<contour>
			<point x="320" y="711" type="curve"/>
			<point x="289" y="720" type="line"/>
			<point x="249" y="598"/>
			<point x="158" y="470"/>
			<point x="53" y="389" type="curve"/>
			<point x="60" y="385"/>
			<point x="70" y="376"/>
			<point x="75" y="371" type="curve"/>
			<point x="177" y="449"/>
			<point x="272" y="580"/>
		</contour>
	</outline>
</glyph>
<glyph name="uni5173" format="2">
	<advance width="1000" height="1000"/>
	<unicode hex="5173"/>
	<note>
		cid10921
	</note>
	<outline>
		<contour>
			<point x="267" y="822" type="curve"/>
			<point x="244" y="810" type="line"/>
			<point x="284" y="758"/>
			<point x="323" y="689"/>
			<point x="344" y="633" type="curve"/>
			<point x="370" y="648" type="line"/>
			<point x="349" y="703"/>
			<point x="310" y="770"/>
		</contour>
		<contour>
			<point x="757" y="816" type="curve"/>
			<point x="728" y="828" type="line"/>
			<point x="704" y="772"/>
			<point x="659" y="688"/>
			<point x="625" y="639" type="curve"/>
			<point x="648" y="627" type="line"/>
			<point x="683" y="676"/>
			<point x="726" y="754"/>
		</contour>
		<contour>
			<point x="871" y="607" type="line"/>
			<point x="130" y="607" type="line"/>
			<point x="130" y="577" type="line"/>
			<point x="871" y="577" type="line"/>
		</contour>
		<contour>
			<point x="920" y="356" type="line"/>
			<point x="81" y="356" type="line"/>
			<point x="81" y="327" type="line"/>
			<point x="920" y="327" type="line"/>
		</contour>
		<contour>
			<point x="523" y="345" type="curve"/>
			<point x="497" y="336" type="line"/>
			<point x="570" y="140"/>
			<point x="724" y="-6"/>
			<point x="920" y="-69" type="curve"/>
			<point x="925" y="-60"/>
			<point x="934" y="-49"/>
			<point x="941" y="-43" type="curve"/>
			<point x="745" y="13"/>
			<point x="592" y="157"/>
		</contour>
		<contour>
			<point x="513" y="420" type="curve" smooth="yes"/>
			<point x="513" y="594" type="line"/>
			<point x="483" y="594" type="line"/>
			<point x="483" y="420" type="line" smooth="yes"/>
			<point x="483" y="273"/>
			<point x="418" y="84"/>
			<point x="61" y="-45" type="curve"/>
			<point x="68" y="-51"/>
			<point x="77" y="-63"/>
			<point x="80" y="-69" type="curve"/>
			<point x="442" y="66"/>
			<point x="513" y="263"/>
		</contour>
	</outline>
</glyph>
<glyph name="uni524E" format="2">
	<advance width="1000"/>
	<unicode hex="524E"/>
	<outline>
		<contour>
			<point x="336" y="300" type="curve"/>
			<point x="312" y="311" type="line"/>
			<point x="249" y="205"/>
			<point x="147" y="102"/>
			<point x="47" y="44" type="curve"/>
			<point x="53" y="38"/>
			<point x="62" y="27"/>
			<point x="66" y="19" type="curve"/>
			<point x="170" y="84"/>
			<point x="274" y="192"/>
		</contour>
		<contour>
			<point x="348" y="486" type="line"/>
			<point x="319" y="486" type="line"/>
			<point x="319" y="-70" type="line"/>
			<point x="348" y="-70" type="line"/>
		</contour>
		<contour>
			<point x="341" y="262" type="curve"/>
			<point x="325" y="243" type="line"/>
			<point x="397" y="192"/>
			<point x="478" y="127"/>
			<point x="536" y="74" type="curve"/>
			<point x="556" y="99" type="line"/>
			<point x="495" y="148"/>
			<point x="412" y="211"/>
		</contour>
		<contour>
			<point x="556" y="332" type="line"/>
			<point x="61" y="332" type="line"/>
			<point x="61" y="303" type="line"/>
			<point x="556" y="303" type="line"/>
		</contour>
		<contour>
			<point x="428" y="483" type="curve"/>
			<point x="408" y="468" type="line"/>
			<point x="447" y="443"/>
			<point x="491" y="405"/>
			<point x="513" y="379" type="curve"/>
			<point x="533" y="396" type="line"/>
			<point x="512" y="422"/>
			<point x="467" y="459"/>
		</contour>
		<contour>
			<point x="509" y="792" type="curve"/>
			<point x="482" y="802" type="line"/>
			<point x="387" y="661"/>
			<point x="217" y="548"/>
			<point x="61" y="483" type="curve"/>
			<point x="68" y="477"/>
			<point x="78" y="464"/>
			<point x="82" y="458" type="curve"/>
			<point x="240" y="531"/>
			<point x="414" y="652"/>
		</contour>
		<contour>
			<point x="118" y="756" type="curve"/>
			<point x="99" y="735" type="line"/>
			<point x="215" y="692"/>
			<point x="434" y="592"/>
			<point x="533" y="518" type="curve"/>
			<point x="553" y="544" type="line"/>
			<point x="458" y="611"/>
			<point x="240" y="714"/>
		</contour>
		<contour>
			<point x="690" y="713" type="line"/>
			<point x="661" y="713" type="line"/>
			<point x="661" y="170" type="line"/>
			<point x="690" y="170" type="line"/>
		</contour>
		<contour>
			<point x="902" y="-17" type="curve" smooth="yes"/>
			<point x="902" y="810" type="line"/>
			<point x="873" y="810" type="line"/>
			<point x="873" y="-17" type="line" smooth="yes"/>
			<point x="873" y="-36"/>
			<point x="866" y="-41"/>
			<point x="848" y="-42" type="curve" smooth="yes"/>
			<point x="833" y="-43"/>
			<point x="776" y="-43"/>
			<point x="707" y="-42" type="curve"/>
			<point x="712" y="-50"/>
			<point x="717" y="-62"/>
			<point x="720" y="-70" type="curve"/>
			<point x="804" y="-70"/>
			<point x="846" y="-70"/>
			<point x="869" y="-64" type="curve" smooth="yes"/>
			<point x="890" y="-59"/>
			<point x="902" y="-48"/>
		</contour>
	</outline>
</glyph>
<glyph name="uni5262" format="2">
	<advance width="1000" height="1000"/>
	<unicode hex="5262"/>
	<note>
		cid11272
	</note>
	<outline>
		<contour>
			<point x="585" y="750" type="line"/>
			<point x="81" y="750" type="line"/>
			<point x="81" y="721" type="line"/>
			<point x="585" y="721" type="line"/>
		</contour>
		<contour>
			<point x="290" y="616" type="curve"/>
			<point x="268" y="601" type="line"/>
			<point x="467" y="396"/>
			<point x="450" y="41"/>
			<point x="370" y="-20" type="curve" smooth="yes"/>
			<point x="348" y="-37"/>
			<point x="327" y="-39"/>
			<point x="298" y="-39" type="curve" smooth="yes"/>
			<point x="279" y="-39"/>
			<point x="242" y="-38"/>
			<point x="206" y="-35" type="curve"/>
			<point x="210" y="-44"/>
			<point x="213" y="-56"/>
			<point x="214" y="-66" type="curve"/>
			<point x="248" y="-68"/>
			<point x="284" y="-69"/>
			<point x="304" y="-69" type="curve" smooth="yes"/>
			<point x="344" y="-69"/>
			<point x="366" y="-62"/>
			<point x="394" y="-40" type="curve" smooth="yes"/>
			<point x="487" y="33"/>
			<point x="497" y="410"/>
		</contour>
		<contour>
			<point x="371" y="501" type="curve"/>
			<point x="347" y="513" type="line"/>
			<point x="279" y="415"/>
			<point x="150" y="312"/>
			<point x="45" y="265" type="curve"/>
			<point x="52" y="259"/>
			<point x="61" y="248"/>
			<point x="66" y="240" type="curve"/>
			<point x="170" y="292"/>
			<point x="303" y="398"/>
		</contour>
		<contour>
			<point x="431" y="363" type="curve"/>
			<point x="407" y="377" type="line"/>
			<point x="315" y="243"/>
			<point x="175" y="113"/>
			<point x="44" y="40" type="curve"/>
			<point x="52" y="34"/>
			<point x="61" y="24"/>
			<point x="67" y="16" type="curve"/>
			<point x="198" y="95"/>
			<point x="339" y="229"/>
		</contour>
		<contour>
			<point x="587" y="545" type="curve"/>
			<point x="562" y="562" type="line"/>
			<point x="522" y="509"/>
			<point x="453" y="435"/>
			<point x="402" y="388" type="curve"/>
			<point x="424" y="370" type="line"/>
			<point x="475" y="417"/>
			<point x="540" y="484"/>
		</contour>
		<contour>
			<point x="412" y="735" type="curve"/>
			<point x="384" y="745" type="line"/>
			<point x="321" y="642"/>
			<point x="194" y="539"/>
			<point x="54" y="475" type="curve"/>
			<point x="60" y="468"/>
			<point x="70" y="453"/>
			<point x="73" y="447" type="curve"/>
			<point x="217" y="520"/>
			<point x="348" y="631"/>
		</contour>
		<contour>
			<point x="422" y="386" type="curve"/>
			<point x="403" y="371" type="line"/>
			<point x="470" y="302"/>
			<point x="539" y="214"/>
			<point x="580" y="147" type="curve"/>
			<point x="599" y="166" type="line"/>
			<point x="561" y="230"/>
			<point x="493" y="314"/>
		</contour>
		<contour>
			<point x="690" y="713" type="line"/>
			<point x="661" y="713" type="line"/>
			<point x="661" y="170" type="line"/>
			<point x="690" y="170" type="line"/>
		</contour>
		<contour>
			<point x="902" y="-18" type="curve" smooth="yes"/>
			<point x="902" y="809" type="line"/>
			<point x="873" y="809" type="line"/>
			<point x="873" y="-18" type="line" smooth="yes"/>
			<point x="873" y="-37"/>
			<point x="866" y="-42"/>
			<point x="848" y="-43" type="curve" smooth="yes"/>
			<point x="833" y="-44"/>
			<point x="776" y="-44"/>
			<point x="707" y="-43" type="curve"/>
			<point x="712" y="-51"/>
			<point x="717" y="-63"/>
			<point x="720" y="-71" type="curve"/>
			<point x="804" y="-71"/>
			<point x="846" y="-71"/>
			<point x="869" y="-65" type="curve" smooth="yes"/>
			<point x="890" y="-60"/>
			<point x="902" y="-49"/>
		</contour>
		<contour>
			<point x="151" y="441" type="curve"/>
			<point x="132" y="425" type="line"/>
			<point x="190" y="376"/>
			<point x="245" y="315"/>
			<point x="275" y="266" type="curve"/>
			<point x="294" y="286" type="line"/>
			<point x="265" y="333"/>
			<point x="210" y="392"/>
		</contour>
	</outline>
</glyph>
<glyph name="uni529E" format="2">
	<advance width="1000" height="1000"/>
	<unicode hex="529E"/>
	<note>
		cid11380
	</note>
	<outline>
		<contour>
			<point x="716" y="633" type="line"/>
			<point x="95" y="633" type="line"/>
			<point x="95" y="604" type="line"/>
			<point x="716" y="604" type="line"/>
		</contour>
		<contour>
			<point x="734" y="633" type="curve"/>
			<point x="705" y="633" type="line"/>
			<point x="705" y="625" type="line"/>
			<point x="688" y="180"/>
			<point x="670" y="11"/>
			<point x="634" y="-26" type="curve" smooth="yes"/>
			<point x="623" y="-38"/>
			<point x="612" y="-40"/>
			<point x="590" y="-40" type="curve" smooth="yes"/>
			<point x="567" y="-40"/>
			<point x="498" y="-39"/>
			<point x="425" y="-32" type="curve"/>
			<point x="430" y="-41"/>
			<point x="433" y="-53"/>
			<point x="434" y="-63" type="curve"/>
			<point x="496" y="-67"/>
			<point x="561" y="-70"/>
			<point x="594" y="-69" type="curve" smooth="yes"/>
			<point x="625" y="-68"/>
			<point x="644" y="-62"/>
			<point x="661" y="-42" type="curve" smooth="yes"/>
			<point x="701" y="2"/>
			<point x="717" y="165"/>
			<point x="734" y="611" type="curve" smooth="yes"/>
			<point x="734" y="617"/>
			<point x="734" y="633"/>
		</contour>
		<contour>
			<point x="446" y="690" type="curve" smooth="yes"/>
			<point x="446" y="831" type="line"/>
			<point x="417" y="831" type="line"/>
			<point x="417" y="690" type="line" smooth="yes"/>
			<point x="417" y="448"/>
			<point x="398" y="146"/>
			<point x="51" y="-49" type="curve"/>
			<point x="58" y="-55"/>
			<point x="68" y="-65"/>
			<point x="72" y="-71" type="curve"/>
			<point x="423" y="129"/>
			<point x="446" y="441"/>
		</contour>
		<contour>
			<point x="212" y="481" type="curve"/>
			<point x="186" y="489" type="line"/>
			<point x="166" y="369"/>
			<point x="117" y="269"/>
			<point x="50" y="211" type="curve"/>
			<point x="72" y="192" type="line"/>
			<point x="142" y="255"/>
			<point x="192" y="358"/>
		</contour>
		<contour>
			<point x="834" y="493" type="curve"/>
			<point x="806" y="484" type="line"/>
			<point x="861" y="386"/>
			<point x="905" y="272"/>
			<point x="920" y="190" type="curve"/>
			<point x="950" y="199" type="line"/>
			<point x="934" y="281"/>
			<point x="889" y="394"/>
		</contour>
	</outline>
</glyph>
<glyph name="uni52A8" format="2">
	<advance width="1000" height="1000"/>
	<unicode hex="52A8"/>
	<note>
		cid11393
	</note>
	<outline>
		<contour>
			<point x="442" y="744" type="line"/>
			<point x="85" y="744" type="line"/>
			<point x="85" y="715" type="line"/>
			<point x="442" y="715" type="line"/>
		</contour>
		<contour>
			<point x="467" y="500" type="line"/>
			<point x="50" y="500" type="line"/>
			<point x="50" y="471" type="line"/>
			<point x="467" y="471" type="line"/>
		</contour>
		<contour>
			<point x="244" y="481" type="curve"/>
			<point x="212" y="489" type="line"/>
			<point x="188" y="357"/>
			<point x="154" y="209"/>
			<point x="123" y="105" type="curve"/>
			<point x="151" y="97" type="line"/>
			<point x="183" y="202"/>
			<point x="219" y="350"/>
		</contour>
		<contour>
			<point x="44" y="100" type="curve"/>
			<point x="57" y="71" type="line"/>
			<point x="158" y="91"/>
			<point x="306" y="122"/>
			<point x="441" y="151" type="curve"/>
			<point x="439" y="178" type="line"/>
			<point x="296" y="148"/>
			<point x="144" y="118"/>
		</contour>
		<contour>
			<point x="363" y="364" type="curve"/>
			<point x="336" y="354" type="line"/>
			<point x="389" y="262"/>
			<point x="435" y="148"/>
			<point x="454" y="59" type="curve"/>
			<point x="483" y="70" type="line"/>
			<point x="464" y="159"/>
			<point x="417" y="272"/>
		</contour>
		<contour>
			<point x="919" y="596" type="line"/>
			<point x="479" y="596" type="line"/>
			<point x="479" y="567" type="line"/>
			<point x="919" y="567" type="line"/>
		</contour>
		<contour>
			<point x="937" y="596" type="curve"/>
			<point x="908" y="596" type="line"/>
			<point x="908" y="587" type="line"/>
			<point x="895" y="161"/>
			<point x="879" y="13"/>
			<point x="849" y="-20" type="curve"/>
			<point x="840" y="-32"/>
			<point x="829" y="-34"/>
			<point x="811" y="-33" type="curve" smooth="yes"/>
			<point x="791" y="-33"/>
			<point x="735" y="-33"/>
			<point x="674" y="-28" type="curve"/>
			<point x="679" y="-36"/>
			<point x="682" y="-49"/>
			<point x="683" y="-58" type="curve"/>
			<point x="734" y="-62"/>
			<point x="787" y="-64"/>
			<point x="816" y="-63" type="curve" smooth="yes"/>
			<point x="844" y="-62"/>
			<point x="861" y="-56"/>
			<point x="875" y="-37" type="curve"/>
			<point x="911" y="4"/>
			<point x="922" y="141"/>
			<point x="937" y="573" type="curve"/>
			<point x="937" y="579"/>
			<point x="937" y="596"/>
		</contour>
		<contour>
			<point x="691" y="552" type="curve" smooth="yes"/>
			<point x="691" y="829" type="line"/>
			<point x="661" y="829" type="line"/>
			<point x="661" y="552" type="line" smooth="yes"/>
			<point x="661" y="353"/>
			<point x="636" y="121"/>
			<point x="405" y="-52" type="curve"/>
			<point x="413" y="-58"/>
			<point x="423" y="-66"/>
			<point x="429" y="-72" type="curve"/>
			<point x="662" y="107"/>
			<point x="691" y="339"/>
		</contour>
	</outline>
</glyph>
<glyph name="uni535F" format="2">
	<advance width="1000" height="1000"/>
	<unicode hex="535F"/>
	<note>
		cid11692
	</note>
	<outline>
		<contour>
			<point x="402" y="716" type="line"/>
			<point x="121" y="716" type="line"/>
			<point x="121" y="687" type="line"/>
			<point x="373" y="687" type="line"/>
			<point x="373" y="248" type="line"/>
			<point x="121" y="248" type="line"/>
			<point x="121" y="219" type="line"/>
			<point x="402" y="219" type="line"/>
		</contour>
		<contour>
			<point x="136" y="716" type="line"/>
			<point x="107" y="716" type="line"/>
			<point x="107" y="126" type="line"/>
			<point x="136" y="126" type="line"/>
		</contour>
		<contour>
			<point x="607" y="831" type="line"/>
			<point x="578" y="831" type="line"/>
			<point x="578" y="-68" type="line"/>
			<point x="607" y="-68" type="line"/>
		</contour>
		<contour>
			<point x="604" y="513" type="curve"/>
			<point x="585" y="492" type="line"/>
			<point x="714" y="423"/>
			<point x="847" y="340"/>
			<point x="930" y="278" type="curve"/>
			<point x="949" y="303" type="line"/>
			<point x="863" y="366"/>
			<point x="730" y="447"/>
		</contour>
	</outline>
</glyph>
<glyph name="uni53D1" format="2">
	<advance width="1000" height="1000"/>
	<unicode hex="53D1"/>
	<note>
		cid11872
	</note>
	<outline>
		<contour>
			<point x="385" y="410" type="curve"/>
			<point x="360" y="400" type="line"/>
			<point x="457" y="157"/>
			<point x="660" y="-10"/>
			<point x="931" y="-74" type="curve"/>
			<point x="935" y="-66"/>
			<point x="943" y="-56"/>
			<point x="950" y="-50" type="curve"/>
			<point x="678" y="10"/>
			<point x="478" y="176"/>
		</contour>
		<contour>
			<point x="760" y="426" type="line"/>
			<point x="754" y="426" type="line"/>
			<point x="754" y="420" type="line"/>
			<point x="681" y="189"/>
			<point x="498" y="21"/>
			<point x="243" y="-50" type="curve"/>
			<point x="249" y="-56"/>
			<point x="257" y="-66"/>
			<point x="260" y="-73" type="curve"/>
			<point x="522" y="2"/>
			<point x="710" y="178"/>
			<point x="785" y="419" type="curve"/>
			<point x="766" y="428" type="line"/>
		</contour>
		<contour>
			<point x="760" y="426" type="line"/>
			<point x="378" y="426" type="line"/>
			<point x="370" y="397" type="line"/>
			<point x="760" y="397" type="line"/>
		</contour>
		<contour>
			<point x="248" y="791" type="curve"/>
			<point x="218" y="795" type="line"/>
			<point x="194" y="705"/>
			<point x="159" y="592"/>
			<point x="127" y="503" type="curve"/>
			<point x="156" y="498" type="line"/>
			<point x="187" y="583"/>
			<point x="223" y="696"/>
		</contour>
		<contour>
			<point x="916" y="587" type="line"/>
			<point x="165" y="587" type="line"/>
			<point x="165" y="557" type="line"/>
			<point x="916" y="557" type="line"/>
		</contour>
		<contour>
			<point x="450" y="832" type="curve"/>
			<point x="421" y="832" type="line"/>
			<point x="411" y="429"/>
			<point x="277" y="122"/>
			<point x="47" y="-24" type="curve"/>
			<point x="55" y="-28"/>
			<point x="67" y="-36"/>
			<point x="74" y="-42" type="curve"/>
			<point x="305" y="107"/>
			<point x="440" y="421"/>
		</contour>
		<contour>
			<point x="642" y="810" type="curve"/>
			<point x="623" y="791" type="line"/>
			<point x="693" y="754"/>
			<point x="774" y="699"/>
			<point x="815" y="657" type="curve"/>
			<point x="834" y="681" type="line"/>
			<point x="794" y="721"/>
			<point x="712" y="776"/>
		</contour>
	</outline>
</glyph>
<glyph name="uni53EA" format="2">
	<advance width="1000" height="1000"/>
	<unicode hex="53EA"/>
	<note>
		cid11909
	</note>
	<outline>
		<contour>
			<point x="842" y="755" type="line"/>
			<point x="175" y="755" type="line"/>
			<point x="175" y="271" type="line"/>
			<point x="842" y="271" type="line"/>
		</contour>
		<contour>
			<point x="204" y="300" type="line"/>
			<point x="204" y="725" type="line"/>
			<point x="813" y="725" type="line"/>
			<point x="813" y="300" type="line"/>
		</contour>
		<contour>
			<point x="634" y="189" type="curve"/>
			<point x="614" y="174" type="line"/>
			<point x="718" y="101"/>
			<point x="840" y="-4"/>
			<point x="899" y="-72" type="curve"/>
			<point x="920" y="-54" type="line"/>
			<point x="861" y="15"/>
			<point x="738" y="118"/>
		</contour>
		<contour>
			<point x="387" y="182" type="curve"/>
			<point x="358" y="193" type="line"/>
			<point x="298" y="105"/>
			<point x="179" y="10"/>
			<point x="72" y="-51" type="curve"/>
			<point x="78" y="-56"/>
			<point x="87" y="-66"/>
			<point x="91" y="-72" type="curve"/>
			<point x="201" y="-10"/>
			<point x="319" y="89"/>
		</contour>
	</outline>
</glyph>
<glyph name="uni53FB" format="2">
	<advance width="1000"/>
	<unicode hex="53FB"/>
	<note>
		cid11934
	</note>
	<outline>
		<contour>
			<point x="353" y="678" type="line"/>
			<point x="102" y="678" type="line"/>
			<point x="102" y="649" type="line"/>
			<point x="324" y="649" type="line"/>
			<point x="324" y="222" type="line"/>
			<point x="102" y="222" type="line"/>
			<point x="102" y="193" type="line"/>
			<point x="353" y="193" type="line"/>
		</contour>
		<contour>
			<point x="116" y="678" type="line"/>
			<point x="87" y="678" type="line"/>
			<point x="87" y="78" type="line"/>
			<point x="116" y="78" type="line"/>
		</contour>
		<contour>
			<point x="854" y="595" type="line"/>
			<point x="394" y="595" type="line"/>
			<point x="394" y="566" type="line"/>
			<point x="854" y="566" type="line"/>
		</contour>
		<contour>
			<point x="871" y="595" type="curve"/>
			<point x="842" y="595" type="line"/>
			<point x="830" y="160"/>
			<point x="810" y="12"/>
			<point x="784" y="-23" type="curve" smooth="yes"/>
			<point x="773" y="-35"/>
			<point x="764" y="-38"/>
			<point x="746" y="-38" type="curve" smooth="yes"/>
			<point x="725" y="-38"/>
			<point x="670" y="-37"/>
			<point x="608" y="-33" type="curve"/>
			<point x="614" y="-41"/>
			<point x="616" y="-54"/>
			<point x="617" y="-63" type="curve"/>
			<point x="669" y="-67"/>
			<point x="721" y="-68"/>
			<point x="750" y="-67" type="curve" smooth="yes"/>
			<point x="777" y="-66"/>
			<point x="795" y="-62"/>
			<point x="810" y="-41" type="curve" smooth="yes"/>
			<point x="841" y="3"/>
			<point x="860" y="129"/>
		</contour>
		<contour>
			<point x="595" y="553" type="curve" smooth="yes"/>
			<point x="595" y="831" type="line"/>
			<point x="566" y="831" type="line"/>
			<point x="566" y="553" type="line" smooth="yes"/>
			<point x="566" y="354"/>
			<point x="540" y="122"/>
			<point x="310" y="-52" type="curve"/>
			<point x="318" y="-56"/>
			<point x="328" y="-65"/>
			<point x="334" y="-71" type="curve"/>
			<point x="567" y="108"/>
			<point x="595" y="341"/>
		</contour>
	</outline>
</glyph>
<glyph name="uni53FC" format="2">
	<advance width="1000"/>
	<unicode hex="53FC"/>
	<note>
		cid11935
	</note>
	<outline>
		<contour>
			<point x="113" y="732" type="line"/>
			<point x="84" y="732" type="line"/>
			<point x="84" y="101" type="line"/>
			<point x="113" y="101" type="line"/>
		</contour>
		<contour>
			<point x="329" y="732" type="line"/>
			<point x="102" y="732" type="line"/>
			<point x="102" y="703" type="line"/>
			<point x="297" y="703" type="line"/>
			<point x="297" y="218" type="line"/>
			<point x="102" y="218" type="line"/>
			<point x="102" y="189" type="line"/>
			<point x="329" y="189" type="line"/>
		</contour>
		<contour>
			<point x="902" y="772" type="line"/>
			<point x="396" y="772" type="line"/>
			<point x="396" y="743" type="line"/>
			<point x="902" y="743" type="line"/>
		</contour>
		<contour>
			<point x="917" y="772" type="curve"/>
			<point x="887" y="772" type="line"/>
			<point x="869" y="199"/>
			<point x="847" y="24"/>
			<point x="810" y="-16" type="curve" smooth="yes"/>
			<point x="799" y="-28"/>
			<point x="788" y="-31"/>
			<point x="768" y="-31" type="curve" smooth="yes"/>
			<point x="744" y="-31"/>
			<point x="678" y="-30"/>
			<point x="604" y="-25" type="curve"/>
			<point x="610" y="-33"/>
			<point x="613" y="-45"/>
			<point x="614" y="-55" type="curve"/>
			<point x="674" y="-59"/>
			<point x="736" y="-61"/>
			<point x="771" y="-60" type="curve" smooth="yes"/>
			<point x="802" y="-59"/>
			<point x="823" y="-54"/>
			<point x="839" y="-32" type="curve" smooth="yes"/>
			<point x="880" y="24"/>
			<point x="900" y="178"/>
		</contour>
		<contour>
			<point x="391" y="274" type="curve"/>
			<point x="411" y="248" type="line"/>
			<point x="529" y="317"/>
			<point x="682" y="408"/>
			<point x="807" y="483" type="curve"/>
			<point x="795" y="509" type="line"/>
			<point x="672" y="436"/>
			<point x="516" y="345"/>
		</contour>
	</outline>
</glyph>
